SplineFontDB: 3.2
FontName: Marble-Regular
FullName: Marble
FamilyName: Marble
Weight: Regular
Copyright: Copyright (c) 2026, Guanbin Wu
UComments: "2026-2-3: Created with FontForge (http://fontforge.org)"
Version: 1.000
ItalicAngle: 0
UnderlinePosition: -102
UnderlineWidth: 51
Ascent: 796
Descent: 228
InvalidEm: 0
LayerCount: 2
Layer: 0 0 "Back" 1
Layer: 1 0 "Fore" 0
XUID: [1021 248 -1467249080 7587]
FSType: 0
OS2Version: 0
OS2_WeightWidthSlopeOnly: 0
OS2_UseTypoMetrics: 0
CreationTime: 1770103687
ModificationTime: 1770473652
PfmFamily: 17
TTFWeight: 400
TTFWidth: 5
LineGap: 94
VLineGap: 0
OS2TypoAscent: 340
OS2TypoAOffset: 1
OS2TypoDescent: 228
OS2TypoDOffset: 1
OS2TypoLinegap: 94
OS2WinAscent: 340
OS2WinAOffset: 1
OS2WinDescent: 228
OS2WinDOffset: 1
HheadAscent: 340
HheadAOffset: 1
HheadDescent: 228
HheadDOffset: 1
OS2CapHeight: 796
OS2XHeight: 568
OS2Vendor: 'PfEd'
MarkAttachClasses: 1
DEI: 91125
LangName: 1033
Encoding: UnicodeFull
UnicodeInterp: none
NameList: AGL For New Fonts
DisplaySize: -48
AntiAlias: 1
FitToEm: 0
WidthSeparation: 154
WinInfo: 0 51 18
BeginPrivate: 0
EndPrivate
TeXData: 1 0 0 740352 370176 246784 581632 1048576 246784 783286 444596 497025 792723 393216 433062 380633 303038 157286 324010 404750 52429 2506097 1059062 262144
BeginChars: 1114113 95

StartChar: o
Encoding: 111 111 0
Width: 600
Flags: HW
LayerCount: 2
Fore
SplineSet
375.620117188 469 m 6
 224.379882812 469 l 6
 189.98046875 469 162 445.01953125 162 410.620117188 c 6
 162 158.240234375 l 6
 162 123.83984375 189.98046875 99.8603515625 224.379882812 99.8603515625 c 6
 375.620117188 99.8603515625 l 6
 410.01953125 99.8603515625 438 123.83984375 438 158.240234375 c 6
 438 410.620117188 l 6
 438 445.01953125 410.01953125 469 375.620117188 469 c 6
375.620117188 569 m 5
 463.08984375 569 534 498.08984375 534 410.620117188 c 6
 534 158.240234375 l 6
 534 70.76953125 463.08984375 -0.1396484375 375.620117188 -0.1396484375 c 6
 224.379882812 -0.1396484375 l 6
 136.91015625 -0.1396484375 66 70.76953125 66 158.240234375 c 6
 66 410.620117188 l 6
 66 498.08984375 136.91015625 569 224.379882812 569 c 6
 375.620117188 569 l 5
EndSplineSet
Validated: 524289
EndChar

StartChar: p
Encoding: 112 112 1
Width: 607
Flags: HW
LayerCount: 2
Fore
SplineSet
379.120117188 466 m 6
 227.879882812 473 l 6
 193.48046875 473 165.5 445.01953125 165.5 410.620117188 c 6
 165.5 158.240234375 l 6
 165.5 123.83984375 193.48046875 95.8603515625 227.879882812 95.8603515625 c 6
 379.120117188 103.860351562 l 6
 413.51953125 103.860351562 441.5 131.83984375 441.5 166.240234375 c 6
 441.5 403.620117188 l 6
 441.5 438.01953125 413.51953125 466 379.120117188 466 c 6
379.120117188 562 m 5
 466.58984375 562 537.5 491.08984375 537.5 403.620117188 c 6
 537.5 166.240234375 l 6
 537.5 78.76953125 466.58984375 7.8603515625 379.120117188 7.8603515625 c 5
 227.879882812 -0.1396484375 l 5
 140.41015625 -0.1396484375 69.5 70.76953125 69.5 158.240234375 c 6
 69.5 410.620117188 l 6
 69.5 498.08984375 140.41015625 569 227.879882812 569 c 5
 379.120117188 562 l 5
69.5 -196.400390625 m 5
 69.5 186.6796875 l 5
 165.5 186.6796875 l 5
 165.5 -196.400390625 l 5
 69.5 -196.400390625 l 5
69.5 -163.599609375 m 6
 69.5 -150.26953125 69.5 -150.26953125 82.830078125 -150.26953125 c 6
 163.709960938 -150.26953125 l 6
 177.040039062 -150.26953125 177.040039062 -150.26953125 177.040039062 -163.599609375 c 6
 177.040039062 -214.809570312 l 6
 177.040039062 -228.139648438 177.040039062 -228.139648438 163.709960938 -228.139648438 c 6
 82.830078125 -228.139648438 l 6
 69.5 -228.139648438 69.5 -228.139648438 69.5 -214.809570312 c 6
 69.5 -163.599609375 l 6
EndSplineSet
Validated: 524293
EndChar

StartChar: h
Encoding: 104 104 2
Width: 616
Flags: HW
LayerCount: 2
Fore
SplineSet
74 45.080078125 m 1
 74 796 l 1
 170 796 l 1
 170 45.080078125 l 1
 74 45.080078125 l 1
446 45.080078125 m 1
 446 436.41015625 l 1
 542 436.41015625 l 1
 542 45.080078125 l 1
 446 45.080078125 l 1
74 64.5400390625 m 2
 74 77.8701171875 74 77.8701171875 87.330078125 77.8701171875 c 2
 168.209960938 77.8701171875 l 2
 181.540039062 77.8701171875 181.540039062 77.8701171875 181.540039062 64.5400390625 c 2
 181.540039062 13.330078125 l 2
 181.540039062 0 181.540039062 0 168.209960938 0 c 2
 87.330078125 0 l 2
 74 0 74 0 74 13.330078125 c 2
 74 64.5400390625 l 2
74 782.669921875 m 2
 74 796 74 796 87.330078125 796 c 2
 168.209960938 796 l 2
 181.540039062 796 181.540039062 796 181.540039062 782.669921875 c 2
 181.540039062 731.459960938 l 2
 181.540039062 718.129882812 181.540039062 718.129882812 168.209960938 718.129882812 c 2
 87.330078125 718.129882812 l 2
 74 718.129882812 74 718.129882812 74 731.459960938 c 2
 74 782.669921875 l 2
434.459960938 64.5400390625 m 2
 434.459960938 77.8701171875 434.459960938 77.8701171875 447.790039062 77.8701171875 c 2
 528.669921875 77.8701171875 l 2
 542 77.8701171875 542 77.8701171875 542 64.5400390625 c 2
 542 13.330078125 l 2
 542 0 542 0 528.669921875 0 c 2
 447.790039062 0 l 2
 434.459960938 0 434.459960938 0 434.459960938 13.330078125 c 2
 434.459960938 64.5400390625 l 2
170 397.299804688 m 1
 74 397.299804688 l 1
 74 409.620117188 l 2
 74 497.08984375 144.91015625 568 232.379882812 568 c 2
 383.620117188 568 l 2
 471.08984375 568 542 497.08984375 542 409.620117188 c 2
 542 397.299804688 l 1
 446 397.299804688 l 1
 446 409.620117188 l 2
 446 444.01953125 418.01953125 468 383.620117188 468 c 2
 232.379882812 468 l 2
 197.98046875 468 170 444.01953125 170 409.620117188 c 2
 170 397.299804688 l 1
EndSplineSet
Validated: 524293
EndChar

StartChar: n
Encoding: 110 110 3
Width: 612
Flags: HW
LayerCount: 2
Fore
SplineSet
72 45.080078125 m 5
 72 414.830078125 l 5
 168 414.830078125 l 5
 168 45.080078125 l 5
 72 45.080078125 l 5
444 45.080078125 m 5
 444 414.830078125 l 5
 540 414.830078125 l 5
 540 45.080078125 l 5
 444 45.080078125 l 5
72 64.5400390625 m 6
 72 77.8701171875 72 77.8701171875 85.330078125 77.8701171875 c 6
 166.209960938 77.8701171875 l 6
 179.540039062 77.8701171875 179.540039062 77.8701171875 179.540039062 64.5400390625 c 6
 179.540039062 13.330078125 l 6
 179.540039062 0 179.540039062 0 166.209960938 0 c 6
 85.330078125 0 l 6
 72 0 72 0 72 13.330078125 c 6
 72 64.5400390625 l 6
432.459960938 64.5400390625 m 6
 432.459960938 77.8701171875 432.459960938 77.8701171875 445.790039062 77.8701171875 c 6
 526.669921875 77.8701171875 l 6
 540 77.8701171875 540 77.8701171875 540 64.5400390625 c 6
 540 13.330078125 l 6
 540 0 540 0 526.669921875 0 c 6
 445.790039062 0 l 6
 432.459960938 0 432.459960938 0 432.459960938 13.330078125 c 6
 432.459960938 64.5400390625 l 6
168 397.299804688 m 5
 72 397.299804688 l 5
 72 409.620117188 l 6
 72 497.08984375 142.91015625 568 230.379882812 568 c 6
 381.620117188 568 l 6
 469.08984375 568 540 497.08984375 540 409.620117188 c 6
 540 397.299804688 l 5
 444 397.299804688 l 5
 444 409.620117188 l 6
 444 444.01953125 416.01953125 468 381.620117188 468 c 6
 230.379882812 468 l 6
 195.98046875 468 168 444.01953125 168 409.620117188 c 6
 168 397.299804688 l 5
EndSplineSet
Validated: 5
EndChar

StartChar: x
Encoding: 120 120 4
Width: 604
Flags: HW
LayerCount: 2
Fore
SplineSet
68 64.400390625 m 6
 68 77.73046875 68 77.73046875 81.330078125 77.73046875 c 6
 150.669921875 77.73046875 l 6
 164 77.73046875 164 77.73046875 164 64.400390625 c 6
 164 13.1904296875 l 6
 164 -0.1396484375 164 -0.1396484375 150.669921875 -0.1396484375 c 6
 81.330078125 -0.1396484375 l 6
 68 -0.1396484375 68 -0.1396484375 68 13.1904296875 c 6
 68 64.400390625 l 6
428.459960938 64.400390625 m 6
 428.459960938 77.73046875 428.459960938 77.73046875 441.790039062 77.73046875 c 6
 522.669921875 77.73046875 l 6
 536 77.73046875 536 77.73046875 536 64.400390625 c 6
 536 13.1904296875 l 6
 536 -0.1396484375 536 -0.1396484375 522.669921875 -0.1396484375 c 6
 441.790039062 -0.1396484375 l 6
 428.459960938 -0.1396484375 428.459960938 -0.1396484375 428.459960938 13.1904296875 c 6
 428.459960938 64.400390625 l 6
68 555.669921875 m 6
 68 569 68 569 81.330078125 569 c 6
 162.209960938 569 l 6
 175.540039062 569 175.540039062 569 175.540039062 555.669921875 c 6
 175.540039062 504.459960938 l 6
 175.540039062 491.129882812 175.540039062 491.129882812 162.209960938 491.129882812 c 6
 81.330078125 491.129882812 l 6
 68 491.129882812 68 491.129882812 68 504.459960938 c 6
 68 555.669921875 l 6
440 555.669921875 m 6
 440 569 440 569 453.330078125 569 c 6
 522.669921875 569 l 6
 536 569 536 569 536 555.669921875 c 6
 536 504.459960938 l 6
 536 491.129882812 536 491.129882812 522.669921875 491.129882812 c 6
 453.330078125 491.129882812 l 6
 440 491.129882812 440 491.129882812 440 504.459960938 c 6
 440 555.669921875 l 6
68 502.66015625 m 5
 164 514.98046875 l 5
 164 502.66015625 l 6
 164 468.26953125 258.450195312 343.98046875 290 343.98046875 c 6
 314 343.98046875 l 6
 345.549804688 343.98046875 440 468.259765625 440 502.66015625 c 6
 440 514.98046875 l 5
 536 502.66015625 l 5
 536 415.190429688 394.23046875 230.98046875 314 230.98046875 c 6
 290 230.98046875 l 6
 209.76953125 230.98046875 68 415.190429688 68 502.66015625 c 5
164 53.8701171875 m 5
 68 66.1904296875 l 5
 68 153.66015625 209.76953125 337.870117188 290 337.870117188 c 6
 314 337.870117188 l 6
 394.23046875 337.870117188 536 153.66015625 536 66.1904296875 c 5
 440 53.8701171875 l 5
 440 66.1904296875 l 6
 440 100.58984375 345.549804688 224.870117188 314 224.870117188 c 6
 290 224.870117188 l 6
 258.450195312 224.870117188 164 100.580078125 164 66.1904296875 c 6
 164 53.8701171875 l 5
68.400390625 554.780273438 m 6
 68.400390625 568.110351562 68.400390625 568.110351562 81.73046875 568.110351562 c 6
 162.610351562 568.110351562 l 6
 175.940429688 568.110351562 175.940429688 568.110351562 175.940429688 554.780273438 c 6
 175.940429688 503.5703125 l 6
 175.940429688 490.240234375 175.940429688 490.240234375 162.610351562 490.240234375 c 6
 81.73046875 490.240234375 l 6
 68.400390625 490.240234375 68.400390625 490.240234375 68.400390625 503.5703125 c 6
 68.400390625 554.780273438 l 6
EndSplineSet
Validated: 524293
EndChar

StartChar: b
Encoding: 98 98 5
Width: 608
Flags: HW
LayerCount: 2
Fore
SplineSet
70 174.759765625 m 1
 70 796 l 1
 166 796 l 1
 166 174.759765625 l 1
 70 174.759765625 l 1
379.620117188 461.139648438 m 2
 228.379882812 469.139648438 l 2
 193.98046875 469.139648438 166 445.16015625 166 410.759765625 c 2
 166 158.379882812 l 2
 166 123.98046875 193.98046875 100 228.379882812 100 c 2
 379.620117188 108 l 2
 414.01953125 108 442 131.98046875 442 166.379882812 c 2
 442 402.759765625 l 2
 442 437.16015625 414.01953125 461.139648438 379.620117188 461.139648438 c 2
379.620117188 561.139648438 m 1
 467.08984375 561.139648438 538 490.23046875 538 402.759765625 c 2
 538 166.379882812 l 2
 538 78.91015625 467.08984375 8 379.620117188 8 c 1
 228.379882812 0 l 1
 140.91015625 0 70 70.91015625 70 158.379882812 c 2
 70 410.759765625 l 2
 70 498.23046875 140.91015625 569.139648438 228.379882812 569.139648438 c 1
 379.620117188 561.139648438 l 1
70 782.669921875 m 2
 70 796 70 796 83.330078125 796 c 2
 164.209960938 796 l 2
 177.540039062 796 177.540039062 796 177.540039062 782.669921875 c 2
 177.540039062 731.459960938 l 2
 177.540039062 718.129882812 177.540039062 718.129882812 164.209960938 718.129882812 c 2
 83.330078125 718.129882812 l 2
 70 718.129882812 70 718.129882812 70 731.459960938 c 2
 70 782.669921875 l 2
EndSplineSet
Validated: 524293
EndChar

StartChar: c
Encoding: 99 99 6
Width: 602
Flags: HW
LayerCount: 2
Fore
SplineSet
532.919921875 436.25 m 5
 532.9296875 436.25 l 5
 489.33984375 412.51953125 l 5
 438.959960938 412.51953125 l 5
 437.950195312 446.040039062 410.389648438 469 376.629882812 469 c 6
 225.389648438 469 l 6
 190.990234375 469 163.009765625 445.01953125 163.009765625 410.620117188 c 6
 163.009765625 158.240234375 l 6
 163.009765625 123.83984375 190.990234375 99.8603515625 225.389648438 99.8603515625 c 6
 376.629882812 99.8603515625 l 6
 408.83984375 99.8603515625 435.419921875 120.389648438 438.669921875 151.759765625 c 5
 498.3203125 151.759765625 l 5
 532.509765625 130.190429688 l 5
 519.26953125 56.099609375 454.51953125 -0.1396484375 376.620117188 -0.1396484375 c 6
 225.379882812 -0.1396484375 l 6
 137.91015625 -0.1396484375 67 70.76953125 67 158.240234375 c 6
 67 410.620117188 l 6
 67 498.08984375 137.91015625 569 225.379882812 569 c 6
 376.620117188 569 l 6
 455.360351562 569 520.669921875 511.530273438 532.919921875 436.25 c 5
427.459960938 477.0703125 m 6
 427.459960938 490.400390625 427.459960938 490.400390625 440.790039062 490.400390625 c 6
 521.669921875 490.400390625 l 6
 535 490.400390625 535 490.400390625 535 477.0703125 c 6
 535 425.860351562 l 6
 535 412.530273438 535 412.530273438 521.669921875 412.530273438 c 6
 440.790039062 412.530273438 l 6
 427.459960938 412.530273438 427.459960938 412.530273438 427.459960938 425.860351562 c 6
 427.459960938 477.0703125 l 6
427.459960938 138.4296875 m 6
 427.459960938 151.759765625 427.459960938 151.759765625 440.790039062 151.759765625 c 6
 521.669921875 151.759765625 l 6
 535 151.759765625 535 151.759765625 535 138.4296875 c 6
 535 87.2197265625 l 6
 535 73.8896484375 535 73.8896484375 521.669921875 73.8896484375 c 6
 440.790039062 73.8896484375 l 6
 427.459960938 73.8896484375 427.459960938 73.8896484375 427.459960938 87.2197265625 c 6
 427.459960938 138.4296875 l 6
EndSplineSet
Validated: 524293
EndChar

StartChar: d
Encoding: 100 100 7
Width: 606
Flags: HW
LayerCount: 2
Fore
SplineSet
441 174.759765625 m 1
 441 796 l 1
 537 796 l 1
 537 174.759765625 l 1
 441 174.759765625 l 1
378.620117188 469.139648438 m 2
 227.379882812 461.139648438 l 2
 192.98046875 461.139648438 165 437.16015625 165 402.759765625 c 2
 165 166.379882812 l 2
 165 131.98046875 192.98046875 108 227.379882812 108 c 2
 378.620117188 100 l 2
 413.01953125 100 441 123.98046875 441 158.379882812 c 2
 441 410.759765625 l 2
 441 445.16015625 413.01953125 469.139648438 378.620117188 469.139648438 c 2
378.620117188 569.139648438 m 1
 466.08984375 569.139648438 537 498.23046875 537 410.759765625 c 2
 537 158.379882812 l 2
 537 70.91015625 466.08984375 0 378.620117188 0 c 1
 227.379882812 8 l 1
 139.91015625 8 69 78.91015625 69 166.379882812 c 2
 69 402.759765625 l 2
 69 490.23046875 139.91015625 561.139648438 227.379882812 561.139648438 c 1
 378.620117188 569.139648438 l 1
429.459960938 782.669921875 m 2
 429.459960938 796 429.459960938 796 442.790039062 796 c 2
 523.669921875 796 l 2
 537 796 537 796 537 782.669921875 c 2
 537 731.459960938 l 2
 537 718.129882812 537 718.129882812 523.669921875 718.129882812 c 2
 442.790039062 718.129882812 l 2
 429.459960938 718.129882812 429.459960938 718.129882812 429.459960938 731.459960938 c 2
 429.459960938 782.669921875 l 2
EndSplineSet
Validated: 524293
EndChar

StartChar: g
Encoding: 103 103 8
Width: 604
Flags: HW
LayerCount: 2
Fore
SplineSet
440 -63.150390625 m 5
 440 359.830078125 l 5
 536 359.830078125 l 5
 536 -63.150390625 l 5
 440 -63.150390625 l 5
377.620117188 469 m 6
 226.379882812 469 l 6
 191.98046875 469 164 445.01953125 164 410.620117188 c 6
 164 166.240234375 l 6
 164 131.83984375 191.98046875 106.860351562 226.379882812 106.860351562 c 6
 377.620117188 105.860351562 l 6
 412.01953125 105.860351562 440 123.83984375 440 158.240234375 c 6
 440 410.620117188 l 6
 440 445.01953125 412.01953125 469 377.620117188 469 c 6
377.620117188 569 m 5
 465.08984375 569 536 498.08984375 536 410.620117188 c 6
 536 158.240234375 l 6
 536 70.76953125 465.08984375 6.8603515625 377.620117188 6.8603515625 c 6
 226.379882812 7.8603515625 l 6
 138.91015625 7.8603515625 68 78.76953125 68 166.240234375 c 6
 68 410.620117188 l 6
 68 498.08984375 138.91015625 569 226.379882812 569 c 6
 377.620117188 569 l 5
175.540039062 -136.209960938 m 6
 175.540039062 -149.540039062 175.540039062 -149.540039062 162.209960938 -149.540039062 c 6
 81.330078125 -149.540039062 l 6
 68 -149.540039062 68 -149.540039062 68 -136.209960938 c 6
 68 -85 l 6
 68 -71.669921875 68 -71.669921875 81.330078125 -71.669921875 c 6
 162.209960938 -71.669921875 l 6
 175.540039062 -71.669921875 175.540039062 -71.669921875 175.540039062 -85 c 6
 175.540039062 -136.209960938 l 6
226.379882812 -228.139648438 m 6
 147.639648438 -228.139648438 82.330078125 -170.669921875 70.080078125 -95.3896484375 c 5
 113.669921875 -71.66015625 l 5
 164.049804688 -71.66015625 l 5
 165.059570312 -105.1796875 192.620117188 -132.139648438 226.379882812 -132.139648438 c 6
 377.620117188 -132.139648438 l 6
 412.01953125 -132.139648438 440 -104.16015625 440 -69.759765625 c 6
 440 -25.919921875 l 5
 536 -25.919921875 l 5
 536 -69.759765625 l 6
 536 -157.23046875 465.08984375 -228.139648438 377.620117188 -228.139648438 c 6
 226.379882812 -228.139648438 l 6
EndSplineSet
Validated: 524293
EndChar

StartChar: e
Encoding: 101 101 9
Width: 602
Flags: HW
LayerCount: 2
Fore
SplineSet
67 364.580078125 m 5
 498.030273438 364.580078125 l 5
 498.030273438 268.580078125 l 5
 67 268.580078125 l 5
 67 364.580078125 l 5
427.459960938 143 m 6
 427.459960938 156.330078125 427.459960938 156.330078125 440.790039062 156.330078125 c 6
 521.669921875 156.330078125 l 6
 535 156.330078125 535 156.330078125 535 143 c 6
 535 91.7900390625 l 6
 535 78.4599609375 535 78.4599609375 521.669921875 78.4599609375 c 6
 440.790039062 78.4599609375 l 6
 427.459960938 78.4599609375 427.459960938 78.4599609375 427.459960938 91.7900390625 c 6
 427.459960938 143 l 6
376.620117188 -0.1396484375 m 6
 225.379882812 -0.1396484375 l 6
 137.91015625 -0.1396484375 67 70.76953125 67 158.240234375 c 6
 67 202.080078125 l 5
 163 202.080078125 l 5
 163 158.240234375 l 6
 163 123.83984375 190.98046875 99.8603515625 225.379882812 99.8603515625 c 6
 376.620117188 99.8603515625 l 6
 410.379882812 99.8603515625 437.940429688 122.8203125 438.950195312 156.33984375 c 5
 489.330078125 156.33984375 l 5
 532.919921875 132.610351562 l 5
 520.669921875 57.330078125 455.360351562 -0.1396484375 376.620117188 -0.1396484375 c 6
427.459960938 332.9296875 m 6
 427.459960938 346.259765625 427.459960938 346.259765625 440.790039062 346.259765625 c 6
 521.669921875 346.259765625 l 6
 535 346.259765625 535 346.259765625 535 332.9296875 c 6
 535 281.719726562 l 6
 535 268.389648438 535 268.389648438 521.669921875 268.389648438 c 6
 440.790039062 268.389648438 l 6
 427.459960938 268.389648438 427.459960938 268.389648438 427.459960938 281.719726562 c 6
 427.459960938 332.9296875 l 6
183.4296875 112.110351562 m 5
 183.4296875 112.120117188 l 5
 183.4296875 5.490234375 l 5
 116.3203125 23.8798828125 67 85.2900390625 67 158.240234375 c 6
 67 410.620117188 l 6
 67 498.08984375 137.91015625 569 225.379882812 569 c 6
 376.620117188 569 l 6
 464.08984375 569 535 498.08984375 535 410.620117188 c 6
 535 284.4296875 l 5
 439 284.4296875 l 5
 439 410.620117188 l 6
 439 445.01953125 411.01953125 469 376.620117188 469 c 6
 225.379882812 469 l 6
 190.98046875 469 163 445.01953125 163 410.620117188 c 6
 163 158.240234375 l 6
 163 139.98046875 170.889648438 123.530273438 183.4296875 112.110351562 c 5
EndSplineSet
Validated: 524293
EndChar

StartChar: f
Encoding: 102 102 10
Width: 547
Flags: HW
LayerCount: 2
Fore
SplineSet
205.5 55.4599609375 m 1
 205.5 617.809570312 l 1
 301.5 617.809570312 l 1
 301.5 55.4599609375 l 1
 205.5 55.4599609375 l 1
120.330078125 567.23046875 m 1
 459.669921875 567.23046875 l 1
 459.669921875 471.23046875 l 1
 120.330078125 471.23046875 l 1
 120.330078125 567.23046875 l 1
474.169921875 795.690429688 m 2
 487.5 795.690429688 487.5 795.690429688 487.5 782.360351562 c 2
 487.5 701.48046875 l 2
 487.5 688.150390625 487.5 688.150390625 474.169921875 688.150390625 c 2
 422.959960938 688.150390625 l 2
 409.629882812 688.150390625 409.629882812 688.150390625 409.629882812 701.48046875 c 2
 409.629882812 782.360351562 l 2
 409.629882812 795.690429688 409.629882812 795.690429688 422.959960938 795.690429688 c 2
 474.169921875 795.690429688 l 2
474.169921875 567.240234375 m 2
 487.5 567.240234375 487.5 567.240234375 487.5 553.91015625 c 2
 487.5 484.5703125 l 2
 487.5 471.240234375 487.5 471.240234375 474.169921875 471.240234375 c 2
 422.959960938 471.240234375 l 2
 409.629882812 471.240234375 409.629882812 471.240234375 409.629882812 484.5703125 c 2
 409.629882812 553.91015625 l 2
 409.629882812 567.240234375 409.629882812 567.240234375 422.959960938 567.240234375 c 2
 474.169921875 567.240234375 l 2
124.040039062 567.23046875 m 2
 137.370117188 567.23046875 137.370117188 567.23046875 137.370117188 553.900390625 c 2
 137.370117188 473.01953125 l 2
 137.370117188 459.690429688 137.370117188 459.690429688 124.040039062 459.690429688 c 2
 72.830078125 459.690429688 l 2
 59.5 459.690429688 59.5 459.690429688 59.5 473.01953125 c 2
 59.5 553.900390625 l 2
 59.5 567.23046875 59.5 567.23046875 72.830078125 567.23046875 c 2
 124.040039062 567.23046875 l 2
313.040039062 13.009765625 m 2
 313.040039062 -0.3203125 313.040039062 -0.3203125 299.709960938 -0.3203125 c 2
 218.830078125 -0.3203125 l 2
 205.5 -0.3203125 205.5 -0.3203125 205.5 13.009765625 c 2
 205.5 64.2197265625 l 2
 205.5 77.5498046875 205.5 77.5498046875 218.830078125 77.5498046875 c 2
 299.709960938 77.5498046875 l 2
 313.040039062 77.5498046875 313.040039062 77.5498046875 313.040039062 64.2197265625 c 2
 313.040039062 13.009765625 l 2
447.01953125 796 m 1
 447.01953125 700 l 1
 363.919921875 700 l 2
 329.51953125 700 301.540039062 672.01953125 301.540039062 637.620117188 c 2
 301.540039062 593.780273438 l 1
 205.540039062 593.780273438 l 1
 205.540039062 637.620117188 l 2
 205.540039062 725.08984375 276.450195312 796 363.919921875 796 c 2
 447.01953125 796 l 1
EndSplineSet
Validated: 524293
EndChar

StartChar: i
Encoding: 105 105 11
Width: 260
Flags: HW
LayerCount: 2
Fore
SplineSet
82 55.7802734375 m 1
 82 542.759765625 l 1
 178 542.759765625 l 1
 178 55.7802734375 l 1
 82 55.7802734375 l 1
189.540039062 13.330078125 m 2
 189.540039062 0 189.540039062 0 176.209960938 0 c 2
 95.330078125 0 l 2
 82 0 82 0 82 13.330078125 c 2
 82 64.5400390625 l 2
 82 77.8701171875 82 77.8701171875 95.330078125 77.8701171875 c 2
 176.209960938 77.8701171875 l 2
 189.540039062 77.8701171875 189.540039062 77.8701171875 189.540039062 64.5400390625 c 2
 189.540039062 13.330078125 l 2
178 13.330078125 m 2
 178 0 178 0 164.669921875 0 c 2
 83.7900390625 0 l 2
 70.4599609375 0 70.4599609375 0 70.4599609375 13.330078125 c 2
 70.4599609375 64.5400390625 l 2
 70.4599609375 77.8701171875 70.4599609375 77.8701171875 83.7900390625 77.8701171875 c 2
 164.669921875 77.8701171875 l 2
 178 77.8701171875 178 77.8701171875 178 64.5400390625 c 2
 178 13.330078125 l 2
166.459960938 731.459960938 m 2
 166.459960938 718.129882812 166.459960938 718.129882812 153.129882812 718.129882812 c 2
 83.7900390625 718.129882812 l 2
 70.4599609375 718.129882812 70.4599609375 718.129882812 70.4599609375 731.459960938 c 2
 70.4599609375 782.669921875 l 2
 70.4599609375 796 70.4599609375 796 83.7900390625 796 c 2
 153.129882812 796 l 2
 166.459960938 796 166.459960938 796 166.459960938 782.669921875 c 2
 166.459960938 731.459960938 l 2
178 731.459960938 m 2
 178 718.129882812 178 718.129882812 164.669921875 718.129882812 c 2
 95.330078125 718.129882812 l 2
 82 718.129882812 82 718.129882812 82 731.459960938 c 2
 82 782.669921875 l 2
 82 796 82 796 95.330078125 796 c 2
 164.669921875 796 l 2
 178 796 178 796 178 782.669921875 c 2
 178 731.459960938 l 2
113.450195312 688.459960938 m 2
 100.120117188 688.459960938 100.120117188 688.459960938 100.120117188 701.790039062 c 2
 100.120117188 771.129882812 l 2
 100.120117188 784.459960938 100.120117188 784.459960938 113.450195312 784.459960938 c 2
 164.66015625 784.459960938 l 2
 177.990234375 784.459960938 177.990234375 784.459960938 177.990234375 771.129882812 c 2
 177.990234375 701.790039062 l 2
 177.990234375 688.459960938 177.990234375 688.459960938 164.66015625 688.459960938 c 2
 113.450195312 688.459960938 l 2
83.7900390625 688.459960938 m 2
 70.4599609375 688.459960938 70.4599609375 688.459960938 70.4599609375 701.790039062 c 2
 70.4599609375 771.129882812 l 2
 70.4599609375 784.459960938 70.4599609375 784.459960938 83.7900390625 784.459960938 c 2
 135 784.459960938 l 2
 148.330078125 784.459960938 148.330078125 784.459960938 148.330078125 771.129882812 c 2
 148.330078125 701.790039062 l 2
 148.330078125 688.459960938 148.330078125 688.459960938 135 688.459960938 c 2
 83.7900390625 688.459960938 l 2
178 503.459960938 m 2
 178 490.129882812 178 490.129882812 164.669921875 490.129882812 c 2
 83.7900390625 490.129882812 l 2
 70.4599609375 490.129882812 70.4599609375 490.129882812 70.4599609375 503.459960938 c 2
 70.4599609375 554.669921875 l 2
 70.4599609375 568 70.4599609375 568 83.7900390625 568 c 2
 164.669921875 568 l 2
 178 568 178 568 178 554.669921875 c 2
 178 503.459960938 l 2
EndSplineSet
Validated: 524293
EndChar

StartChar: j
Encoding: 106 106 12
Width: 390
Flags: HW
LayerCount: 2
Fore
SplineSet
324.459960938 731.459960938 m 2
 324.459960938 718.129882812 324.459960938 718.129882812 311.129882812 718.129882812 c 2
 241.790039062 718.129882812 l 2
 228.459960938 718.129882812 228.459960938 718.129882812 228.459960938 731.459960938 c 2
 228.459960938 782.669921875 l 2
 228.459960938 796 228.459960938 796 241.790039062 796 c 2
 311.129882812 796 l 2
 324.459960938 796 324.459960938 796 324.459960938 782.669921875 c 2
 324.459960938 731.459960938 l 2
336 731.459960938 m 2
 336 718.129882812 336 718.129882812 322.669921875 718.129882812 c 2
 253.330078125 718.129882812 l 2
 240 718.129882812 240 718.129882812 240 731.459960938 c 2
 240 782.669921875 l 2
 240 796 240 796 253.330078125 796 c 2
 322.669921875 796 l 2
 336 796 336 796 336 782.669921875 c 2
 336 731.459960938 l 2
271.450195312 688.459960938 m 2
 258.120117188 688.459960938 258.120117188 688.459960938 258.120117188 701.790039062 c 2
 258.120117188 771.129882812 l 2
 258.120117188 784.459960938 258.120117188 784.459960938 271.450195312 784.459960938 c 2
 322.66015625 784.459960938 l 2
 335.990234375 784.459960938 335.990234375 784.459960938 335.990234375 771.129882812 c 2
 335.990234375 701.790039062 l 2
 335.990234375 688.459960938 335.990234375 688.459960938 322.66015625 688.459960938 c 2
 271.450195312 688.459960938 l 2
241.790039062 688.459960938 m 2
 228.459960938 688.459960938 228.459960938 688.459960938 228.459960938 701.790039062 c 2
 228.459960938 771.129882812 l 2
 228.459960938 784.459960938 228.459960938 784.459960938 241.790039062 784.459960938 c 2
 293 784.459960938 l 2
 306.330078125 784.459960938 306.330078125 784.459960938 306.330078125 771.129882812 c 2
 306.330078125 701.790039062 l 2
 306.330078125 688.459960938 306.330078125 688.459960938 293 688.459960938 c 2
 241.790039062 688.459960938 l 2
240 -49.51953125 m 1
 240 518 l 1
 336 518 l 1
 336 -49.51953125 l 1
 240 -49.51953125 l 1
67.330078125 -228 m 2
 54 -228 54 -228 54 -214.669921875 c 2
 54 -133.790039062 l 2
 54 -120.459960938 54 -120.459960938 67.330078125 -120.459960938 c 2
 118.540039062 -120.459960938 l 2
 131.870117188 -120.459960938 131.870117188 -120.459960938 131.870117188 -133.790039062 c 2
 131.870117188 -214.669921875 l 2
 131.870117188 -228 131.870117188 -228 118.540039062 -228 c 2
 67.330078125 -228 l 2
228.459960938 554.669921875 m 2
 228.459960938 568 228.459960938 568 241.790039062 568 c 2
 322.669921875 568 l 2
 336 568 336 568 336 554.669921875 c 2
 336 503.459960938 l 2
 336 490.129882812 336 490.129882812 322.669921875 490.129882812 c 2
 241.790039062 490.129882812 l 2
 228.459960938 490.129882812 228.459960938 490.129882812 228.459960938 503.459960938 c 2
 228.459960938 554.669921875 l 2
240 -25.7802734375 m 1
 336 -25.7802734375 l 1
 336 -69.6201171875 l 2
 336 -157.08984375 265.08984375 -228 177.620117188 -228 c 2
 84.650390625 -228 l 1
 84.650390625 -132 l 1
 177.620117188 -132 l 2
 212.01953125 -132 240 -104.01953125 240 -69.6201171875 c 2
 240 -25.7802734375 l 1
EndSplineSet
Validated: 524293
EndChar

StartChar: k
Encoding: 107 107 13
Width: 612
Flags: HW
LayerCount: 2
Fore
SplineSet
72.0048828125 42.3203125 m 5
 72.0048828125 747.200195312 l 5
 168.004882812 747.200195312 l 5
 168.004882812 42.3203125 l 5
 72.0048828125 42.3203125 l 5
72.0048828125 782.669921875 m 6
 72.0048828125 796 72.0048828125 796 85.3349609375 796 c 6
 166.21484375 796 l 6
 179.544921875 796 179.544921875 796 179.544921875 782.669921875 c 6
 179.544921875 731.459960938 l 6
 179.544921875 718.129882812 179.544921875 718.129882812 166.21484375 718.129882812 c 6
 85.3349609375 718.129882812 l 6
 72.0048828125 718.129882812 72.0048828125 718.129882812 72.0048828125 731.459960938 c 6
 72.0048828125 782.669921875 l 6
526.674804688 568 m 6
 540.004882812 568 540.004882812 568 540.004882812 554.669921875 c 6
 540.004882812 473.790039062 l 6
 540.004882812 460.459960938 540.004882812 460.459960938 526.674804688 460.459960938 c 6
 475.46484375 460.459960938 l 6
 462.134765625 460.459960938 462.134765625 460.459960938 462.134765625 473.790039062 c 6
 462.134765625 554.669921875 l 6
 462.134765625 568 462.134765625 568 475.46484375 568 c 6
 526.674804688 568 l 6
526.674804688 107.549804688 m 6
 540.004882812 107.549804688 540.004882812 107.549804688 540.004882812 94.2197265625 c 6
 540.004882812 13.33984375 l 6
 540.004882812 0.009765625 540.004882812 0.009765625 526.674804688 0.009765625 c 6
 475.46484375 0.009765625 l 6
 462.134765625 0.009765625 462.134765625 0.009765625 462.134765625 13.33984375 c 6
 462.134765625 94.2197265625 l 6
 462.134765625 107.549804688 462.134765625 107.549804688 475.46484375 107.549804688 c 6
 526.674804688 107.549804688 l 6
72.0048828125 64.5400390625 m 6
 72.0048828125 77.8701171875 72.0048828125 77.8701171875 85.3349609375 77.8701171875 c 6
 166.21484375 77.8701171875 l 6
 179.544921875 77.8701171875 179.544921875 77.8701171875 179.544921875 64.5400390625 c 6
 179.544921875 13.330078125 l 6
 179.544921875 0 179.544921875 0 166.21484375 0 c 6
 85.3349609375 0 l 6
 72.0048828125 0 72.0048828125 0 72.0048828125 13.330078125 c 6
 72.0048828125 64.5400390625 l 6
72.064453125 284 m 5
 72.0546875 284 l 6
 72.0146484375 284.559570312 71.9951171875 285.110351562 71.9951171875 285.650390625 c 6
 71.9951171875 287.169921875 l 6
 71.9951171875 367.400390625 439.155273438 568 526.625 568 c 5
 536.174804688 472 l 5
 527.684570312 472 l 6
 448.625 472 168.004882812 298.719726562 168.004882812 267.169921875 c 6
 167.884765625 265.650390625 l 6
 167.884765625 265.150390625 167.854492188 264.599609375 168.004882812 264 c 5
 72.064453125 284 l 5
208.325195312 420.190429688 m 6
 299.89453125 395.969726562 l 5
 299.4453125 395.549804688 299.084960938 395.120117188 298.814453125 394.700195312 c 6
 297.995117188 393.41015625 l 6
 281.075195312 366.780273438 490.544921875 103.190429688 519.584960938 84.740234375 c 6
 526.754882812 80.1904296875 l 5
 467.21484375 4.2802734375 l 5
 393.384765625 51.1796875 163.5546875 349.8203125 206.575195312 417.540039062 c 6
 207.39453125 418.830078125 l 6
 207.684570312 419.290039062 208.004882812 419.740234375 208.325195312 420.190429688 c 6
EndSplineSet
Validated: 524325
EndChar

StartChar: l
Encoding: 108 108 14
Width: 442
Flags: HW
LayerCount: 2
Fore
SplineSet
64.26953125 196.099609375 m 1
 64.26953125 747.559570312 l 1
 160.26953125 747.559570312 l 1
 160.26953125 196.099609375 l 1
 64.26953125 196.099609375 l 1
313.189453125 0 m 2
 299.859375 0 299.859375 0 299.859375 13.330078125 c 2
 299.859375 94.2099609375 l 2
 299.859375 107.540039062 299.859375 107.540039062 313.189453125 107.540039062 c 2
 364.400390625 107.540039062 l 2
 377.73046875 107.540039062 377.73046875 107.540039062 377.73046875 94.2099609375 c 2
 377.73046875 13.330078125 l 2
 377.73046875 0 377.73046875 0 364.400390625 0 c 2
 313.189453125 0 l 2
64.26953125 782.669921875 m 2
 64.26953125 796 64.26953125 796 77.599609375 796 c 2
 158.48046875 796 l 2
 171.810546875 796 171.810546875 796 171.810546875 782.669921875 c 2
 171.810546875 731.459960938 l 2
 171.810546875 718.129882812 171.810546875 718.129882812 158.48046875 718.129882812 c 2
 77.599609375 718.129882812 l 2
 64.26953125 718.129882812 64.26953125 718.129882812 64.26953125 731.459960938 c 2
 64.26953125 782.669921875 l 2
160.26953125 202.219726562 m 1
 160.26953125 158.379882812 l 2
 160.26953125 123.98046875 188.25 96 222.650390625 96 c 2
 315.619140625 96 l 1
 315.619140625 0 l 1
 222.650390625 0 l 2
 135.1796875 0 64.26953125 70.91015625 64.26953125 158.379882812 c 2
 64.26953125 202.219726562 l 1
 160.26953125 202.219726562 l 1
EndSplineSet
Validated: 524293
EndChar

StartChar: m
Encoding: 109 109 15
Width: 876
Flags: HW
LayerCount: 2
Fore
SplineSet
72 31.75 m 1
 72 414.830078125 l 1
 168 414.830078125 l 1
 168 31.75 l 1
 72 31.75 l 1
390 0 m 1
 390 414.830078125 l 1
 486 414.830078125 l 1
 486 0 l 1
 390 0 l 1
708 51.1796875 m 1
 708 414.830078125 l 1
 804 414.830078125 l 1
 804 51.1796875 l 1
 708 51.1796875 l 1
72 64.5400390625 m 2
 72 77.8701171875 72 77.8701171875 85.330078125 77.8701171875 c 2
 166.209960938 77.8701171875 l 2
 179.540039062 77.8701171875 179.540039062 77.8701171875 179.540039062 64.5400390625 c 2
 179.540039062 13.330078125 l 2
 179.540039062 0 179.540039062 0 166.209960938 0 c 2
 85.330078125 0 l 2
 72 0 72 0 72 13.330078125 c 2
 72 64.5400390625 l 2
390.23046875 64.5400390625 m 2
 390.23046875 77.8701171875 390.23046875 77.8701171875 403.559570312 77.8701171875 c 2
 484.440429688 77.8701171875 l 2
 497.76953125 77.8701171875 497.76953125 77.8701171875 497.76953125 64.5400390625 c 2
 497.76953125 13.330078125 l 2
 497.76953125 0 497.76953125 0 484.440429688 0 c 2
 403.559570312 0 l 2
 390.23046875 0 390.23046875 0 390.23046875 13.330078125 c 2
 390.23046875 64.5400390625 l 2
378.690429688 64.5400390625 m 2
 378.690429688 77.8701171875 378.690429688 77.8701171875 392.01953125 77.8701171875 c 2
 472.900390625 77.8701171875 l 2
 486.23046875 77.8701171875 486.23046875 77.8701171875 486.23046875 64.5400390625 c 2
 486.23046875 13.330078125 l 2
 486.23046875 0 486.23046875 0 472.900390625 0 c 2
 392.01953125 0 l 2
 378.690429688 0 378.690429688 0 378.690429688 13.330078125 c 2
 378.690429688 64.5400390625 l 2
696.459960938 64.5400390625 m 2
 696.459960938 77.8701171875 696.459960938 77.8701171875 709.790039062 77.8701171875 c 2
 790.669921875 77.8701171875 l 2
 804 77.8701171875 804 77.8701171875 804 64.5400390625 c 2
 804 13.330078125 l 2
 804 0 804 0 790.669921875 0 c 2
 709.790039062 0 l 2
 696.459960938 0 696.459960938 0 696.459960938 13.330078125 c 2
 696.459960938 64.5400390625 l 2
486 397.299804688 m 1
 390 397.299804688 l 1
 390 409.620117188 l 2
 390 497.08984375 460.6796875 568 548.150390625 568 c 2
 645.620117188 568 l 2
 733.08984375 568 804 497.08984375 804 409.620117188 c 2
 804 397.299804688 l 1
 708 397.299804688 l 1
 708 409.620117188 l 2
 708 444.01953125 680.01953125 472 645.620117188 472 c 2
 548.150390625 472 l 2
 513.75 472 486 444.01953125 486 409.620117188 c 2
 486 397.299804688 l 1
168 397.299804688 m 1
 72 397.299804688 l 1
 72 409.620117188 l 2
 72 497.08984375 142.6796875 568 230.150390625 568 c 2
 327.620117188 568 l 2
 415.08984375 568 486 497.08984375 486 409.620117188 c 2
 486 397.299804688 l 1
 390 397.299804688 l 1
 390 409.620117188 l 2
 390 444.01953125 362.01953125 472 327.620117188 472 c 2
 230.150390625 472 l 2
 195.75 472 168 444.01953125 168 409.620117188 c 2
 168 397.299804688 l 1
EndSplineSet
Validated: 5
EndChar

StartChar: q
Encoding: 113 113 16
Width: 604
Flags: HW
LayerCount: 2
Fore
SplineSet
377.620117188 473 m 6
 226.379882812 466 l 6
 191.98046875 466 164 438.01953125 164 403.620117188 c 6
 164 166.240234375 l 6
 164 131.83984375 191.98046875 103.860351562 226.379882812 103.860351562 c 6
 377.620117188 95.8603515625 l 6
 412.01953125 95.8603515625 440 123.83984375 440 158.240234375 c 6
 440 410.620117188 l 6
 440 445.01953125 412.01953125 473 377.620117188 473 c 6
377.620117188 569 m 5
 465.08984375 569 536 498.08984375 536 410.620117188 c 6
 536 158.240234375 l 6
 536 70.76953125 465.08984375 -0.1396484375 377.620117188 -0.1396484375 c 5
 226.379882812 7.8603515625 l 5
 138.91015625 7.8603515625 68 78.76953125 68 166.240234375 c 6
 68 403.620117188 l 6
 68 491.08984375 138.91015625 562 226.379882812 562 c 5
 377.620117188 569 l 5
440 -196.400390625 m 5
 440 186.6796875 l 5
 536 186.6796875 l 5
 536 -196.400390625 l 5
 440 -196.400390625 l 5
428.459960938 -163.599609375 m 6
 428.459960938 -150.26953125 428.459960938 -150.26953125 441.790039062 -150.26953125 c 6
 522.669921875 -150.26953125 l 6
 536 -150.26953125 536 -150.26953125 536 -163.599609375 c 6
 536 -214.809570312 l 6
 536 -228.139648438 536 -228.139648438 522.669921875 -228.139648438 c 6
 441.790039062 -228.139648438 l 6
 428.459960938 -228.139648438 428.459960938 -228.139648438 428.459960938 -214.809570312 c 6
 428.459960938 -163.599609375 l 6
EndSplineSet
Validated: 524293
EndChar

StartChar: r
Encoding: 114 114 17
Width: 507
Flags: HW
LayerCount: 2
Fore
SplineSet
67.419921875 42.3203125 m 5
 67.419921875 534.379882812 l 5
 163.419921875 534.379882812 l 5
 163.419921875 42.3203125 l 5
 67.419921875 42.3203125 l 5
67.419921875 554.669921875 m 6
 67.419921875 568 67.419921875 568 80.75 568 c 6
 161.629882812 568 l 6
 174.959960938 568 174.959960938 568 174.959960938 554.669921875 c 6
 174.959960938 503.459960938 l 6
 174.959960938 490.129882812 174.959960938 490.129882812 161.629882812 490.129882812 c 6
 80.75 490.129882812 l 6
 67.419921875 490.129882812 67.419921875 490.129882812 67.419921875 503.459960938 c 6
 67.419921875 554.669921875 l 6
426.25 568 m 6
 439.580078125 568 439.580078125 568 439.580078125 554.669921875 c 6
 439.580078125 473.790039062 l 6
 439.580078125 460.459960938 439.580078125 460.459960938 426.25 460.459960938 c 6
 375.040039062 460.459960938 l 6
 361.709960938 460.459960938 361.709960938 460.459960938 361.709960938 473.790039062 c 6
 361.709960938 554.669921875 l 6
 361.709960938 568 361.709960938 568 375.040039062 568 c 6
 426.25 568 l 6
67.419921875 64.5400390625 m 6
 67.419921875 77.8701171875 67.419921875 77.8701171875 80.75 77.8701171875 c 6
 161.629882812 77.8701171875 l 6
 174.959960938 77.8701171875 174.959960938 77.8701171875 174.959960938 64.5400390625 c 6
 174.959960938 13.330078125 l 6
 174.959960938 0 174.959960938 0 161.629882812 0 c 6
 80.75 0 l 6
 67.419921875 0 67.419921875 0 67.419921875 13.330078125 c 6
 67.419921875 64.5400390625 l 6
163.419921875 259.400390625 m 5
 67.419921875 268 l 5
 67.419921875 273 l 6
 67.419921875 353.219726562 339.790039062 568 427.259765625 568 c 5
 439.580078125 472 l 5
 427.259765625 472 l 6
 392.860351562 472 163.419921875 295.950195312 163.419921875 264.400390625 c 6
 163.419921875 259.400390625 l 5
EndSplineSet
Validated: 524293
EndChar

StartChar: s
Encoding: 115 115 18
Width: 601
Flags: HW
LayerCount: 2
Fore
SplineSet
356.490234375 236.580078125 m 5
 244.1796875 236.580078125 l 5
 244.1796875 332.580078125 l 5
 356.490234375 332.580078125 l 5
 356.490234375 236.580078125 l 5
174.040039062 91.9296875 m 6
 174.040039062 78.599609375 174.040039062 78.599609375 160.709960938 78.599609375 c 6
 79.830078125 78.599609375 l 6
 66.5 78.599609375 66.5 78.599609375 66.5 91.9296875 c 6
 66.5 143.139648438 l 6
 66.5 156.469726562 66.5 156.469726562 79.830078125 156.469726562 c 6
 160.709960938 156.469726562 l 6
 174.040039062 156.469726562 174.040039062 156.469726562 174.040039062 143.139648438 c 6
 174.040039062 91.9296875 l 6
438.5 177.459960938 m 5
 534.5 177.459960938 l 5
 534.5 158.379882812 l 6
 534.5 70.91015625 463.58984375 0 376.120117188 0 c 6
 224.879882812 0 l 6
 146.139648438 0 80.830078125 57.4697265625 68.580078125 132.75 c 5
 112.169921875 156.48046875 l 5
 162.549804688 156.48046875 l 5
 163.559570312 122.959960938 191.120117188 96 224.879882812 96 c 6
 376.120117188 96 l 6
 410.51953125 96 438.5 123.98046875 438.5 158.379882812 c 6
 438.5 177.459960938 l 5
426.959960938 477.209960938 m 6
 426.959960938 490.540039062 426.959960938 490.540039062 440.290039062 490.540039062 c 6
 521.169921875 490.540039062 l 6
 534.5 490.540039062 534.5 490.540039062 534.5 477.209960938 c 6
 534.5 426 l 6
 534.5 412.669921875 534.5 412.669921875 521.169921875 412.669921875 c 6
 440.290039062 412.669921875 l 6
 426.959960938 412.669921875 426.959960938 412.669921875 426.959960938 426 c 6
 426.959960938 477.209960938 l 6
162.5 391.6796875 m 5
 66.5 391.6796875 l 5
 66.5 410.759765625 l 6
 66.5 498.23046875 137.41015625 569.139648438 224.879882812 569.139648438 c 6
 376.120117188 569.139648438 l 6
 454.860351562 569.139648438 520.169921875 511.669921875 532.419921875 436.389648438 c 5
 488.830078125 412.66015625 l 5
 438.450195312 412.66015625 l 5
 437.440429688 446.1796875 409.879882812 473.139648438 376.120117188 473.139648438 c 6
 224.879882812 473.139648438 l 6
 190.48046875 473.139648438 162.5 445.16015625 162.5 410.759765625 c 6
 162.5 391.6796875 l 5
248.25 332.5703125 m 5
 248.25 236.5703125 l 5
 224.879882812 236.5703125 l 6
 137.41015625 236.5703125 66.5 303.540039062 66.5 391.009765625 c 6
 66.5 398.33984375 l 5
 162.5 398.33984375 l 5
 162.5 394.950195312 l 6
 162.5 360.549804688 190.48046875 332.5703125 224.879882812 332.5703125 c 6
 248.25 332.5703125 l 5
352.75 236.5703125 m 5
 352.75 332.5703125 l 5
 376.120117188 332.5703125 l 6
 463.58984375 332.5703125 534.5 265.599609375 534.5 178.129882812 c 6
 534.5 170.799804688 l 5
 438.5 170.799804688 l 5
 438.5 174.190429688 l 6
 438.5 208.58984375 410.51953125 236.5703125 376.120117188 236.5703125 c 6
 352.75 236.5703125 l 5
EndSplineSet
Validated: 524293
EndChar

StartChar: t
Encoding: 116 116 19
Width: 548
Flags: HW
LayerCount: 2
Fore
SplineSet
206 188.629882812 m 1
 206 748.059570312 l 1
 302 748.059570312 l 1
 302 188.629882812 l 1
 206 188.629882812 l 1
94.830078125 567.549804688 m 1
 460.169921875 567.549804688 l 1
 460.169921875 471.549804688 l 1
 94.830078125 471.549804688 l 1
 94.830078125 567.549804688 l 1
474.669921875 567.549804688 m 2
 488 567.549804688 488 567.549804688 488 554.219726562 c 2
 488 484.849609375 l 2
 488 471.51953125 488 471.51953125 474.669921875 471.51953125 c 2
 423.459960938 471.51953125 l 2
 410.129882812 471.51953125 410.129882812 471.51953125 410.129882812 484.849609375 c 2
 410.129882812 554.219726562 l 2
 410.129882812 567.549804688 410.129882812 567.549804688 423.459960938 567.549804688 c 2
 474.669921875 567.549804688 l 2
124.540039062 567.549804688 m 2
 137.870117188 567.549804688 137.870117188 567.549804688 137.870117188 554.219726562 c 2
 137.870117188 473.33984375 l 2
 137.870117188 460.009765625 137.870117188 460.009765625 124.540039062 460.009765625 c 2
 73.330078125 460.009765625 l 2
 60 460.009765625 60 460.009765625 60 473.33984375 c 2
 60 554.219726562 l 2
 60 567.549804688 60 567.549804688 73.330078125 567.549804688 c 2
 124.540039062 567.549804688 l 2
313.540039062 731.459960938 m 2
 313.540039062 718.129882812 313.540039062 718.129882812 300.209960938 718.129882812 c 2
 219.330078125 718.129882812 l 2
 206 718.129882812 206 718.129882812 206 731.459960938 c 2
 206 782.669921875 l 2
 206 796 206 796 219.330078125 796 c 2
 300.209960938 796 l 2
 313.540039062 796 313.540039062 796 313.540039062 782.669921875 c 2
 313.540039062 731.459960938 l 2
423.450195312 0 m 2
 410.120117188 0 410.120117188 0 410.120117188 13.330078125 c 2
 410.120117188 94.2099609375 l 2
 410.120117188 107.540039062 410.120117188 107.540039062 423.450195312 107.540039062 c 2
 474.66015625 107.540039062 l 2
 487.990234375 107.540039062 487.990234375 107.540039062 487.990234375 94.2099609375 c 2
 487.990234375 13.330078125 l 2
 487.990234375 0 487.990234375 0 474.66015625 0 c 2
 423.450195312 0 l 2
447.51953125 0 m 1
 364.419921875 0 l 2
 276.950195312 0 206.040039062 70.91015625 206.040039062 158.379882812 c 2
 206.040039062 202.219726562 l 1
 302.040039062 202.219726562 l 1
 302.040039062 158.379882812 l 2
 302.040039062 123.98046875 330.01953125 96 364.419921875 96 c 2
 447.51953125 96 l 1
 447.51953125 0 l 1
EndSplineSet
Validated: 524293
EndChar

StartChar: u
Encoding: 117 117 20
Width: 607
Flags: HW
LayerCount: 2
Fore
SplineSet
69.5 153.169921875 m 5
 69.5 522.919921875 l 5
 165.5 522.919921875 l 5
 165.5 153.169921875 l 5
 69.5 153.169921875 l 5
441.5 153.169921875 m 5
 441.5 522.919921875 l 5
 537.5 522.919921875 l 5
 537.5 153.169921875 l 5
 441.5 153.169921875 l 5
69.5 554.669921875 m 6
 69.5 568 69.5 568 82.830078125 568 c 6
 163.709960938 568 l 6
 177.040039062 568 177.040039062 568 177.040039062 554.669921875 c 6
 177.040039062 503.459960938 l 6
 177.040039062 490.129882812 177.040039062 490.129882812 163.709960938 490.129882812 c 6
 82.830078125 490.129882812 l 6
 69.5 490.129882812 69.5 490.129882812 69.5 503.459960938 c 6
 69.5 554.669921875 l 6
429.959960938 554.669921875 m 6
 429.959960938 568 429.959960938 568 443.290039062 568 c 6
 524.169921875 568 l 6
 537.5 568 537.5 568 537.5 554.669921875 c 6
 537.5 503.459960938 l 6
 537.5 490.129882812 537.5 490.129882812 524.169921875 490.129882812 c 6
 443.290039062 490.129882812 l 6
 429.959960938 490.129882812 429.959960938 490.129882812 429.959960938 503.459960938 c 6
 429.959960938 554.669921875 l 6
165.5 170.700195312 m 5
 165.5 158.379882812 l 6
 165.5 123.98046875 193.48046875 96 227.879882812 96 c 6
 379.120117188 96 l 6
 413.51953125 96 441.5 123.98046875 441.5 158.379882812 c 6
 441.5 170.700195312 l 5
 537.5 170.700195312 l 5
 537.5 158.379882812 l 6
 537.5 70.91015625 466.58984375 0 379.120117188 0 c 6
 227.879882812 0 l 6
 140.41015625 0 69.5 70.91015625 69.5 158.379882812 c 6
 69.5 170.700195312 l 5
 165.5 170.700195312 l 5
EndSplineSet
Validated: 524293
EndChar

StartChar: v
Encoding: 118 118 21
Width: 601
Flags: HW
LayerCount: 2
Fore
SplineSet
66.5 316.139648438 m 5
 66.5 529.059570312 l 5
 162.5 529.059570312 l 5
 162.5 316.139648438 l 5
 66.5 316.139648438 l 5
438.5 316.139648438 m 5
 438.5 529.059570312 l 5
 534.5 529.059570312 l 5
 534.5 316.139648438 l 5
 438.5 316.139648438 l 5
66.5 554.669921875 m 6
 66.5 568 66.5 568 79.830078125 568 c 6
 160.709960938 568 l 6
 174.040039062 568 174.040039062 568 174.040039062 554.669921875 c 6
 174.040039062 503.459960938 l 6
 174.040039062 490.129882812 174.040039062 490.129882812 160.709960938 490.129882812 c 6
 79.830078125 490.129882812 l 6
 66.5 490.129882812 66.5 490.129882812 66.5 503.459960938 c 6
 66.5 554.669921875 l 6
426.959960938 554.669921875 m 6
 426.959960938 568 426.959960938 568 440.290039062 568 c 6
 521.169921875 568 l 6
 534.5 568 534.5 568 534.5 554.669921875 c 6
 534.5 503.459960938 l 6
 534.5 490.129882812 534.5 490.129882812 521.169921875 490.129882812 c 6
 440.290039062 490.129882812 l 6
 426.959960938 490.129882812 426.959960938 490.129882812 426.959960938 503.459960938 c 6
 426.959960938 554.669921875 l 6
66.5 320.6796875 m 5
 162.5 333 l 5
 162.5 320.6796875 l 6
 162.5 286.290039062 256.950195312 113 288.5 113 c 6
 312.5 113 l 6
 344.049804688 113 438.5 286.280273438 438.5 320.6796875 c 6
 438.5 333 l 5
 534.5 320.6796875 l 5
 534.5 233.209960938 392.73046875 0 312.5 0 c 6
 288.5 0 l 6
 208.26953125 0 66.5 233.209960938 66.5 320.6796875 c 5
EndSplineSet
Validated: 524293
EndChar

StartChar: w
Encoding: 119 119 22
Width: 866
Flags: HW
LayerCount: 2
Fore
SplineSet
67 316.799804688 m 5
 67 529.059570312 l 5
 163 529.059570312 l 5
 163 316.799804688 l 5
 67 316.799804688 l 5
385 316.799804688 m 5
 385 529.059570312 l 5
 481 529.059570312 l 5
 481 316.799804688 l 5
 385 316.799804688 l 5
703 316.799804688 m 5
 703 529.059570312 l 5
 799 529.059570312 l 5
 799 316.799804688 l 5
 703 316.799804688 l 5
67 554.669921875 m 6
 67 568 67 568 80.330078125 568 c 6
 161.209960938 568 l 6
 174.540039062 568 174.540039062 568 174.540039062 554.669921875 c 6
 174.540039062 503.459960938 l 6
 174.540039062 490.129882812 174.540039062 490.129882812 161.209960938 490.129882812 c 6
 80.330078125 490.129882812 l 6
 67 490.129882812 67 490.129882812 67 503.459960938 c 6
 67 554.669921875 l 6
385 554.669921875 m 6
 385 568 385 568 398.330078125 568 c 6
 479.209960938 568 l 6
 492.540039062 568 492.540039062 568 492.540039062 554.669921875 c 6
 492.540039062 503.459960938 l 6
 492.540039062 490.129882812 492.540039062 490.129882812 479.209960938 490.129882812 c 6
 398.330078125 490.129882812 l 6
 385 490.129882812 385 490.129882812 385 503.459960938 c 6
 385 554.669921875 l 6
373.459960938 554.669921875 m 6
 373.459960938 568 373.459960938 568 386.790039062 568 c 6
 467.669921875 568 l 6
 481 568 481 568 481 554.669921875 c 6
 481 503.459960938 l 6
 481 490.129882812 481 490.129882812 467.669921875 490.129882812 c 6
 386.790039062 490.129882812 l 6
 373.459960938 490.129882812 373.459960938 490.129882812 373.459960938 503.459960938 c 6
 373.459960938 554.669921875 l 6
691.459960938 554.669921875 m 6
 691.459960938 568 691.459960938 568 704.790039062 568 c 6
 785.669921875 568 l 6
 799 568 799 568 799 554.669921875 c 6
 799 503.459960938 l 6
 799 490.129882812 799 490.129882812 785.669921875 490.129882812 c 6
 704.790039062 490.129882812 l 6
 691.459960938 490.129882812 691.459960938 490.129882812 691.459960938 503.459960938 c 6
 691.459960938 554.669921875 l 6
67 320.6796875 m 5
 163 333 l 5
 163 320.6796875 l 6
 163 270.650390625 190.450195312 96 222 96 c 6
 246 96 l 6
 302.23046875 96 385 253.509765625 385 320.6796875 c 6
 385 333 l 5
 481 320.6796875 l 5
 481 187.870117188 336.23046875 0 256 0 c 6
 202 0 l 6
 121.76953125 0 67 154.83984375 67 320.6796875 c 5
799 320.6796875 m 5
 799 154.83984375 744.23046875 0 664 0 c 6
 610 0 l 6
 529.76953125 0 385 187.870117188 385 320.6796875 c 5
 481 333 l 5
 481 320.6796875 l 6
 481 253.509765625 563.76953125 96 620 96 c 6
 644 96 l 6
 675.549804688 96 703 270.650390625 703 320.6796875 c 6
 703 333 l 5
 799 320.6796875 l 5
EndSplineSet
Validated: 524293
EndChar

StartChar: y
Encoding: 121 121 23
Width: 608
Flags: HW
LayerCount: 2
Fore
SplineSet
441.995117188 -63.009765625 m 5
 441.995117188 204.919921875 l 5
 537.995117188 204.919921875 l 5
 537.995117188 -63.009765625 l 5
 441.995117188 -63.009765625 l 5
177.544921875 -136.0703125 m 6
 177.544921875 -149.400390625 177.544921875 -149.400390625 164.215820312 -149.400390625 c 6
 83.3349609375 -149.400390625 l 6
 70.0048828125 -149.400390625 70.0048828125 -149.400390625 70.0048828125 -136.0703125 c 6
 70.0048828125 -84.8603515625 l 6
 70.0048828125 -71.5302734375 70.0048828125 -71.5302734375 83.3349609375 -71.5302734375 c 6
 164.215820312 -71.5302734375 l 6
 177.544921875 -71.5302734375 177.544921875 -71.5302734375 177.544921875 -84.8603515625 c 6
 177.544921875 -136.0703125 l 6
228.385742188 -228 m 6
 149.645507812 -228 84.3349609375 -170.530273438 72.0849609375 -95.25 c 5
 115.67578125 -71.51953125 l 5
 166.055664062 -71.51953125 l 5
 167.065429688 -105.040039062 194.625 -132 228.385742188 -132 c 6
 379.625 -132 l 6
 414.025390625 -132 442.004882812 -104.01953125 442.004882812 -69.6201171875 c 6
 442.004882812 -25.7802734375 l 5
 538.004882812 -25.7802734375 l 5
 538.004882812 -69.6201171875 l 6
 538.004882812 -157.08984375 467.095703125 -228 379.625 -228 c 6
 228.385742188 -228 l 6
538.004882812 504.599609375 m 6
 538.004882812 491.26953125 538.004882812 491.26953125 524.67578125 491.26953125 c 6
 443.794921875 491.26953125 l 6
 430.465820312 491.26953125 430.465820312 491.26953125 430.465820312 504.599609375 c 6
 430.465820312 555.809570312 l 6
 430.465820312 569.139648438 430.465820312 569.139648438 443.794921875 569.139648438 c 6
 524.67578125 569.139648438 l 6
 538.004882812 569.139648438 538.004882812 569.139648438 538.004882812 555.809570312 c 6
 538.004882812 504.599609375 l 6
177.544921875 504.599609375 m 6
 177.544921875 491.26953125 177.544921875 491.26953125 164.215820312 491.26953125 c 6
 83.3349609375 491.26953125 l 6
 70.0048828125 491.26953125 70.0048828125 491.26953125 70.0048828125 504.599609375 c 6
 70.0048828125 555.809570312 l 6
 70.0048828125 569.139648438 70.0048828125 569.139648438 83.3349609375 569.139648438 c 6
 164.215820312 569.139648438 l 6
 177.544921875 569.139648438 177.544921875 569.139648438 177.544921875 555.809570312 c 6
 177.544921875 504.599609375 l 6
441.995117188 554.91015625 m 5
 537.995117188 554.91015625 l 5
 537.995117188 211.379882812 l 6
 537.995117188 123.91015625 471.205078125 69.8603515625 379.615234375 53 c 5
 228.375 33 l 5
 140.905273438 33 69.9951171875 103.91015625 69.9951171875 191.379882812 c 6
 69.9951171875 554.91015625 l 5
 165.995117188 554.91015625 l 5
 165.995117188 191.379882812 l 6
 165.995117188 156.98046875 193.975585938 129 228.375 129 c 5
 379.615234375 149 l 6
 415.334960938 155.959960938 441.995117188 176.98046875 441.995117188 211.379882812 c 6
 441.995117188 554.91015625 l 5
EndSplineSet
Validated: 524293
EndChar

StartChar: z
Encoding: 122 122 24
Width: 605
Flags: HW
LayerCount: 2
Fore
SplineSet
499.754882812 472 m 5
 118.424804688 472 l 5
 118.424804688 568 l 5
 499.754882812 568 l 5
 499.754882812 472 l 5
499.754882812 0 m 5
 118.424804688 0 l 5
 118.424804688 96 l 5
 499.754882812 96 l 5
 499.754882812 0 l 5
536.422851562 482.889648438 m 5
 142.84375 5.26953125 l 5
 68.7568359375 66.3203125 l 5
 462.3359375 543.940429688 l 5
 536.422851562 482.889648438 l 5
81.8349609375 460.459960938 m 6
 68.5048828125 460.459960938 68.5048828125 460.459960938 68.5048828125 473.790039062 c 6
 68.5048828125 554.669921875 l 6
 68.5048828125 568 68.5048828125 568 81.8349609375 568 c 6
 133.044921875 568 l 6
 146.375 568 146.375 568 146.375 554.669921875 c 6
 146.375 473.790039062 l 6
 146.375 460.459960938 146.375 460.459960938 133.044921875 460.459960938 c 6
 81.8349609375 460.459960938 l 6
471.955078125 0 m 6
 458.625 0 458.625 0 458.625 13.330078125 c 6
 458.625 94.2099609375 l 6
 458.625 107.540039062 458.625 107.540039062 471.955078125 107.540039062 c 6
 523.165039062 107.540039062 l 6
 536.495117188 107.540039062 536.495117188 107.540039062 536.495117188 94.2099609375 c 6
 536.495117188 13.330078125 l 6
 536.495117188 0 536.495117188 0 523.165039062 0 c 6
 471.955078125 0 l 6
81.8349609375 0 m 6
 68.5048828125 0 68.5048828125 0 68.5048828125 13.330078125 c 6
 68.5048828125 94.2099609375 l 6
 68.5048828125 107.540039062 68.5048828125 107.540039062 81.8349609375 107.540039062 c 6
 133.044921875 107.540039062 l 6
 146.375 107.540039062 146.375 107.540039062 146.375 94.2099609375 c 6
 146.375 13.330078125 l 6
 146.375 0 146.375 0 133.044921875 0 c 6
 81.8349609375 0 l 6
471.955078125 460.459960938 m 6
 458.625 460.459960938 458.625 460.459960938 458.625 473.790039062 c 6
 458.625 554.669921875 l 6
 458.625 568 458.625 568 471.955078125 568 c 6
 523.165039062 568 l 6
 536.495117188 568 536.495117188 568 536.495117188 554.669921875 c 6
 536.495117188 473.790039062 l 6
 536.495117188 460.459960938 536.495117188 460.459960938 523.165039062 460.459960938 c 6
 471.955078125 460.459960938 l 6
EndSplineSet
Validated: 524293
EndChar

StartChar: a
Encoding: 97 97 25
Width: 601
Flags: HW
LayerCount: 2
Fore
SplineSet
438.5 268.530273438 m 6
 224.879882812 268.530273438 l 6
 190.48046875 268.530273438 162.5 240.549804688 162.5 206.150390625 c 6
 162.5 158.379882812 l 6
 162.5 123.98046875 190.48046875 96 224.879882812 96 c 6
 263.01953125 96 l 6
 297.419921875 96 438.5 123.98046875 438.5 158.379882812 c 6
 438.5 206.150390625 l 6
 438.5 240.549804688 472.900390625 268.530273438 438.5 268.530273438 c 6
438.5 364.530273438 m 5
 525.969726562 364.530273438 534.5 293.620117188 534.5 206.150390625 c 6
 534.5 158.379882812 l 6
 534.5 70.91015625 350.490234375 0 263.01953125 0 c 6
 224.879882812 0 l 6
 137.41015625 0 66.5 70.91015625 66.5 158.379882812 c 6
 66.5 206.150390625 l 6
 66.5 293.620117188 137.41015625 364.530273438 224.879882812 364.530273438 c 6
 438.5 364.530273438 l 5
156.669921875 568 m 6
 170 568 170 568 170 554.669921875 c 6
 170 473.790039062 l 6
 170 460.459960938 170 460.459960938 156.669921875 460.459960938 c 6
 105.459960938 460.459960938 l 6
 92.1298828125 460.459960938 92.1298828125 460.459960938 92.1298828125 473.790039062 c 6
 92.1298828125 554.669921875 l 6
 92.1298828125 568 92.1298828125 568 105.459960938 568 c 6
 156.669921875 568 l 6
534.5 13.330078125 m 6
 534.5 0 534.5 0 521.169921875 0 c 6
 440.290039062 0 l 6
 426.959960938 0 426.959960938 0 426.959960938 13.330078125 c 6
 426.959960938 64.5400390625 l 6
 426.959960938 77.8701171875 426.959960938 77.8701171875 440.290039062 77.8701171875 c 6
 521.169921875 77.8701171875 l 6
 534.5 77.8701171875 534.5 77.8701171875 534.5 64.5400390625 c 6
 534.5 13.330078125 l 6
111.599609375 568 m 5
 376.120117188 568 l 6
 463.58984375 568 534.5 497.08984375 534.5 409.620117188 c 6
 534.5 38.9404296875 l 5
 438.5 38.9404296875 l 5
 438.5 409.620117188 l 6
 438.5 444.01953125 410.51953125 472 376.120117188 472 c 6
 111.599609375 472 l 5
 111.599609375 568 l 5
EndSplineSet
Validated: 524325
EndChar

StartChar: comma
Encoding: 44 44 26
Width: 533
Flags: HW
LayerCount: 2
Fore
SplineSet
376.165039062 127.9296875 m 1
 376.165039062 68.08984375 l 2
 376.165039062 50.3798828125 361.8046875 36.01953125 344.094726562 36.01953125 c 1
 248.235351562 -0.009765625 l 1
 230.525390625 -0.009765625 216.165039062 14.349609375 216.165039062 32.0595703125 c 2
 216.165039062 127.919921875 l 2
 216.165039062 145.629882812 230.525390625 159.990234375 248.235351562 159.990234375 c 2
 344.094726562 159.990234375 l 2
 361.8046875 159.990234375 376.165039062 145.629882812 376.165039062 127.919921875 c 1
 376.165039062 127.9296875 l 1
376.165039062 73.3603515625 m 1
 376.165039062 60.75 l 2
 376.165039062 42.849609375 376.28515625 42.849609375 360.974609375 29.6298828125 c 2
 196.85546875 -89.8603515625 l 2
 181.10546875 -105.610351562 151.775390625 -88.4599609375 157.8046875 -67.73046875 c 2
 216.174804688 60.41015625 l 1
 216.174804688 78.1201171875 230.53515625 92.48046875 248.245117188 92.48046875 c 2
 344.10546875 92.48046875 l 2
 361.815429688 92.48046875 376.174804688 78.1201171875 376.174804688 73.3603515625 c 1
 376.165039062 73.3603515625 l 1
EndSplineSet
Validated: 524325
EndChar

StartChar: A
Encoding: 65 65 27
Width: 687
Flags: HW
LayerCount: 2
Fore
SplineSet
419.905273438 731.459960938 m 2
 419.905273438 718.129882812 419.905273438 718.129882812 406.575195312 718.129882812 c 2
 325.6953125 718.129882812 l 2
 312.365234375 718.129882812 312.365234375 718.129882812 312.365234375 731.459960938 c 2
 312.365234375 782.669921875 l 2
 312.365234375 796 312.365234375 796 325.6953125 796 c 2
 406.575195312 796 l 2
 419.905273438 796 419.905273438 796 419.905273438 782.669921875 c 2
 419.905273438 731.459960938 l 2
374.565429688 731.459960938 m 2
 374.565429688 718.129882812 374.565429688 718.129882812 361.235351562 718.129882812 c 2
 280.35546875 718.129882812 l 2
 267.025390625 718.129882812 267.025390625 718.129882812 267.025390625 731.459960938 c 2
 267.025390625 782.669921875 l 2
 267.025390625 796 267.025390625 796 280.35546875 796 c 2
 361.235351562 796 l 2
 374.565429688 796 374.565429688 796 374.565429688 782.669921875 c 2
 374.565429688 731.459960938 l 2
159.03515625 13.330078125 m 2
 159.03515625 0 159.03515625 0 145.705078125 0 c 2
 64.8251953125 0 l 2
 51.4951171875 0 51.4951171875 0 51.4951171875 13.330078125 c 2
 51.4951171875 64.5400390625 l 2
 51.4951171875 77.8701171875 51.4951171875 77.8701171875 64.8251953125 77.8701171875 c 2
 145.705078125 77.8701171875 l 2
 159.03515625 77.8701171875 159.03515625 77.8701171875 159.03515625 64.5400390625 c 2
 159.03515625 13.330078125 l 2
635.504882812 13.330078125 m 2
 635.504882812 0 635.504882812 0 622.174804688 0 c 2
 541.294921875 0 l 2
 527.96484375 0 527.96484375 0 527.96484375 13.330078125 c 2
 527.96484375 64.5400390625 l 2
 527.96484375 77.8701171875 527.96484375 77.8701171875 541.294921875 77.8701171875 c 2
 622.174804688 77.8701171875 l 2
 635.504882812 77.8701171875 635.504882812 77.8701171875 635.504882812 64.5400390625 c 2
 635.504882812 13.330078125 l 2
321.674804688 779.780273438 m 1
 419.504882812 786.080078125 l 1
 623.375 44.1103515625 l 1
 530.775390625 18.7900390625 l 1
 321.674804688 779.780273438 l 1
267.60546875 786.509765625 m 1
 365.115234375 779.049804688 l 1
 156.275390625 18.98046875 l 1
 64.1953125 46.23046875 l 1
 267.60546875 786.509765625 l 1
512.235351562 256 m 1
 162.525390625 256 l 1
 162.525390625 352 l 1
 512.235351562 352 l 1
 512.235351562 256 l 1
EndSplineSet
Validated: 524293
EndChar

StartChar: E
Encoding: 69 69 28
Width: 734
Flags: HW
LayerCount: 2
Fore
SplineSet
182.540039062 731.459960938 m 2
 182.540039062 718.129882812 182.540039062 718.129882812 169.209960938 718.129882812 c 2
 88.330078125 718.129882812 l 2
 75 718.129882812 75 718.129882812 75 731.459960938 c 2
 75 782.669921875 l 2
 75 796 75 796 88.330078125 796 c 2
 169.209960938 796 l 2
 182.540039062 796 182.540039062 796 182.540039062 782.669921875 c 2
 182.540039062 731.459960938 l 2
182.540039062 13.330078125 m 2
 182.540039062 0 182.540039062 0 169.209960938 0 c 2
 88.330078125 0 l 2
 75 0 75 0 75 13.330078125 c 2
 75 64.5400390625 l 2
 75 77.8701171875 75 77.8701171875 88.330078125 77.8701171875 c 2
 169.209960938 77.8701171875 l 2
 182.540039062 77.8701171875 182.540039062 77.8701171875 182.540039062 64.5400390625 c 2
 182.540039062 13.330078125 l 2
75 45.33984375 m 1
 75 755.4296875 l 1
 171 755.4296875 l 1
 171 45.33984375 l 1
 75 45.33984375 l 1
594.450195312 0 m 2
 581.120117188 0 581.120117188 0 581.120117188 13.330078125 c 2
 581.120117188 94.2099609375 l 2
 581.120117188 107.540039062 581.120117188 107.540039062 594.450195312 107.540039062 c 2
 645.66015625 107.540039062 l 2
 658.990234375 107.540039062 658.990234375 107.540039062 658.990234375 94.2099609375 c 2
 658.990234375 13.330078125 l 2
 658.990234375 0 658.990234375 0 645.66015625 0 c 2
 594.450195312 0 l 2
594.459960938 687.309570312 m 2
 581.129882812 687.309570312 581.129882812 687.309570312 581.129882812 700.639648438 c 2
 581.129882812 781.51953125 l 2
 581.129882812 794.849609375 581.129882812 794.849609375 594.459960938 794.849609375 c 2
 645.669921875 794.849609375 l 2
 659 794.849609375 659 794.849609375 659 781.51953125 c 2
 659 700.639648438 l 2
 659 687.309570312 659 687.309570312 645.669921875 687.309570312 c 2
 594.459960938 687.309570312 l 2
594.459960938 348.849609375 m 2
 581.129882812 348.849609375 581.129882812 348.849609375 581.129882812 362.1796875 c 2
 581.129882812 443.059570312 l 2
 581.129882812 456.389648438 581.129882812 456.389648438 594.459960938 456.389648438 c 2
 645.669921875 456.389648438 l 2
 659 456.389648438 659 456.389648438 659 443.059570312 c 2
 659 362.1796875 l 2
 659 348.849609375 659 348.849609375 645.669921875 348.849609375 c 2
 594.459960938 348.849609375 l 2
594.459960938 337.309570312 m 2
 581.129882812 337.309570312 581.129882812 337.309570312 581.129882812 350.639648438 c 2
 581.129882812 431.51953125 l 2
 581.129882812 444.849609375 581.129882812 444.849609375 594.459960938 444.849609375 c 2
 645.669921875 444.849609375 l 2
 659 444.849609375 659 444.849609375 659 431.51953125 c 2
 659 350.639648438 l 2
 659 337.309570312 659 337.309570312 645.669921875 337.309570312 c 2
 594.459960938 337.309570312 l 2
137.330078125 444.860351562 m 1
 605.139648438 444.860351562 l 1
 605.139648438 348.860351562 l 1
 137.330078125 348.860351562 l 1
 137.330078125 444.860351562 l 1
137.330078125 794.860351562 m 1
 605.139648438 794.860351562 l 1
 605.139648438 698.860351562 l 1
 137.330078125 698.860351562 l 1
 137.330078125 794.860351562 l 1
137.330078125 96 m 1
 605.139648438 96 l 1
 605.139648438 0 l 1
 137.330078125 0 l 1
 137.330078125 96 l 1
EndSplineSet
Validated: 524293
EndChar

StartChar: F
Encoding: 70 70 29
Width: 732
Flags: HW
LayerCount: 2
Fore
SplineSet
181.540039062 731.459960938 m 2
 181.540039062 718.129882812 181.540039062 718.129882812 168.209960938 718.129882812 c 2
 87.330078125 718.129882812 l 2
 74 718.129882812 74 718.129882812 74 731.459960938 c 2
 74 782.669921875 l 2
 74 796 74 796 87.330078125 796 c 2
 168.209960938 796 l 2
 181.540039062 796 181.540039062 796 181.540039062 782.669921875 c 2
 181.540039062 731.459960938 l 2
181.540039062 13.330078125 m 2
 181.540039062 0 181.540039062 0 168.209960938 0 c 2
 87.330078125 0 l 2
 74 0 74 0 74 13.330078125 c 2
 74 64.5400390625 l 2
 74 77.8701171875 74 77.8701171875 87.330078125 77.8701171875 c 2
 168.209960938 77.8701171875 l 2
 181.540039062 77.8701171875 181.540039062 77.8701171875 181.540039062 64.5400390625 c 2
 181.540039062 13.330078125 l 2
74 45.33984375 m 1
 74 755.4296875 l 1
 170 755.4296875 l 1
 170 45.33984375 l 1
 74 45.33984375 l 1
593.459960938 687.309570312 m 2
 580.129882812 687.309570312 580.129882812 687.309570312 580.129882812 700.639648438 c 2
 580.129882812 781.51953125 l 2
 580.129882812 794.849609375 580.129882812 794.849609375 593.459960938 794.849609375 c 2
 644.669921875 794.849609375 l 2
 658 794.849609375 658 794.849609375 658 781.51953125 c 2
 658 700.639648438 l 2
 658 687.309570312 658 687.309570312 644.669921875 687.309570312 c 2
 593.459960938 687.309570312 l 2
593.459960938 348.849609375 m 2
 580.129882812 348.849609375 580.129882812 348.849609375 580.129882812 362.1796875 c 2
 580.129882812 443.059570312 l 2
 580.129882812 456.389648438 580.129882812 456.389648438 593.459960938 456.389648438 c 2
 644.669921875 456.389648438 l 2
 658 456.389648438 658 456.389648438 658 443.059570312 c 2
 658 362.1796875 l 2
 658 348.849609375 658 348.849609375 644.669921875 348.849609375 c 2
 593.459960938 348.849609375 l 2
593.459960938 337.309570312 m 2
 580.129882812 337.309570312 580.129882812 337.309570312 580.129882812 350.639648438 c 2
 580.129882812 431.51953125 l 2
 580.129882812 444.849609375 580.129882812 444.849609375 593.459960938 444.849609375 c 2
 644.669921875 444.849609375 l 2
 658 444.849609375 658 444.849609375 658 431.51953125 c 2
 658 350.639648438 l 2
 658 337.309570312 658 337.309570312 644.669921875 337.309570312 c 2
 593.459960938 337.309570312 l 2
136.330078125 444.860351562 m 1
 604.139648438 444.860351562 l 1
 604.139648438 348.860351562 l 1
 136.330078125 348.860351562 l 1
 136.330078125 444.860351562 l 1
136.330078125 794.860351562 m 1
 604.139648438 794.860351562 l 1
 604.139648438 698.860351562 l 1
 136.330078125 698.860351562 l 1
 136.330078125 794.860351562 l 1
EndSplineSet
Validated: 524293
EndChar

StartChar: B
Encoding: 66 66 30
Width: 723
Flags: HW
LayerCount: 2
Fore
SplineSet
177.040039062 731.459960938 m 2
 177.040039062 718.129882812 177.040039062 718.129882812 163.709960938 718.129882812 c 2
 82.830078125 718.129882812 l 2
 69.5 718.129882812 69.5 718.129882812 69.5 731.459960938 c 2
 69.5 782.669921875 l 2
 69.5 796 69.5 796 82.830078125 796 c 2
 163.709960938 796 l 2
 177.040039062 796 177.040039062 796 177.040039062 782.669921875 c 2
 177.040039062 731.459960938 l 2
177.040039062 13.330078125 m 2
 177.040039062 0 177.040039062 0 163.709960938 0 c 2
 82.830078125 0 l 2
 69.5 0 69.5 0 69.5 13.330078125 c 2
 69.5 64.5400390625 l 2
 69.5 77.8701171875 69.5 77.8701171875 82.830078125 77.8701171875 c 2
 163.709960938 77.8701171875 l 2
 177.040039062 77.8701171875 177.040039062 77.8701171875 177.040039062 64.5400390625 c 2
 177.040039062 13.330078125 l 2
81.0400390625 45.33984375 m 1
 81.0400390625 755.4296875 l 1
 177.040039062 755.4296875 l 1
 177.040039062 45.33984375 l 1
 81.0400390625 45.33984375 l 1
557.5 546.349609375 m 1
 557.5 590.349609375 l 1
 653.5 590.349609375 l 1
 653.5 546.349609375 l 1
 557.5 546.349609375 l 1
557.5 192.059570312 m 1
 557.5 236.059570312 l 1
 653.5 236.059570312 l 1
 653.5 192.059570312 l 1
 557.5 192.059570312 l 1
131.830078125 454 m 1
 527.76953125 454 l 1
 527.76953125 358 l 1
 131.830078125 358 l 1
 131.830078125 454 l 1
152.919921875 796 m 1
 227 796 l 1
 227 700 l 1
 152.919921875 700 l 1
 152.919921875 796 l 1
152.919921875 96 m 1
 227 96 l 1
 227 0 l 1
 152.919921875 0 l 1
 152.919921875 96 l 1
495.120117188 692 m 1
 227.879882812 700 l 2
 227.25 700 226.629882812 699.98046875 226 699.959960938 c 1
 226 795.98046875 l 1
 226.620117188 795.98046875 227.25 796 227.879882812 796 c 2
 495.120117188 792 l 2
 582.58984375 792 653.5 713.08984375 653.5 625.620117188 c 2
 653.5 574.059570312 l 1
 557.5 574.059570312 l 1
 557.5 625.620117188 l 2
 557.5 660.01953125 529.51953125 692 495.120117188 692 c 1
495.120117188 354 m 1
 227.879882812 358 l 2
 227.25 358 226.629882812 357.98046875 226 357.959960938 c 1
 226 453.98046875 l 1
 226.620117188 453.98046875 227.25 454 227.879882812 454 c 2
 495.120117188 454 l 2
 582.58984375 454 653.5 363.08984375 653.5 275.620117188 c 2
 653.5 224.059570312 l 1
 557.5 224.059570312 l 1
 557.5 275.620117188 l 2
 557.5 310.01953125 529.51953125 354 495.120117188 354 c 1
557.5 563.6796875 m 2
 653.5 563.6796875 l 1
 653.5 508.379882812 l 2
 653.5 420.91015625 582.58984375 358 495.120117188 358 c 2
 227.879882812 358 l 2
 227.25 358 226.629882812 358.01953125 226 358.01953125 c 1
 226 454.040039062 l 1
 226.620117188 454.01953125 227.25 454 227.879882812 454 c 2
 495.120117188 458 l 2
 529.51953125 458 557.5 473.98046875 557.5 508.379882812 c 2
 557.5 563.6796875 l 2
557.5 213.6796875 m 1
 653.5 213.6796875 l 1
 653.5 158.379882812 l 2
 653.5 70.91015625 582.58984375 0 495.120117188 0 c 2
 227.879882812 0 l 2
 227.25 0 226.629882812 0.01953125 226 0.01953125 c 1
 226 96.0400390625 l 1
 226.620117188 96.01953125 227.25 96 227.879882812 96 c 2
 495.120117188 100 l 2
 529.51953125 100 557.5 123.98046875 557.5 158.379882812 c 2
 557.5 213.6796875 l 1
EndSplineSet
Validated: 524293
EndChar

StartChar: C
Encoding: 67 67 31
Width: 717
Flags: HW
LayerCount: 2
Fore
SplineSet
637.169921875 796 m 2
 650.5 796 650.5 796 650.5 782.669921875 c 2
 650.5 701.790039062 l 2
 650.5 688.459960938 650.5 688.459960938 637.169921875 688.459960938 c 2
 585.959960938 688.459960938 l 2
 572.629882812 688.459960938 572.629882812 688.459960938 572.629882812 701.790039062 c 2
 572.629882812 782.669921875 l 2
 572.629882812 796 572.629882812 796 585.959960938 796 c 2
 637.169921875 796 l 2
585.950195312 0 m 2
 572.620117188 0 572.620117188 0 572.620117188 13.330078125 c 2
 572.620117188 94.2099609375 l 2
 572.620117188 107.540039062 572.620117188 107.540039062 585.950195312 107.540039062 c 2
 637.16015625 107.540039062 l 2
 650.490234375 107.540039062 650.490234375 107.540039062 650.490234375 94.2099609375 c 2
 650.490234375 13.330078125 l 2
 650.490234375 0 650.490234375 0 637.16015625 0 c 2
 585.950195312 0 l 2
493.469726562 796 m 1
 588.16015625 796 l 1
 588.16015625 700 l 1
 493.469726562 700 l 1
 493.469726562 796 l 1
492.830078125 96 m 1
 588.169921875 96 l 1
 588.169921875 0 l 1
 492.830078125 0 l 1
 492.830078125 96 l 1
224.879882812 784 m 2
 492.120117188 796 l 2
 492.75 796 493.379882812 795.98046875 494 795.98046875 c 1
 494 699.959960938 l 1
 493.370117188 699.98046875 492.75 700 492.120117188 700 c 2
 224.879882812 684 l 2
 190.48046875 684 162.5 660.01953125 162.5 625.620117188 c 2
 162.5 170.379882812 l 2
 162.5 135.98046875 190.48046875 112 224.879882812 112 c 2
 492.120117188 96 l 2
 492.75 96 493.379882812 96.01953125 494 96.0400390625 c 1
 494 0.01953125 l 1
 493.370117188 0.01953125 492.75 0 492.120117188 0 c 2
 224.879882812 12 l 2
 137.41015625 12 66.5 82.91015625 66.5 170.379882812 c 2
 66.5 625.620117188 l 2
 66.5 713.08984375 137.41015625 784 224.879882812 784 c 2
EndSplineSet
Validated: 524293
EndChar

StartChar: D
Encoding: 68 68 32
Width: 724
Flags: HW
LayerCount: 2
Fore
SplineSet
177.540039062 731.459960938 m 2
 177.540039062 718.129882812 177.540039062 718.129882812 164.209960938 718.129882812 c 2
 83.330078125 718.129882812 l 2
 70 718.129882812 70 718.129882812 70 731.459960938 c 2
 70 782.669921875 l 2
 70 796 70 796 83.330078125 796 c 2
 164.209960938 796 l 2
 177.540039062 796 177.540039062 796 177.540039062 782.669921875 c 2
 177.540039062 731.459960938 l 2
177.540039062 13.330078125 m 2
 177.540039062 0 177.540039062 0 164.209960938 0 c 2
 83.330078125 0 l 2
 70 0 70 0 70 13.330078125 c 2
 70 64.5400390625 l 2
 70 77.8701171875 70 77.8701171875 83.330078125 77.8701171875 c 2
 164.209960938 77.8701171875 l 2
 177.540039062 77.8701171875 177.540039062 77.8701171875 177.540039062 64.5400390625 c 2
 177.540039062 13.330078125 l 2
81.5400390625 45.33984375 m 1
 81.5400390625 755.4296875 l 1
 177.540039062 755.4296875 l 1
 177.540039062 45.33984375 l 1
 81.5400390625 45.33984375 l 1
132.330078125 796 m 1
 227.01953125 796 l 1
 227.01953125 700 l 1
 132.330078125 700 l 1
 132.330078125 796 l 1
132.330078125 96 m 1
 227.669921875 96 l 1
 227.669921875 0 l 1
 132.330078125 0 l 1
 132.330078125 96 l 1
495.620117188 784 m 2
 583.08984375 784 654 713.08984375 654 625.620117188 c 2
 654 170.379882812 l 2
 654 82.91015625 583.08984375 12 495.620117188 12 c 2
 228.379882812 0 l 2
 227.75 0 227.129882812 0.01953125 226.5 0.01953125 c 1
 226.5 96.0400390625 l 1
 227.120117188 96.01953125 227.75 96 228.379882812 96 c 2
 495.620117188 112 l 2
 530.01953125 112 558 135.98046875 558 170.379882812 c 2
 558 625.620117188 l 2
 558 660.01953125 530.01953125 684 495.620117188 684 c 2
 228.379882812 700 l 2
 227.75 700 227.129882812 699.98046875 226.5 699.959960938 c 1
 226.5 795.98046875 l 1
 227.120117188 795.98046875 227.75 796 228.379882812 796 c 2
 495.620117188 784 l 2
EndSplineSet
Validated: 524293
EndChar

StartChar: G
Encoding: 71 71 33
Width: 720
Flags: HW
LayerCount: 2
Fore
SplineSet
366.549804688 438 m 2
 379.879882812 438 379.879882812 438 379.879882812 424.669921875 c 2
 379.879882812 343.790039062 l 2
 379.879882812 330.459960938 379.879882812 330.459960938 366.549804688 330.459960938 c 2
 315.33984375 330.459960938 l 2
 302.009765625 330.459960938 302.009765625 330.459960938 302.009765625 343.790039062 c 2
 302.009765625 424.669921875 l 2
 302.009765625 438 302.009765625 438 315.33984375 438 c 2
 366.549804688 438 l 2
638.669921875 438 m 2
 652 438 652 438 652 424.669921875 c 2
 652 343.790039062 l 2
 652 330.459960938 652 330.459960938 638.669921875 330.459960938 c 2
 587.459960938 330.459960938 l 2
 574.129882812 330.459960938 574.129882812 330.459960938 574.129882812 343.790039062 c 2
 574.129882812 424.669921875 l 2
 574.129882812 438 574.129882812 438 587.459960938 438 c 2
 638.669921875 438 l 2
556 363.16015625 m 1
 652 363.16015625 l 1
 652 158.379882812 l 2
 652 70.91015625 581.08984375 0 493.620117188 0 c 2
 226.379882812 0 l 2
 138.91015625 0 68 70.91015625 68 158.379882812 c 2
 68 633.459960938 l 1
 164 633.459960938 l 1
 164 158.379882812 l 2
 164 123.98046875 191.98046875 100 226.379882812 100 c 2
 493.620117188 100 l 2
 528.01953125 100 556 123.98046875 556 158.379882812 c 2
 556 363.16015625 l 1
632.23046875 342 m 1
 322.0703125 342 l 1
 322.0703125 438 l 1
 632.23046875 438 l 1
 632.23046875 342 l 1
652 596.040039062 m 2
 652 582.709960938 652 582.709960938 638.669921875 582.709960938 c 2
 569.330078125 582.709960938 l 2
 556 582.709960938 556 582.709960938 556 596.040039062 c 2
 556 647.25 l 2
 556 660.580078125 556 660.580078125 569.330078125 660.580078125 c 2
 638.669921875 660.580078125 l 2
 652 660.580078125 652 660.580078125 652 647.25 c 2
 652 596.040039062 l 2
556 606.059570312 m 1
 556 613.620117188 l 2
 556 648.01953125 508.01953125 696 473.620117188 696 c 2
 246.379882812 696 l 2
 211.98046875 696 164 665.860351562 164 631.459960938 c 2
 164 627.66015625 l 1
 68 627.66015625 l 1
 68 631.459960938 l 2
 68 718.9296875 158.91015625 796 246.379882812 796 c 2
 473.620117188 796 l 2
 561.08984375 796 652 701.08984375 652 613.620117188 c 2
 652 606.059570312 l 1
 556 606.059570312 l 1
EndSplineSet
Validated: 524293
EndChar

StartChar: H
Encoding: 72 72 34
Width: 737
Flags: HW
LayerCount: 2
Fore
SplineSet
184.040039062 731.459960938 m 2
 184.040039062 718.129882812 184.040039062 718.129882812 170.709960938 718.129882812 c 2
 89.830078125 718.129882812 l 2
 76.5 718.129882812 76.5 718.129882812 76.5 731.459960938 c 2
 76.5 782.669921875 l 2
 76.5 796 76.5 796 89.830078125 796 c 2
 170.709960938 796 l 2
 184.040039062 796 184.040039062 796 184.040039062 782.669921875 c 2
 184.040039062 731.459960938 l 2
660.5 731.459960938 m 2
 660.5 718.129882812 660.5 718.129882812 647.169921875 718.129882812 c 2
 566.290039062 718.129882812 l 2
 552.959960938 718.129882812 552.959960938 718.129882812 552.959960938 731.459960938 c 2
 552.959960938 782.669921875 l 2
 552.959960938 796 552.959960938 796 566.290039062 796 c 2
 647.169921875 796 l 2
 660.5 796 660.5 796 660.5 782.669921875 c 2
 660.5 731.459960938 l 2
184.040039062 13.330078125 m 2
 184.040039062 0 184.040039062 0 170.709960938 0 c 2
 89.830078125 0 l 2
 76.5 0 76.5 0 76.5 13.330078125 c 2
 76.5 64.5400390625 l 2
 76.5 77.8701171875 76.5 77.8701171875 89.830078125 77.8701171875 c 2
 170.709960938 77.8701171875 l 2
 184.040039062 77.8701171875 184.040039062 77.8701171875 184.040039062 64.5400390625 c 2
 184.040039062 13.330078125 l 2
660.5 13.330078125 m 2
 660.5 0 660.5 0 647.169921875 0 c 2
 566.290039062 0 l 2
 552.959960938 0 552.959960938 0 552.959960938 13.330078125 c 2
 552.959960938 64.5400390625 l 2
 552.959960938 77.8701171875 552.959960938 77.8701171875 566.290039062 77.8701171875 c 2
 647.169921875 77.8701171875 l 2
 660.5 77.8701171875 660.5 77.8701171875 660.5 64.5400390625 c 2
 660.5 13.330078125 l 2
76.5 45.33984375 m 1
 76.5 755.4296875 l 1
 172.5 755.4296875 l 1
 172.5 45.33984375 l 1
 76.5 45.33984375 l 1
564.5 30.8701171875 m 1
 564.5 740.959960938 l 1
 660.5 740.959960938 l 1
 660.5 30.8701171875 l 1
 564.5 30.8701171875 l 1
138.830078125 444.860351562 m 1
 606.639648438 444.860351562 l 1
 606.639648438 348.860351562 l 1
 138.830078125 348.860351562 l 1
 138.830078125 444.860351562 l 1
EndSplineSet
Validated: 524293
EndChar

StartChar: I
Encoding: 73 73 35
Width: 450
Flags: HW
LayerCount: 2
Fore
SplineSet
176.995117188 39.5498046875 m 1
 176.995117188 761.83984375 l 1
 272.995117188 761.83984375 l 1
 272.995117188 39.5498046875 l 1
 176.995117188 39.5498046875 l 1
95.2353515625 796 m 1
 349.224609375 796 l 1
 349.224609375 700 l 1
 95.2353515625 700 l 1
 95.2353515625 796 l 1
95.2353515625 96 m 1
 349.224609375 96 l 1
 349.224609375 0 l 1
 95.2353515625 0 l 1
 95.2353515625 96 l 1
374.834960938 107.540039062 m 2
 388.165039062 107.540039062 388.165039062 107.540039062 388.165039062 94.2099609375 c 2
 388.165039062 13.330078125 l 2
 388.165039062 0 388.165039062 0 374.834960938 0 c 2
 323.625 0 l 2
 310.294921875 0 310.294921875 0 310.294921875 13.330078125 c 2
 310.294921875 94.2099609375 l 2
 310.294921875 107.540039062 310.294921875 107.540039062 323.625 107.540039062 c 2
 374.834960938 107.540039062 l 2
75.1650390625 0 m 2
 61.8349609375 0 61.8349609375 0 61.8349609375 13.330078125 c 2
 61.8349609375 94.2099609375 l 2
 61.8349609375 107.540039062 61.8349609375 107.540039062 75.1650390625 107.540039062 c 2
 126.375 107.540039062 l 2
 139.705078125 107.540039062 139.705078125 107.540039062 139.705078125 94.2099609375 c 2
 139.705078125 13.330078125 l 2
 139.705078125 0 139.705078125 0 126.375 0 c 2
 75.1650390625 0 l 2
126.384765625 796 m 2
 139.71484375 796 139.71484375 796 139.71484375 782.669921875 c 2
 139.71484375 701.790039062 l 2
 139.71484375 688.459960938 139.71484375 688.459960938 126.384765625 688.459960938 c 2
 75.1748046875 688.459960938 l 2
 61.8447265625 688.459960938 61.8447265625 688.459960938 61.8447265625 701.790039062 c 2
 61.8447265625 782.669921875 l 2
 61.8447265625 796 61.8447265625 796 75.1748046875 796 c 2
 126.384765625 796 l 2
323.615234375 688.459960938 m 2
 310.28515625 688.459960938 310.28515625 688.459960938 310.28515625 701.790039062 c 2
 310.28515625 782.669921875 l 2
 310.28515625 796 310.28515625 796 323.615234375 796 c 2
 374.825195312 796 l 2
 388.155273438 796 388.155273438 796 388.155273438 782.669921875 c 2
 388.155273438 701.790039062 l 2
 388.155273438 688.459960938 388.155273438 688.459960938 374.825195312 688.459960938 c 2
 323.615234375 688.459960938 l 2
EndSplineSet
Validated: 524293
EndChar

StartChar: J
Encoding: 74 74 36
Width: 466
Flags: HW
LayerCount: 2
Fore
SplineSet
103.235351562 796 m 1
 357.224609375 796 l 1
 357.224609375 700 l 1
 103.235351562 700 l 1
 103.235351562 796 l 1
103.235351562 96 m 1
 151.525390625 96 l 1
 151.525390625 0 l 1
 103.235351562 0 l 1
 103.235351562 96 l 1
83.1650390625 0 m 2
 69.8349609375 0 69.8349609375 0 69.8349609375 13.330078125 c 2
 69.8349609375 94.2099609375 l 2
 69.8349609375 107.540039062 69.8349609375 107.540039062 83.1650390625 107.540039062 c 2
 134.375 107.540039062 l 2
 147.705078125 107.540039062 147.705078125 107.540039062 147.705078125 94.2099609375 c 2
 147.705078125 13.330078125 l 2
 147.705078125 0 147.705078125 0 134.375 0 c 2
 83.1650390625 0 l 2
134.384765625 796 m 2
 147.71484375 796 147.71484375 796 147.71484375 782.669921875 c 2
 147.71484375 701.790039062 l 2
 147.71484375 688.459960938 147.71484375 688.459960938 134.384765625 688.459960938 c 2
 83.1748046875 688.459960938 l 2
 69.8447265625 688.459960938 69.8447265625 688.459960938 69.8447265625 701.790039062 c 2
 69.8447265625 782.669921875 l 2
 69.8447265625 796 69.8447265625 796 83.1748046875 796 c 2
 134.384765625 796 l 2
288.625 782.669921875 m 2
 288.625 796 288.625 796 301.955078125 796 c 2
 382.834960938 796 l 2
 396.165039062 796 396.165039062 796 396.165039062 782.669921875 c 2
 396.165039062 731.459960938 l 2
 396.165039062 718.129882812 396.165039062 718.129882812 382.834960938 718.129882812 c 2
 301.955078125 718.129882812 l 2
 288.625 718.129882812 288.625 718.129882812 288.625 731.459960938 c 2
 288.625 782.669921875 l 2
300.165039062 178.48046875 m 1
 300.165039062 746 l 1
 396.165039062 746 l 1
 396.165039062 178.48046875 l 1
 300.165039062 178.48046875 l 1
300.165039062 202.219726562 m 1
 396.165039062 202.219726562 l 1
 396.165039062 158.379882812 l 2
 396.165039062 70.91015625 325.254882812 0 237.78515625 0 c 2
 144.815429688 0 l 1
 144.815429688 96 l 1
 237.78515625 96 l 2
 272.184570312 96 300.165039062 123.98046875 300.165039062 158.379882812 c 2
 300.165039062 202.219726562 l 1
EndSplineSet
Validated: 524293
EndChar

StartChar: K
Encoding: 75 75 37
Width: 718
Flags: HW
LayerCount: 2
Fore
SplineSet
174.540039062 13.330078125 m 2
 174.540039062 0 174.540039062 0 161.209960938 0 c 2
 80.330078125 0 l 2
 67 0 67 0 67 13.330078125 c 2
 67 64.5400390625 l 2
 67 77.8701171875 67 77.8701171875 80.330078125 77.8701171875 c 2
 161.209960938 77.8701171875 l 2
 174.540039062 77.8701171875 174.540039062 77.8701171875 174.540039062 64.5400390625 c 2
 174.540039062 13.330078125 l 2
174.540039062 731.459960938 m 2
 174.540039062 718.129882812 174.540039062 718.129882812 161.209960938 718.129882812 c 2
 80.330078125 718.129882812 l 2
 67 718.129882812 67 718.129882812 67 731.459960938 c 2
 67 782.669921875 l 2
 67 796 67 796 80.330078125 796 c 2
 161.209960938 796 l 2
 174.540039062 796 174.540039062 796 174.540039062 782.669921875 c 2
 174.540039062 731.459960938 l 2
651 731.459960938 m 2
 651 718.129882812 651 718.129882812 637.669921875 718.129882812 c 2
 556.790039062 718.129882812 l 2
 543.459960938 718.129882812 543.459960938 718.129882812 543.459960938 731.459960938 c 2
 543.459960938 782.669921875 l 2
 543.459960938 796 543.459960938 796 556.790039062 796 c 2
 637.669921875 796 l 2
 651 796 651 796 651 782.669921875 c 2
 651 731.459960938 l 2
651 13.330078125 m 2
 651 0 651 0 637.669921875 0 c 2
 556.790039062 0 l 2
 543.459960938 0 543.459960938 0 543.459960938 13.330078125 c 2
 543.459960938 64.5400390625 l 2
 543.459960938 77.8701171875 543.459960938 77.8701171875 556.790039062 77.8701171875 c 2
 637.669921875 77.8701171875 l 2
 651 77.8701171875 651 77.8701171875 651 64.5400390625 c 2
 651 13.330078125 l 2
67 48 m 1
 67 743.870117188 l 1
 163 743.870117188 l 1
 163 48 l 1
 67 48 l 1
72.8095703125 375.651367188 m 1
 565.850585938 796.004882812 l 1
 628.133789062 722.951171875 l 1
 135.092773438 302.59765625 l 1
 72.8095703125 375.651367188 l 1
271.795898438 511.64453125 m 1
 650.997070312 66.8720703125 l 1
 577.943359375 4.5888671875 l 1
 198.7421875 449.361328125 l 1
 271.795898438 511.64453125 l 1
EndSplineSet
Validated: 524293
EndChar

StartChar: L
Encoding: 76 76 38
Width: 721
Flags: HW
LayerCount: 2
Fore
SplineSet
176.044921875 731.459960938 m 2
 176.044921875 718.129882812 176.044921875 718.129882812 162.71484375 718.129882812 c 2
 81.8349609375 718.129882812 l 2
 68.5048828125 718.129882812 68.5048828125 718.129882812 68.5048828125 731.459960938 c 2
 68.5048828125 782.669921875 l 2
 68.5048828125 796 68.5048828125 796 81.8349609375 796 c 2
 162.71484375 796 l 2
 176.044921875 796 176.044921875 796 176.044921875 782.669921875 c 2
 176.044921875 731.459960938 l 2
176.044921875 13.330078125 m 2
 176.044921875 0 176.044921875 0 162.71484375 0 c 2
 81.8349609375 0 l 2
 68.5048828125 0 68.5048828125 0 68.5048828125 13.330078125 c 2
 68.5048828125 64.5400390625 l 2
 68.5048828125 77.8701171875 68.5048828125 77.8701171875 81.8349609375 77.8701171875 c 2
 162.71484375 77.8701171875 l 2
 176.044921875 77.8701171875 176.044921875 77.8701171875 176.044921875 64.5400390625 c 2
 176.044921875 13.330078125 l 2
68.5048828125 45.33984375 m 1
 68.5048828125 755.4296875 l 1
 164.504882812 755.4296875 l 1
 164.504882812 45.33984375 l 1
 68.5048828125 45.33984375 l 1
587.955078125 0 m 2
 574.625 0 574.625 0 574.625 13.330078125 c 2
 574.625 94.2099609375 l 2
 574.625 107.540039062 574.625 107.540039062 587.955078125 107.540039062 c 2
 639.165039062 107.540039062 l 2
 652.495117188 107.540039062 652.495117188 107.540039062 652.495117188 94.2099609375 c 2
 652.495117188 13.330078125 l 2
 652.495117188 0 652.495117188 0 639.165039062 0 c 2
 587.955078125 0 l 2
130.834960938 96 m 1
 598.64453125 96 l 1
 598.64453125 0 l 1
 130.834960938 0 l 1
 130.834960938 96 l 1
EndSplineSet
Validated: 524293
EndChar

StartChar: M
Encoding: 77 77 39
Width: 736
Flags: HW
LayerCount: 2
Fore
SplineSet
75.9970703125 59.66015625 m 1
 75.9970703125 760.240234375 l 1
 171.997070312 760.240234375 l 1
 171.997070312 59.66015625 l 1
 75.9970703125 59.66015625 l 1
317.243164062 229.553710938 m 1
 75.9912109375 756.0078125 l 1
 163.263671875 796.001953125 l 1
 404.515625 269.546875 l 1
 317.243164062 229.553710938 l 1
660.008789062 756.001953125 m 1
 416.927734375 225.556640625 l 1
 329.655273438 265.549804688 l 1
 572.735351562 795.995117188 l 1
 660.008789062 756.001953125 l 1
563.997070312 34.080078125 m 1
 563.997070312 760.240234375 l 1
 659.997070312 760.240234375 l 1
 659.997070312 34.080078125 l 1
 563.997070312 34.080078125 l 1
75.9970703125 64.5400390625 m 2
 75.9970703125 77.8701171875 75.9970703125 77.8701171875 89.3271484375 77.8701171875 c 2
 170.20703125 77.8701171875 l 2
 183.537109375 77.8701171875 183.537109375 77.8701171875 183.537109375 64.5400390625 c 2
 183.537109375 13.330078125 l 2
 183.537109375 0 183.537109375 0 170.20703125 0 c 2
 89.3271484375 0 l 2
 75.9970703125 0 75.9970703125 0 75.9970703125 13.330078125 c 2
 75.9970703125 64.5400390625 l 2
314.227539062 279.940429688 m 2
 314.227539062 293.26953125 314.227539062 293.26953125 327.556640625 293.26953125 c 2
 408.4375 293.26953125 l 2
 421.766601562 293.26953125 421.766601562 293.26953125 421.766601562 279.940429688 c 2
 421.766601562 228.73046875 l 2
 421.766601562 215.400390625 421.766601562 215.400390625 408.4375 215.400390625 c 2
 327.556640625 215.400390625 l 2
 314.227539062 215.400390625 314.227539062 215.400390625 314.227539062 228.73046875 c 2
 314.227539062 279.940429688 l 2
552.45703125 782.669921875 m 2
 552.45703125 796 552.45703125 796 565.787109375 796 c 2
 646.666992188 796 l 2
 659.997070312 796 659.997070312 796 659.997070312 782.669921875 c 2
 659.997070312 731.459960938 l 2
 659.997070312 718.129882812 659.997070312 718.129882812 646.666992188 718.129882812 c 2
 565.787109375 718.129882812 l 2
 552.45703125 718.129882812 552.45703125 718.129882812 552.45703125 731.459960938 c 2
 552.45703125 782.669921875 l 2
75.9970703125 782.669921875 m 2
 75.9970703125 796 75.9970703125 796 89.3271484375 796 c 2
 170.20703125 796 l 2
 183.537109375 796 183.537109375 796 183.537109375 782.669921875 c 2
 183.537109375 731.459960938 l 2
 183.537109375 718.129882812 183.537109375 718.129882812 170.20703125 718.129882812 c 2
 89.3271484375 718.129882812 l 2
 75.9970703125 718.129882812 75.9970703125 718.129882812 75.9970703125 731.459960938 c 2
 75.9970703125 782.669921875 l 2
552.45703125 64.5400390625 m 2
 552.45703125 77.8701171875 552.45703125 77.8701171875 565.787109375 77.8701171875 c 2
 646.666992188 77.8701171875 l 2
 659.997070312 77.8701171875 659.997070312 77.8701171875 659.997070312 64.5400390625 c 2
 659.997070312 13.330078125 l 2
 659.997070312 0 659.997070312 0 646.666992188 0 c 2
 565.787109375 0 l 2
 552.45703125 0 552.45703125 0 552.45703125 13.330078125 c 2
 552.45703125 64.5400390625 l 2
EndSplineSet
Validated: 524293
EndChar

StartChar: N
Encoding: 78 78 40
Width: 737
Flags: HW
LayerCount: 2
Fore
SplineSet
76.5 59.4697265625 m 1
 76.5 760.049804688 l 1
 172.5 760.049804688 l 1
 172.5 59.4697265625 l 1
 76.5 59.4697265625 l 1
576.368164062 -0.3359375 m 1
 80.7919921875 742.749023438 l 1
 160.66015625 796.013671875 l 1
 656.236328125 52.9287109375 l 1
 576.368164062 -0.3359375 l 1
564.5 33.8896484375 m 1
 564.5 760.049804688 l 1
 660.5 760.049804688 l 1
 660.5 33.8896484375 l 1
 564.5 33.8896484375 l 1
76.5 64.3603515625 m 2
 76.5 77.6904296875 76.5 77.6904296875 89.830078125 77.6904296875 c 2
 170.709960938 77.6904296875 l 2
 184.040039062 77.6904296875 184.040039062 77.6904296875 184.040039062 64.3603515625 c 2
 184.040039062 13.150390625 l 2
 184.040039062 -0.1796875 184.040039062 -0.1796875 170.709960938 -0.1796875 c 2
 89.830078125 -0.1796875 l 2
 76.5 -0.1796875 76.5 -0.1796875 76.5 13.150390625 c 2
 76.5 64.3603515625 l 2
552.959960938 782.48046875 m 2
 552.959960938 795.809570312 552.959960938 795.809570312 566.290039062 795.809570312 c 2
 647.169921875 795.809570312 l 2
 660.5 795.809570312 660.5 795.809570312 660.5 782.48046875 c 2
 660.5 731.26953125 l 2
 660.5 717.940429688 660.5 717.940429688 647.169921875 717.940429688 c 2
 566.290039062 717.940429688 l 2
 552.959960938 717.940429688 552.959960938 717.940429688 552.959960938 731.26953125 c 2
 552.959960938 782.48046875 l 2
76.5 782.48046875 m 2
 76.5 795.809570312 76.5 795.809570312 89.830078125 795.809570312 c 2
 170.709960938 795.809570312 l 2
 184.040039062 795.809570312 184.040039062 795.809570312 184.040039062 782.48046875 c 2
 184.040039062 731.26953125 l 2
 184.040039062 717.940429688 184.040039062 717.940429688 170.709960938 717.940429688 c 2
 89.830078125 717.940429688 l 2
 76.5 717.940429688 76.5 717.940429688 76.5 731.26953125 c 2
 76.5 782.48046875 l 2
552.959960938 64.3603515625 m 2
 552.959960938 77.6904296875 552.959960938 77.6904296875 566.290039062 77.6904296875 c 2
 647.169921875 77.6904296875 l 2
 660.5 77.6904296875 660.5 77.6904296875 660.5 64.3603515625 c 2
 660.5 13.150390625 l 2
 660.5 -0.1796875 660.5 -0.1796875 647.169921875 -0.1796875 c 2
 566.290039062 -0.1796875 l 2
 552.959960938 -0.1796875 552.959960938 -0.1796875 552.959960938 13.150390625 c 2
 552.959960938 64.3603515625 l 2
EndSplineSet
Validated: 524293
EndChar

StartChar: O
Encoding: 79 79 41
Width: 723
Flags: HW
LayerCount: 2
Fore
SplineSet
495.120117188 696 m 2
 227.879882812 696 l 2
 193.48046875 696 165.5 672.01953125 165.5 637.620117188 c 2
 165.5 158.379882812 l 2
 165.5 123.98046875 193.48046875 100 227.879882812 100 c 2
 495.120117188 100 l 2
 529.51953125 100 557.5 123.98046875 557.5 158.379882812 c 2
 557.5 637.620117188 l 2
 557.5 672.01953125 529.51953125 696 495.120117188 696 c 2
495.120117188 796 m 1
 582.58984375 796 653.5 725.08984375 653.5 637.620117188 c 2
 653.5 158.379882812 l 2
 653.5 70.91015625 582.58984375 0 495.120117188 0 c 2
 227.879882812 0 l 2
 140.41015625 0 69.5 70.91015625 69.5 158.379882812 c 2
 69.5 637.620117188 l 2
 69.5 725.08984375 140.41015625 796 227.879882812 796 c 2
 495.120117188 796 l 1
EndSplineSet
Validated: 524289
EndChar

StartChar: P
Encoding: 80 80 42
Width: 720
Flags: HW
LayerCount: 2
Fore
SplineSet
175.540039062 731.459960938 m 2
 175.540039062 718.129882812 175.540039062 718.129882812 162.209960938 718.129882812 c 2
 81.330078125 718.129882812 l 2
 68 718.129882812 68 718.129882812 68 731.459960938 c 2
 68 782.669921875 l 2
 68 796 68 796 81.330078125 796 c 2
 162.209960938 796 l 2
 175.540039062 796 175.540039062 796 175.540039062 782.669921875 c 2
 175.540039062 731.459960938 l 2
175.540039062 13.330078125 m 2
 175.540039062 0 175.540039062 0 162.209960938 0 c 2
 81.330078125 0 l 2
 68 0 68 0 68 13.330078125 c 2
 68 64.5400390625 l 2
 68 77.8701171875 68 77.8701171875 81.330078125 77.8701171875 c 2
 162.209960938 77.8701171875 l 2
 175.540039062 77.8701171875 175.540039062 77.8701171875 175.540039062 64.5400390625 c 2
 175.540039062 13.330078125 l 2
79.5400390625 45.33984375 m 1
 79.5400390625 755.4296875 l 1
 175.540039062 755.4296875 l 1
 175.540039062 45.33984375 l 1
 79.5400390625 45.33984375 l 1
556 519.530273438 m 1
 556 590.349609375 l 1
 652 590.349609375 l 1
 652 519.530273438 l 1
 556 519.530273438 l 1
130.330078125 400.58984375 m 1
 225.059570312 400.58984375 l 1
 225.059570312 304.58984375 l 1
 130.330078125 304.58984375 l 1
 130.330078125 400.58984375 l 1
151.419921875 796 m 1
 225.5 796 l 1
 225.5 700 l 1
 151.419921875 700 l 1
 151.419921875 796 l 1
493.620117188 692 m 1
 226.379882812 700 l 2
 225.75 700 225.129882812 699.98046875 224.5 699.959960938 c 1
 224.5 795.98046875 l 1
 225.120117188 795.98046875 225.75 796 226.379882812 796 c 2
 493.620117188 792 l 2
 581.08984375 792 652 713.08984375 652 625.620117188 c 2
 652 574.059570312 l 1
 556 574.059570312 l 1
 556 625.620117188 l 2
 556 660.01953125 528.01953125 692 493.620117188 692 c 1
493.620117188 408.599609375 m 1
 528.01953125 408.599609375 556 440.580078125 556 474.98046875 c 2
 556 526.540039062 l 1
 652 526.540039062 l 1
 652 474.98046875 l 2
 652 387.509765625 581.08984375 308.599609375 493.620117188 308.599609375 c 2
 226.379882812 304.599609375 l 2
 225.75 304.599609375 225.120117188 304.620117188 224.5 304.620117188 c 1
 224.5 400.639648438 l 1
 225.129882812 400.620117188 225.75 400.599609375 226.379882812 400.599609375 c 2
 493.620117188 408.599609375 l 1
EndSplineSet
Validated: 524293
EndChar

StartChar: Q
Encoding: 81 81 43
Width: 723
Flags: HW
LayerCount: 2
Fore
SplineSet
495.120117188 696 m 2
 227.879882812 696 l 2
 193.48046875 696 165.5 672.01953125 165.5 637.620117188 c 2
 165.5 158.379882812 l 2
 165.5 123.98046875 193.48046875 100 227.879882812 100 c 2
 495.120117188 112 l 2
 529.51953125 112 557.5 135.98046875 557.5 170.379882812 c 2
 557.5 637.620117188 l 2
 557.5 672.01953125 529.51953125 696 495.120117188 696 c 2
495.120117188 796 m 1
 582.58984375 796 653.5 725.08984375 653.5 637.620117188 c 2
 653.5 170.379882812 l 2
 653.5 82.91015625 582.58984375 12 495.120117188 12 c 2
 227.879882812 0 l 2
 140.41015625 0 69.5 70.91015625 69.5 158.379882812 c 2
 69.5 637.620117188 l 2
 69.5 725.08984375 140.41015625 796 227.879882812 796 c 2
 495.120117188 796 l 1
599.740234375 -132 m 1
 599.740234375 -228 l 1
 542.459960938 -228 l 1
 542.459960938 -132.209960938 l 1
 599.740234375 -132 l 1
588.950195312 -228 m 2
 575.620117188 -228 575.620117188 -228 575.620117188 -214.669921875 c 2
 575.620117188 -133.790039062 l 2
 575.620117188 -120.459960938 575.620117188 -120.459960938 588.950195312 -120.459960938 c 2
 640.16015625 -120.459960938 l 2
 653.490234375 -120.459960938 653.490234375 -120.459960938 653.490234375 -133.790039062 c 2
 653.490234375 -214.669921875 l 2
 653.490234375 -228 653.490234375 -228 640.16015625 -228 c 2
 588.950195312 -228 l 2
544.8203125 -132.209960938 m 1
 544.809570312 -132.209960938 l 1
 544.809570312 -228 l 1
 532.73046875 -228 l 2
 445.259765625 -228 252.639648438 -70.2998046875 252.639648438 17.169921875 c 2
 252.639648438 40.0302734375 l 1
 357.639648438 24.0302734375 l 1
 357.639648438 1.169921875 l 2
 357.639648438 -33.23046875 498.719726562 -132.209960938 533.120117188 -132.209960938 c 2
 544.8203125 -132.209960938 l 1
EndSplineSet
Validated: 524293
EndChar

StartChar: R
Encoding: 82 82 44
Width: 720
Flags: HW
LayerCount: 2
Fore
SplineSet
652 13.330078125 m 2
 652 0 652 0 638.669921875 0 c 2
 557.790039062 0 l 2
 544.459960938 0 544.459960938 0 544.459960938 13.330078125 c 2
 544.459960938 64.5400390625 l 2
 544.459960938 77.8701171875 544.459960938 77.8701171875 557.790039062 77.8701171875 c 2
 638.669921875 77.8701171875 l 2
 652 77.8701171875 652 77.8701171875 652 64.5400390625 c 2
 652 13.330078125 l 2
483.52734375 452.543945312 m 1
 647.84765625 45.8349609375 l 1
 558.838867188 9.873046875 l 1
 394.517578125 416.58203125 l 1
 483.52734375 452.543945312 l 1
175.540039062 731.459960938 m 2
 175.540039062 718.129882812 175.540039062 718.129882812 162.209960938 718.129882812 c 2
 81.330078125 718.129882812 l 2
 68 718.129882812 68 718.129882812 68 731.459960938 c 2
 68 782.669921875 l 2
 68 796 68 796 81.330078125 796 c 2
 162.209960938 796 l 2
 175.540039062 796 175.540039062 796 175.540039062 782.669921875 c 2
 175.540039062 731.459960938 l 2
175.540039062 13.330078125 m 2
 175.540039062 0 175.540039062 0 162.209960938 0 c 2
 81.330078125 0 l 2
 68 0 68 0 68 13.330078125 c 2
 68 64.5400390625 l 2
 68 77.8701171875 68 77.8701171875 81.330078125 77.8701171875 c 2
 162.209960938 77.8701171875 l 2
 175.540039062 77.8701171875 175.540039062 77.8701171875 175.540039062 64.5400390625 c 2
 175.540039062 13.330078125 l 2
79.5400390625 45.33984375 m 1
 79.5400390625 755.4296875 l 1
 175.540039062 755.4296875 l 1
 175.540039062 45.33984375 l 1
 79.5400390625 45.33984375 l 1
556 519.530273438 m 1
 556 590.349609375 l 1
 652 590.349609375 l 1
 652 519.530273438 l 1
 556 519.530273438 l 1
130.330078125 453.58984375 m 1
 225.059570312 453.58984375 l 1
 225.059570312 357.58984375 l 1
 130.330078125 357.58984375 l 1
 130.330078125 453.58984375 l 1
151.419921875 796 m 1
 225.5 796 l 1
 225.5 700 l 1
 151.419921875 700 l 1
 151.419921875 796 l 1
493.620117188 692 m 1
 226.379882812 700 l 2
 225.75 700 225.129882812 699.98046875 224.5 699.959960938 c 1
 224.5 795.98046875 l 1
 225.120117188 795.98046875 225.75 796 226.379882812 796 c 2
 493.620117188 792 l 2
 581.08984375 792 652 713.08984375 652 625.620117188 c 2
 652 574.059570312 l 1
 556 574.059570312 l 1
 556 625.620117188 l 2
 556 660.01953125 528.01953125 692 493.620117188 692 c 1
493.620117188 461.599609375 m 1
 528.01953125 461.599609375 556 493.580078125 556 527.98046875 c 2
 556 579.540039062 l 1
 652 579.540039062 l 1
 652 527.98046875 l 2
 652 440.509765625 581.08984375 361.599609375 493.620117188 361.599609375 c 2
 226.379882812 357.599609375 l 2
 225.75 357.599609375 225.120117188 357.620117188 224.5 357.620117188 c 1
 224.5 453.639648438 l 1
 225.129882812 453.620117188 225.75 453.599609375 226.379882812 453.599609375 c 2
 493.620117188 461.599609375 l 1
EndSplineSet
Validated: 524293
EndChar

StartChar: S
Encoding: 83 83 45
Width: 717
Flags: HW
LayerCount: 2
Fore
SplineSet
389.76953125 350 m 5
 313.200195312 350 l 5
 313.200195312 446 l 5
 389.76953125 446 l 5
 389.76953125 350 l 5
66.5 515.240234375 m 5
 66.5 631.809570312 l 5
 162.5 631.809570312 l 5
 162.5 515.240234375 l 5
 66.5 515.240234375 l 5
554.5 168.440429688 m 5
 554.5 279.110351562 l 5
 650.5 279.110351562 l 5
 650.5 168.440429688 l 5
 554.5 168.440429688 l 5
66.5 199.959960938 m 6
 66.5 213.290039062 66.5 213.290039062 79.830078125 213.290039062 c 6
 160.709960938 213.290039062 l 6
 174.040039062 213.290039062 174.040039062 213.290039062 174.040039062 199.959960938 c 6
 174.040039062 148.75 l 6
 174.040039062 135.419921875 174.040039062 135.419921875 160.709960938 135.419921875 c 6
 79.830078125 135.419921875 l 6
 66.5 135.419921875 66.5 135.419921875 66.5 148.75 c 6
 66.5 199.959960938 l 6
162.5 158.379882812 m 6
 162.5 123.98046875 190.48046875 100 224.879882812 100 c 6
 492.120117188 100 l 6
 526.51953125 100 554.5 123.98046875 554.5 158.379882812 c 6
 554.5 174.16015625 l 5
 650.5 174.16015625 l 5
 650.5 158.379882812 l 6
 650.5 70.91015625 579.58984375 0 492.120117188 0 c 6
 224.879882812 0 l 6
 137.41015625 0 66.5 70.91015625 66.5 158.379882812 c 6
 66.5 189.400390625 l 5
 162.5 189.400390625 l 5
 162.5 158.379882812 l 6
542.959960938 647.25 m 6
 542.959960938 660.580078125 542.959960938 660.580078125 556.290039062 660.580078125 c 6
 637.169921875 660.580078125 l 6
 650.5 660.580078125 650.5 660.580078125 650.5 647.25 c 6
 650.5 596.040039062 l 6
 650.5 582.709960938 650.5 582.709960938 637.169921875 582.709960938 c 6
 556.290039062 582.709960938 l 6
 542.959960938 582.709960938 542.959960938 582.709960938 542.959960938 596.040039062 c 6
 542.959960938 647.25 l 6
554.5 637.620117188 m 6
 554.5 672.01953125 526.51953125 696 492.120117188 696 c 6
 224.879882812 696 l 6
 190.48046875 696 162.5 672.01953125 162.5 637.620117188 c 6
 162.5 621.83984375 l 5
 66.5 621.83984375 l 5
 66.5 637.620117188 l 6
 66.5 725.08984375 137.41015625 796 224.879882812 796 c 6
 492.120117188 796 l 6
 579.58984375 796 650.5 725.08984375 650.5 637.620117188 c 6
 650.5 606.599609375 l 5
 554.5 606.599609375 l 5
 554.5 637.620117188 l 6
340.629882812 446 m 5
 340.629882812 350 l 5
 244.879882812 350 l 6
 157.41015625 350 66.5 420.91015625 66.5 508.379882812 c 6
 66.5 524.16015625 l 5
 162.5 524.16015625 l 5
 162.5 508.379882812 l 6
 162.5 473.98046875 210.48046875 445.83984375 244.879882812 445.83984375 c 6
 340.629882812 446 l 5
376.370117188 350 m 5
 376.370117188 446 l 5
 472.120117188 446 l 6
 559.58984375 446 650.5 375.08984375 650.5 287.620117188 c 6
 650.5 271.83984375 l 5
 554.5 271.83984375 l 5
 554.5 287.620117188 l 6
 554.5 322.01953125 506.51953125 350.16015625 472.120117188 350.16015625 c 6
 376.370117188 350 l 5
EndSplineSet
Validated: 524293
EndChar

StartChar: T
Encoding: 84 84 46
Width: 684
Flags: HW
LayerCount: 2
Fore
SplineSet
401.544921875 13.330078125 m 2
 401.544921875 0 401.544921875 0 388.21484375 0 c 2
 307.334960938 0 l 2
 294.004882812 0 294.004882812 0 294.004882812 13.330078125 c 2
 294.004882812 64.5400390625 l 2
 294.004882812 77.8701171875 294.004882812 77.8701171875 307.334960938 77.8701171875 c 2
 388.21484375 77.8701171875 l 2
 401.544921875 77.8701171875 401.544921875 77.8701171875 401.544921875 64.5400390625 c 2
 401.544921875 13.330078125 l 2
390.004882812 13.330078125 m 2
 390.004882812 0 390.004882812 0 376.674804688 0 c 2
 295.794921875 0 l 2
 282.46484375 0 282.46484375 0 282.46484375 13.330078125 c 2
 282.46484375 64.5400390625 l 2
 282.46484375 77.8701171875 282.46484375 77.8701171875 295.794921875 77.8701171875 c 2
 376.674804688 77.8701171875 l 2
 390.004882812 77.8701171875 390.004882812 77.8701171875 390.004882812 64.5400390625 c 2
 390.004882812 13.330078125 l 2
294.004882812 45.33984375 m 1
 294.004882812 755.4296875 l 1
 390.004882812 755.4296875 l 1
 390.004882812 45.33984375 l 1
 294.004882812 45.33984375 l 1
569.455078125 688.459960938 m 2
 556.125 688.459960938 556.125 688.459960938 556.125 701.790039062 c 2
 556.125 782.669921875 l 2
 556.125 796 556.125 796 569.455078125 796 c 2
 620.665039062 796 l 2
 633.995117188 796 633.995117188 796 633.995117188 782.669921875 c 2
 633.995117188 701.790039062 l 2
 633.995117188 688.459960938 633.995117188 688.459960938 620.665039062 688.459960938 c 2
 569.455078125 688.459960938 l 2
63.3349609375 688.459960938 m 2
 50.0048828125 688.459960938 50.0048828125 688.459960938 50.0048828125 701.790039062 c 2
 50.0048828125 782.669921875 l 2
 50.0048828125 796 50.0048828125 796 63.3349609375 796 c 2
 114.544921875 796 l 2
 127.875 796 127.875 796 127.875 782.669921875 c 2
 127.875 701.790039062 l 2
 127.875 688.459960938 127.875 688.459960938 114.544921875 688.459960938 c 2
 63.3349609375 688.459960938 l 2
112.334960938 796 m 1
 580.14453125 796 l 1
 580.14453125 700 l 1
 112.334960938 700 l 1
 112.334960938 796 l 1
EndSplineSet
Validated: 524293
EndChar

StartChar: U
Encoding: 85 85 47
Width: 733
Flags: HW
LayerCount: 2
Fore
SplineSet
550.959960938 782.669921875 m 6
 550.959960938 796 550.959960938 796 564.290039062 796 c 6
 645.169921875 796 l 6
 658.5 796 658.5 796 658.5 782.669921875 c 6
 658.5 731.459960938 l 6
 658.5 718.129882812 658.5 718.129882812 645.169921875 718.129882812 c 6
 564.290039062 718.129882812 l 6
 550.959960938 718.129882812 550.959960938 718.129882812 550.959960938 731.459960938 c 6
 550.959960938 782.669921875 l 6
74.5 782.669921875 m 6
 74.5 796 74.5 796 87.830078125 796 c 6
 168.709960938 796 l 6
 182.040039062 796 182.040039062 796 182.040039062 782.669921875 c 6
 182.040039062 731.459960938 l 6
 182.040039062 718.129882812 182.040039062 718.129882812 168.709960938 718.129882812 c 6
 87.830078125 718.129882812 l 6
 74.5 718.129882812 74.5 718.129882812 74.5 731.459960938 c 6
 74.5 782.669921875 l 6
562.5 733.190429688 m 5
 658.5 733.190429688 l 5
 658.5 158.379882812 l 6
 658.5 70.91015625 587.58984375 0 500.120117188 0 c 6
 232.879882812 0 l 6
 145.41015625 0 74.5 70.91015625 74.5 158.379882812 c 6
 74.5 733.190429688 l 5
 170.5 733.190429688 l 5
 170.5 158.379882812 l 6
 170.5 123.98046875 198.48046875 100 232.879882812 100 c 6
 500.120117188 100 l 6
 534.520507812 100 562.5 123.98046875 562.5 158.379882812 c 6
 562.5 733.190429688 l 5
EndSplineSet
Validated: 524293
EndChar

StartChar: V
Encoding: 86 86 48
Width: 678
Flags: HW
LayerCount: 2
Fore
SplineSet
415.405273438 13.330078125 m 2
 415.405273438 0 415.405273438 0 402.075195312 0 c 2
 321.1953125 0 l 2
 307.865234375 0 307.865234375 0 307.865234375 13.330078125 c 2
 307.865234375 64.5400390625 l 2
 307.865234375 77.8701171875 307.865234375 77.8701171875 321.1953125 77.8701171875 c 2
 402.075195312 77.8701171875 l 2
 415.405273438 77.8701171875 415.405273438 77.8701171875 415.405273438 64.5400390625 c 2
 415.405273438 13.330078125 l 2
370.065429688 13.330078125 m 2
 370.065429688 0 370.065429688 0 356.735351562 0 c 2
 275.85546875 0 l 2
 262.525390625 0 262.525390625 0 262.525390625 13.330078125 c 2
 262.525390625 64.5400390625 l 2
 262.525390625 77.8701171875 262.525390625 77.8701171875 275.85546875 77.8701171875 c 2
 356.735351562 77.8701171875 l 2
 370.065429688 77.8701171875 370.065429688 77.8701171875 370.065429688 64.5400390625 c 2
 370.065429688 13.330078125 l 2
154.53515625 731.459960938 m 2
 154.53515625 718.129882812 154.53515625 718.129882812 141.205078125 718.129882812 c 2
 60.3251953125 718.129882812 l 2
 46.9951171875 718.129882812 46.9951171875 718.129882812 46.9951171875 731.459960938 c 2
 46.9951171875 782.669921875 l 2
 46.9951171875 796 46.9951171875 796 60.3251953125 796 c 2
 141.205078125 796 l 2
 154.53515625 796 154.53515625 796 154.53515625 782.669921875 c 2
 154.53515625 731.459960938 l 2
631.004882812 731.459960938 m 2
 631.004882812 718.129882812 631.004882812 718.129882812 617.674804688 718.129882812 c 2
 536.794921875 718.129882812 l 2
 523.46484375 718.129882812 523.46484375 718.129882812 523.46484375 731.459960938 c 2
 523.46484375 782.669921875 l 2
 523.46484375 796 523.46484375 796 536.794921875 796 c 2
 617.674804688 796 l 2
 631.004882812 796 631.004882812 796 631.004882812 782.669921875 c 2
 631.004882812 731.459960938 l 2
317.174804688 16.2197265625 m 1
 526.275390625 777.209960938 l 1
 618.875 751.889648438 l 1
 415.004882812 9.919921875 l 1
 317.174804688 16.2197265625 l 1
263.10546875 9.5 m 1
 59.6953125 749.780273438 l 1
 151.775390625 777.01953125 l 1
 360.615234375 16.9599609375 l 1
 263.10546875 9.5 l 1
EndSplineSet
Validated: 524293
EndChar

StartChar: W
Encoding: 87 87 49
Width: 737
Flags: HW
LayerCount: 2
Fore
SplineSet
660.5 736.349609375 m 1
 660.5 35.76953125 l 1
 564.5 35.76953125 l 1
 564.5 736.349609375 l 1
 660.5 736.349609375 l 1
419.24609375 566.444335938 m 1
 660.498046875 39.990234375 l 1
 573.224609375 -0.0029296875 l 1
 331.97265625 526.451171875 l 1
 419.24609375 566.444335938 l 1
76.5 40 m 1
 319.580078125 570.4453125 l 1
 406.853515625 530.451171875 l 1
 163.771484375 0.005859375 l 1
 76.5 40 l 1
172.5 761.9296875 m 1
 172.5 35.76953125 l 1
 76.5 35.76953125 l 1
 76.5 761.9296875 l 1
 172.5 761.9296875 l 1
660.5 731.459960938 m 2
 660.5 718.129882812 660.5 718.129882812 647.169921875 718.129882812 c 2
 566.291015625 718.129882812 l 2
 552.9609375 718.129882812 552.9609375 718.129882812 552.9609375 731.459960938 c 2
 552.9609375 782.669921875 l 2
 552.9609375 796 552.9609375 796 566.291015625 796 c 2
 647.169921875 796 l 2
 660.5 796 660.5 796 660.5 782.669921875 c 2
 660.5 731.459960938 l 2
422.26953125 516.059570312 m 2
 422.26953125 502.73046875 422.26953125 502.73046875 408.94140625 502.73046875 c 2
 328.060546875 502.73046875 l 2
 314.73046875 502.73046875 314.73046875 502.73046875 314.73046875 516.059570312 c 2
 314.73046875 567.26953125 l 2
 314.73046875 580.599609375 314.73046875 580.599609375 328.060546875 580.599609375 c 2
 408.94140625 580.599609375 l 2
 422.26953125 580.599609375 422.26953125 580.599609375 422.26953125 567.26953125 c 2
 422.26953125 516.059570312 l 2
184.041015625 13.330078125 m 2
 184.041015625 0 184.041015625 0 170.7109375 0 c 2
 89.830078125 0 l 2
 76.5 0 76.5 0 76.5 13.330078125 c 2
 76.5 64.5400390625 l 2
 76.5 77.8701171875 76.5 77.8701171875 89.830078125 77.8701171875 c 2
 170.7109375 77.8701171875 l 2
 184.041015625 77.8701171875 184.041015625 77.8701171875 184.041015625 64.5400390625 c 2
 184.041015625 13.330078125 l 2
660.5 13.330078125 m 2
 660.5 0 660.5 0 647.169921875 0 c 2
 566.291015625 0 l 2
 552.9609375 0 552.9609375 0 552.9609375 13.330078125 c 2
 552.9609375 64.5400390625 l 2
 552.9609375 77.8701171875 552.9609375 77.8701171875 566.291015625 77.8701171875 c 2
 647.169921875 77.8701171875 l 2
 660.5 77.8701171875 660.5 77.8701171875 660.5 64.5400390625 c 2
 660.5 13.330078125 l 2
184.041015625 731.459960938 m 2
 184.041015625 718.129882812 184.041015625 718.129882812 170.7109375 718.129882812 c 2
 89.830078125 718.129882812 l 2
 76.5 718.129882812 76.5 718.129882812 76.5 731.459960938 c 2
 76.5 782.669921875 l 2
 76.5 796 76.5 796 89.830078125 796 c 2
 170.7109375 796 l 2
 184.041015625 796 184.041015625 796 184.041015625 782.669921875 c 2
 184.041015625 731.459960938 l 2
EndSplineSet
Validated: 524293
EndChar

StartChar: X
Encoding: 88 88 50
Width: 700
Flags: HW
LayerCount: 2
Fore
SplineSet
557.868164062 -0.3359375 m 1
 62.2919921875 742.749023438 l 1
 142.16015625 796.013671875 l 1
 637.736328125 52.9287109375 l 1
 557.868164062 -0.3359375 l 1
637.754882812 742.73046875 m 1
 142.178710938 -0.3544921875 l 1
 62.3115234375 52.91015625 l 1
 557.88671875 795.995117188 l 1
 637.754882812 742.73046875 l 1
58 64.3603515625 m 2
 58 77.6904296875 58 77.6904296875 71.330078125 77.6904296875 c 2
 152.209960938 77.6904296875 l 2
 165.540039062 77.6904296875 165.540039062 77.6904296875 165.540039062 64.3603515625 c 2
 165.540039062 13.150390625 l 2
 165.540039062 -0.1796875 165.540039062 -0.1796875 152.209960938 -0.1796875 c 2
 71.330078125 -0.1796875 l 2
 58 -0.1796875 58 -0.1796875 58 13.150390625 c 2
 58 64.3603515625 l 2
534.459960938 782.48046875 m 2
 534.459960938 795.809570312 534.459960938 795.809570312 547.790039062 795.809570312 c 2
 628.669921875 795.809570312 l 2
 642 795.809570312 642 795.809570312 642 782.48046875 c 2
 642 731.26953125 l 2
 642 717.940429688 642 717.940429688 628.669921875 717.940429688 c 2
 547.790039062 717.940429688 l 2
 534.459960938 717.940429688 534.459960938 717.940429688 534.459960938 731.26953125 c 2
 534.459960938 782.48046875 l 2
58 782.48046875 m 2
 58 795.809570312 58 795.809570312 71.330078125 795.809570312 c 2
 152.209960938 795.809570312 l 2
 165.540039062 795.809570312 165.540039062 795.809570312 165.540039062 782.48046875 c 2
 165.540039062 731.26953125 l 2
 165.540039062 717.940429688 165.540039062 717.940429688 152.209960938 717.940429688 c 2
 71.330078125 717.940429688 l 2
 58 717.940429688 58 717.940429688 58 731.26953125 c 2
 58 782.48046875 l 2
534.459960938 64.3603515625 m 2
 534.459960938 77.6904296875 534.459960938 77.6904296875 547.790039062 77.6904296875 c 2
 628.669921875 77.6904296875 l 2
 642 77.6904296875 642 77.6904296875 642 64.3603515625 c 2
 642 13.150390625 l 2
 642 -0.1796875 642 -0.1796875 628.669921875 -0.1796875 c 2
 547.790039062 -0.1796875 l 2
 534.459960938 -0.1796875 534.459960938 -0.1796875 534.459960938 13.150390625 c 2
 534.459960938 64.3603515625 l 2
EndSplineSet
Validated: 524293
EndChar

StartChar: Y
Encoding: 89 89 51
Width: 678
Flags: HW
LayerCount: 2
Fore
SplineSet
398.540039062 13.330078125 m 2
 398.540039062 0 398.540039062 0 385.209960938 0 c 2
 304.330078125 0 l 2
 291 0 291 0 291 13.330078125 c 2
 291 64.5400390625 l 2
 291 77.8701171875 291 77.8701171875 304.330078125 77.8701171875 c 2
 385.209960938 77.8701171875 l 2
 398.540039062 77.8701171875 398.540039062 77.8701171875 398.540039062 64.5400390625 c 2
 398.540039062 13.330078125 l 2
387 13.330078125 m 2
 387 0 387 0 373.669921875 0 c 2
 292.790039062 0 l 2
 279.459960938 0 279.459960938 0 279.459960938 13.330078125 c 2
 279.459960938 64.5400390625 l 2
 279.459960938 77.8701171875 279.459960938 77.8701171875 292.790039062 77.8701171875 c 2
 373.669921875 77.8701171875 l 2
 387 77.8701171875 387 77.8701171875 387 64.5400390625 c 2
 387 13.330078125 l 2
291 45.330078125 m 1
 291 348.849609375 l 1
 387 348.849609375 l 1
 387 45.330078125 l 1
 291 45.330078125 l 1
616.342773438 747.01953125 m 1
 371.092773438 322.234375 l 1
 287.954101562 370.234375 l 1
 533.204101562 795.01953125 l 1
 616.342773438 747.01953125 l 1
305.4609375 322.228515625 m 1
 61.666015625 744.494140625 l 1
 144.8046875 792.494140625 l 1
 388.599609375 370.228515625 l 1
 305.4609375 322.228515625 l 1
631 731.459960938 m 2
 631 718.129882812 631 718.129882812 617.669921875 718.129882812 c 2
 536.790039062 718.129882812 l 2
 523.459960938 718.129882812 523.459960938 718.129882812 523.459960938 731.459960938 c 2
 523.459960938 782.669921875 l 2
 523.459960938 796 523.459960938 796 536.790039062 796 c 2
 617.669921875 796 l 2
 631 796 631 796 631 782.669921875 c 2
 631 731.459960938 l 2
154.540039062 731.459960938 m 2
 154.540039062 718.129882812 154.540039062 718.129882812 141.209960938 718.129882812 c 2
 60.330078125 718.129882812 l 2
 47 718.129882812 47 718.129882812 47 731.459960938 c 2
 47 782.669921875 l 2
 47 796 47 796 60.330078125 796 c 2
 141.209960938 796 l 2
 154.540039062 796 154.540039062 796 154.540039062 782.669921875 c 2
 154.540039062 731.459960938 l 2
EndSplineSet
Validated: 524293
EndChar

StartChar: Z
Encoding: 90 90 52
Width: 712
Flags: HW
LayerCount: 2
Fore
SplineSet
591.865234375 700 m 1
 113.924804688 700 l 1
 113.924804688 796 l 1
 591.865234375 796 l 1
 591.865234375 700 l 1
641.254882812 703.184570312 m 1
 154.494140625 39.8125 l 1
 77.0947265625 96.6044921875 l 1
 563.856445312 759.977539062 l 1
 641.254882812 703.184570312 l 1
586.14453125 -0.009765625 m 1
 113.924804688 -0.009765625 l 1
 113.924804688 95.990234375 l 1
 586.14453125 95.990234375 l 1
 586.14453125 -0.009765625 l 1
77.3349609375 688.459960938 m 2
 64.0048828125 688.459960938 64.0048828125 688.459960938 64.0048828125 701.790039062 c 2
 64.0048828125 782.669921875 l 2
 64.0048828125 796 64.0048828125 796 77.3349609375 796 c 2
 128.544921875 796 l 2
 141.875 796 141.875 796 141.875 782.669921875 c 2
 141.875 701.790039062 l 2
 141.875 688.459960938 141.875 688.459960938 128.544921875 688.459960938 c 2
 77.3349609375 688.459960938 l 2
583.455078125 0 m 2
 570.125 0 570.125 0 570.125 13.330078125 c 2
 570.125 94.2099609375 l 2
 570.125 107.540039062 570.125 107.540039062 583.455078125 107.540039062 c 2
 634.665039062 107.540039062 l 2
 647.995117188 107.540039062 647.995117188 107.540039062 647.995117188 94.2099609375 c 2
 647.995117188 13.330078125 l 2
 647.995117188 0 647.995117188 0 634.665039062 0 c 2
 583.455078125 0 l 2
77.3349609375 0 m 2
 64.0048828125 0 64.0048828125 0 64.0048828125 13.330078125 c 2
 64.0048828125 94.2099609375 l 2
 64.0048828125 107.540039062 64.0048828125 107.540039062 77.3349609375 107.540039062 c 2
 128.544921875 107.540039062 l 2
 141.875 107.540039062 141.875 107.540039062 141.875 94.2099609375 c 2
 141.875 13.330078125 l 2
 141.875 0 141.875 0 128.544921875 0 c 2
 77.3349609375 0 l 2
583.455078125 688.459960938 m 2
 570.125 688.459960938 570.125 688.459960938 570.125 701.790039062 c 2
 570.125 782.669921875 l 2
 570.125 796 570.125 796 583.455078125 796 c 2
 634.665039062 796 l 2
 647.995117188 796 647.995117188 796 647.995117188 782.669921875 c 2
 647.995117188 701.790039062 l 2
 647.995117188 688.459960938 647.995117188 688.459960938 634.665039062 688.459960938 c 2
 583.455078125 688.459960938 l 2
EndSplineSet
Validated: 524293
EndChar

StartChar: bracketleft
Encoding: 91 91 53
Width: 625
Flags: HW
LayerCount: 2
Fore
SplineSet
157 35 m 1
 157 753.129882812 l 1
 253 753.129882812 l 1
 253 35 l 1
 157 35 l 1
183.150390625 796 m 1
 426.21875 796 l 1
 426.21875 700 l 1
 183.150390625 700 l 1
 183.150390625 796 l 1
183.150390625 96.009765625 m 1
 426.21875 96.009765625 l 1
 426.21875 0.009765625 l 1
 183.150390625 0.009765625 l 1
 183.150390625 96.009765625 l 1
390.939453125 94.2099609375 m 2
 390.939453125 107.540039062 390.939453125 107.540039062 404.26953125 107.540039062 c 2
 455.48046875 107.540039062 l 2
 468.80859375 107.540039062 468.80859375 107.540039062 468.80859375 94.2099609375 c 2
 468.80859375 13.330078125 l 2
 468.80859375 0 468.80859375 0 455.48046875 0 c 2
 404.26953125 0 l 2
 390.939453125 0 390.939453125 0 390.939453125 13.330078125 c 2
 390.939453125 94.2099609375 l 2
157 94.2099609375 m 2
 157 107.540039062 157 107.540039062 170.330078125 107.540039062 c 2
 221.5390625 107.540039062 l 2
 234.869140625 107.540039062 234.869140625 107.540039062 234.869140625 94.2099609375 c 2
 234.869140625 13.330078125 l 2
 234.869140625 0 234.869140625 0 221.5390625 0 c 2
 170.330078125 0 l 2
 157 0 157 0 157 13.330078125 c 2
 157 94.2099609375 l 2
390.939453125 782.669921875 m 2
 390.939453125 796 390.939453125 796 404.26953125 796 c 2
 455.48046875 796 l 2
 468.80859375 796 468.80859375 796 468.80859375 782.669921875 c 2
 468.80859375 701.790039062 l 2
 468.80859375 688.459960938 468.80859375 688.459960938 455.48046875 688.459960938 c 2
 404.26953125 688.459960938 l 2
 390.939453125 688.459960938 390.939453125 688.459960938 390.939453125 701.790039062 c 2
 390.939453125 782.669921875 l 2
157 782.669921875 m 2
 157 796 157 796 170.330078125 796 c 2
 221.5390625 796 l 2
 234.869140625 796 234.869140625 796 234.869140625 782.669921875 c 2
 234.869140625 701.790039062 l 2
 234.869140625 688.459960938 234.869140625 688.459960938 221.5390625 688.459960938 c 2
 170.330078125 688.459960938 l 2
 157 688.459960938 157 688.459960938 157 701.790039062 c 2
 157 782.669921875 l 2
EndSplineSet
Validated: 524293
EndChar

StartChar: backslash
Encoding: 92 92 54
Width: 782
Flags: HW
LayerCount: 2
Fore
SplineSet
264.540039062 731.459960938 m 2
 264.540039062 718.129882812 264.540039062 718.129882812 251.209960938 718.129882812 c 2
 170.330078125 718.129882812 l 2
 157 718.129882812 157 718.129882812 157 731.459960938 c 2
 157 782.669921875 l 2
 157 796 157 796 170.330078125 796 c 2
 251.209960938 796 l 2
 264.540039062 796 264.540039062 796 264.540039062 782.669921875 c 2
 264.540039062 731.459960938 l 2
517.459960938 64.5400390625 m 2
 517.459960938 77.8701171875 517.459960938 77.8701171875 530.790039062 77.8701171875 c 2
 611.669921875 77.8701171875 l 2
 625 77.8701171875 625 77.8701171875 625 64.5400390625 c 2
 625 13.330078125 l 2
 625 0 625 0 611.669921875 0 c 2
 530.790039062 0 l 2
 517.459960938 0 517.459960938 0 517.459960938 13.330078125 c 2
 517.459960938 64.5400390625 l 2
520.240234375 10.490234375 m 1
 173.141601562 748.446289062 l 1
 260.01171875 789.305664062 l 1
 607.110351562 51.349609375 l 1
 520.240234375 10.490234375 l 1
EndSplineSet
Validated: 524293
EndChar

StartChar: bracketright
Encoding: 93 93 55
Width: 625
Flags: HW
LayerCount: 2
Fore
SplineSet
468.798828125 753.120117188 m 1
 468.798828125 34.990234375 l 1
 372.798828125 34.990234375 l 1
 372.798828125 753.120117188 l 1
 468.798828125 753.120117188 l 1
199.599609375 796 m 1
 442.669921875 796 l 1
 442.669921875 700 l 1
 199.599609375 700 l 1
 199.599609375 796 l 1
199.599609375 96 m 1
 442.669921875 96 l 1
 442.669921875 0 l 1
 199.599609375 0 l 1
 199.599609375 96 l 1
157 94.2099609375 m 2
 157 107.540039062 157 107.540039062 170.330078125 107.540039062 c 2
 221.5390625 107.540039062 l 2
 234.869140625 107.540039062 234.869140625 107.540039062 234.869140625 94.2099609375 c 2
 234.869140625 13.330078125 l 2
 234.869140625 0 234.869140625 0 221.5390625 0 c 2
 170.330078125 0 l 2
 157 0 157 0 157 13.330078125 c 2
 157 94.2099609375 l 2
390.939453125 94.2099609375 m 2
 390.939453125 107.540039062 390.939453125 107.540039062 404.26953125 107.540039062 c 2
 455.48046875 107.540039062 l 2
 468.80859375 107.540039062 468.80859375 107.540039062 468.80859375 94.2099609375 c 2
 468.80859375 13.330078125 l 2
 468.80859375 0 468.80859375 0 455.48046875 0 c 2
 404.26953125 0 l 2
 390.939453125 0 390.939453125 0 390.939453125 13.330078125 c 2
 390.939453125 94.2099609375 l 2
157 782.669921875 m 2
 157 796 157 796 170.330078125 796 c 2
 221.5390625 796 l 2
 234.869140625 796 234.869140625 796 234.869140625 782.669921875 c 2
 234.869140625 701.790039062 l 2
 234.869140625 688.459960938 234.869140625 688.459960938 221.5390625 688.459960938 c 2
 170.330078125 688.459960938 l 2
 157 688.459960938 157 688.459960938 157 701.790039062 c 2
 157 782.669921875 l 2
390.939453125 782.669921875 m 2
 390.939453125 796 390.939453125 796 404.26953125 796 c 2
 455.48046875 796 l 2
 468.80859375 796 468.80859375 796 468.80859375 782.669921875 c 2
 468.80859375 701.790039062 l 2
 468.80859375 688.459960938 468.80859375 688.459960938 455.48046875 688.459960938 c 2
 404.26953125 688.459960938 l 2
 390.939453125 688.459960938 390.939453125 688.459960938 390.939453125 701.790039062 c 2
 390.939453125 782.669921875 l 2
EndSplineSet
Validated: 524293
EndChar

StartChar: asciicircum
Encoding: 94 94 56
Width: 644
Flags: HW
LayerCount: 2
Fore
SplineSet
369.094726562 750.987304688 m 5
 247.06640625 470.208984375 l 5
 159.022460938 508.47265625 l 5
 281.049804688 789.251953125 l 5
 369.094726562 750.987304688 l 5
397.85546875 469.330078125 m 5
 275.827148438 750.108398438 l 5
 363.872070312 788.373046875 l 5
 485.899414062 507.59375 l 5
 397.85546875 469.330078125 l 5
268.790039062 782.669921875 m 6
 268.790039062 796 268.790039062 796 282.120117188 796 c 6
 362.790039062 796 l 6
 376.120117188 796 376.120117188 796 376.120117188 782.669921875 c 6
 376.120117188 721.459960938 l 6
 376.120117188 708.129882812 376.120117188 708.129882812 362.790039062 708.129882812 c 6
 282.120117188 708.129882812 l 6
 268.790039062 708.129882812 268.790039062 708.129882812 268.790039062 721.459960938 c 6
 268.790039062 782.669921875 l 6
380.370117188 502.389648438 m 6
 380.370117188 515.719726562 380.370117188 515.719726562 393.700195312 515.719726562 c 6
 474.580078125 515.719726562 l 6
 487.91015625 515.719726562 487.91015625 515.719726562 487.91015625 502.389648438 c 6
 487.91015625 451.1796875 l 6
 487.91015625 437.849609375 487.91015625 437.849609375 474.580078125 437.849609375 c 6
 393.700195312 437.849609375 l 6
 380.370117188 437.849609375 380.370117188 437.849609375 380.370117188 451.1796875 c 6
 380.370117188 502.389648438 l 6
157 502.389648438 m 6
 157 515.719726562 157 515.719726562 170.330078125 515.719726562 c 6
 251.209960938 515.719726562 l 6
 264.540039062 515.719726562 264.540039062 515.719726562 264.540039062 502.389648438 c 6
 264.540039062 451.1796875 l 6
 264.540039062 437.849609375 264.540039062 437.849609375 251.209960938 437.849609375 c 6
 170.330078125 437.849609375 l 6
 157 437.849609375 157 437.849609375 157 451.1796875 c 6
 157 502.389648438 l 6
EndSplineSet
Validated: 524293
EndChar

StartChar: underscore
Encoding: 95 95 57
Width: 782
Flags: HW
LayerCount: 2
Fore
SplineSet
560.459960938 0 m 2
 547.129882812 0 547.129882812 0 547.129882812 13.330078125 c 2
 547.129882812 94.2099609375 l 2
 547.129882812 107.540039062 547.129882812 107.540039062 560.459960938 107.540039062 c 2
 611.669921875 107.540039062 l 2
 625 107.540039062 625 107.540039062 625 94.2099609375 c 2
 625 13.330078125 l 2
 625 0 625 0 611.669921875 0 c 2
 560.459960938 0 l 2
170.330078125 0 m 2
 157 0 157 0 157 13.330078125 c 2
 157 94.2099609375 l 2
 157 107.540039062 157 107.540039062 170.330078125 107.540039062 c 2
 221.540039062 107.540039062 l 2
 234.870117188 107.540039062 234.870117188 107.540039062 234.870117188 94.2099609375 c 2
 234.870117188 13.330078125 l 2
 234.870117188 0 234.870117188 0 221.540039062 0 c 2
 170.330078125 0 l 2
583.360351562 0 m 1
 187.169921875 0 l 1
 187.169921875 96 l 1
 583.360351562 96 l 1
 583.360351562 0 l 1
EndSplineSet
Validated: 524293
EndChar

StartChar: grave
Encoding: 96 96 58
Width: 563
Flags: HW
LayerCount: 2
Fore
SplineSet
157 763.9296875 m 1
 157.010742188 763.9296875 l 1
 157.010742188 781.639648438 171.370117188 796 189.080078125 796 c 2
 284.940429688 796 l 2
 302.650390625 796 317 781.639648438 317 763.9296875 c 2
 317 668.059570312 l 2
 317 650.349609375 302.640625 635.990234375 284.930664062 635.990234375 c 1
 189.0703125 672.01953125 l 1
 171.360351562 672.01953125 157 686.379882812 157 704.08984375 c 2
 157 763.9296875 l 1
187.73046875 709.360351562 m 1
 187.720703125 709.360351562 l 1
 187.720703125 714.120117188 202.080078125 728.48046875 219.790039062 728.48046875 c 1
 256.990234375 786.0703125 l 1
 274.700195312 786.0703125 299.310546875 805.240234375 315.120117188 774.450195312 c 2
 406.08984375 568.26953125 l 2
 412.120117188 547.540039062 382.790039062 530.389648438 367.040039062 546.139648438 c 1
 174.060546875 675.759765625 l 2
 160.80078125 689.440429688 187.73046875 678.849609375 187.73046875 696.75 c 2
 187.73046875 709.360351562 l 1
EndSplineSet
Validated: 524325
EndChar

StartChar: period
Encoding: 46 46 59
Width: 474
Flags: HW
LayerCount: 2
Fore
SplineSet
189.069335938 0 m 6
 157 0 157 0 157 32.0703125 c 6
 157 127.9296875 l 6
 157 160 157 160 189.069335938 160 c 6
 284.9296875 160 l 6
 317 160 317 160 317 127.9296875 c 6
 317 32.0703125 l 6
 317 0 317 0 284.9296875 0 c 6
 189.069335938 0 l 6
EndSplineSet
Validated: 524289
EndChar

StartChar: hyphen
Encoding: 45 45 60
Width: 781
Flags: HW
LayerCount: 2
Fore
SplineSet
560.450195312 230.23046875 m 2
 547.120117188 230.23046875 547.120117188 230.23046875 547.120117188 243.559570312 c 2
 547.120117188 324.440429688 l 2
 547.120117188 337.76953125 547.120117188 337.76953125 560.450195312 337.76953125 c 2
 611.66015625 337.76953125 l 2
 624.990234375 337.76953125 624.990234375 337.76953125 624.990234375 324.440429688 c 2
 624.990234375 243.559570312 l 2
 624.990234375 230.23046875 624.990234375 230.23046875 611.66015625 230.23046875 c 2
 560.450195312 230.23046875 l 2
170.330078125 230.23046875 m 2
 157 230.23046875 157 230.23046875 157 243.559570312 c 2
 157 324.440429688 l 2
 157 337.76953125 157 337.76953125 170.330078125 337.76953125 c 2
 221.540039062 337.76953125 l 2
 234.870117188 337.76953125 234.870117188 337.76953125 234.870117188 324.440429688 c 2
 234.870117188 243.559570312 l 2
 234.870117188 230.23046875 234.870117188 230.23046875 221.540039062 230.23046875 c 2
 170.330078125 230.23046875 l 2
583.360351562 236 m 1
 187.169921875 236 l 1
 187.169921875 332 l 1
 583.360351562 332 l 1
 583.360351562 236 l 1
EndSplineSet
Validated: 524293
EndChar

StartChar: zero
Encoding: 48 48 62
Width: 723
Flags: HW
LayerCount: 2
Fore
SplineSet
495.120117188 696 m 6
 227.879882812 696 l 6
 193.48046875 696 165.5 672.01953125 165.5 637.620117188 c 6
 165.5 158.379882812 l 6
 165.5 123.98046875 193.48046875 100 227.879882812 100 c 6
 495.120117188 100 l 6
 529.520507812 100 557.5 123.98046875 557.5 158.379882812 c 6
 557.5 637.620117188 l 6
 557.5 672.01953125 529.520507812 696 495.120117188 696 c 6
495.120117188 796 m 5
 582.58984375 796 653.5 725.08984375 653.5 637.620117188 c 6
 653.5 158.379882812 l 6
 653.5 70.91015625 582.58984375 0 495.120117188 0 c 6
 227.879882812 0 l 6
 140.41015625 0 69.5 70.91015625 69.5 158.379882812 c 6
 69.5 637.620117188 l 6
 69.5 725.08984375 140.41015625 796 227.879882812 796 c 6
 495.120117188 796 l 5
90.2216796875 167.803710938 m 5
 560.130859375 692.26171875 l 5
 631.62890625 628.19921875 l 5
 161.720703125 103.7421875 l 5
 90.2216796875 167.803710938 l 5
EndSplineSet
Validated: 524293
EndChar

StartChar: plus
Encoding: 43 43 63
Width: 782
Flags: HW
LayerCount: 2
Fore
SplineSet
560.459960938 230.23046875 m 2
 547.129882812 230.23046875 547.129882812 230.23046875 547.129882812 243.559570312 c 2
 547.129882812 324.440429688 l 2
 547.129882812 337.76953125 547.129882812 337.76953125 560.459960938 337.76953125 c 2
 611.669921875 337.76953125 l 2
 625 337.76953125 625 337.76953125 625 324.440429688 c 2
 625 243.559570312 l 2
 625 230.23046875 625 230.23046875 611.669921875 230.23046875 c 2
 560.459960938 230.23046875 l 2
170.330078125 230.23046875 m 2
 157 230.23046875 157 230.23046875 157 243.559570312 c 2
 157 324.440429688 l 2
 157 337.76953125 157 337.76953125 170.330078125 337.76953125 c 2
 221.540039062 337.76953125 l 2
 234.870117188 337.76953125 234.870117188 337.76953125 234.870117188 324.440429688 c 2
 234.870117188 243.559570312 l 2
 234.870117188 230.23046875 234.870117188 230.23046875 221.540039062 230.23046875 c 2
 170.330078125 230.23046875 l 2
583.360351562 236 m 1
 187.169921875 236 l 1
 187.169921875 332 l 1
 583.360351562 332 l 1
 583.360351562 236 l 1
337.23046875 114.540039062 m 2
 337.23046875 127.870117188 337.23046875 127.870117188 350.559570312 127.870117188 c 2
 431.440429688 127.870117188 l 2
 444.76953125 127.870117188 444.76953125 127.870117188 444.76953125 114.540039062 c 2
 444.76953125 63.330078125 l 2
 444.76953125 50 444.76953125 50 431.440429688 50 c 2
 350.559570312 50 l 2
 337.23046875 50 337.23046875 50 337.23046875 63.330078125 c 2
 337.23046875 114.540039062 l 2
337.23046875 504.669921875 m 2
 337.23046875 518 337.23046875 518 350.559570312 518 c 2
 431.440429688 518 l 2
 444.76953125 518 444.76953125 518 444.76953125 504.669921875 c 2
 444.76953125 453.459960938 l 2
 444.76953125 440.129882812 444.76953125 440.129882812 431.440429688 440.129882812 c 2
 350.559570312 440.129882812 l 2
 337.23046875 440.129882812 337.23046875 440.129882812 337.23046875 453.459960938 c 2
 337.23046875 504.669921875 l 2
343 91.6396484375 m 1
 343 487.830078125 l 1
 439 487.830078125 l 1
 439 91.6396484375 l 1
 343 91.6396484375 l 1
EndSplineSet
Validated: 524293
EndChar

StartChar: slash
Encoding: 47 47 64
Width: 782
Flags: HW
LayerCount: 2
Fore
SplineSet
264.540039062 13.330078125 m 2
 264.540039062 0 264.540039062 0 251.209960938 0 c 2
 170.330078125 0 l 2
 157 0 157 0 157 13.330078125 c 2
 157 64.5400390625 l 2
 157 77.8701171875 157 77.8701171875 170.330078125 77.8701171875 c 2
 251.209960938 77.8701171875 l 2
 264.540039062 77.8701171875 264.540039062 77.8701171875 264.540039062 64.5400390625 c 2
 264.540039062 13.330078125 l 2
517.459960938 782.669921875 m 2
 517.459960938 796 517.459960938 796 530.790039062 796 c 2
 611.669921875 796 l 2
 625 796 625 796 625 782.669921875 c 2
 625 731.459960938 l 2
 625 718.129882812 625 718.129882812 611.669921875 718.129882812 c 2
 530.790039062 718.129882812 l 2
 517.459960938 718.129882812 517.459960938 718.129882812 517.459960938 731.459960938 c 2
 517.459960938 782.669921875 l 2
173.157226562 47.5517578125 m 1
 520.255859375 785.5078125 l 1
 607.125976562 744.6484375 l 1
 260.02734375 6.6923828125 l 1
 173.157226562 47.5517578125 l 1
EndSplineSet
Validated: 524293
EndChar

StartChar: colon
Encoding: 58 58 65
Width: 474
Flags: HW
LayerCount: 2
Fore
SplineSet
189.069335938 0 m 6
 157 0 157 0 157 32.0703125 c 6
 157 127.9296875 l 6
 157 160 157 160 189.069335938 160 c 6
 284.9296875 160 l 6
 317 160 317 160 317 127.9296875 c 6
 317 32.0703125 l 6
 317 0 317 0 284.9296875 0 c 6
 189.069335938 0 l 6
189.069335938 398 m 6
 157 398 157 398 157 430.0703125 c 6
 157 525.9296875 l 6
 157 558 157 558 189.069335938 558 c 6
 284.9296875 558 l 6
 317 558 317 558 317 525.9296875 c 6
 317 430.0703125 l 6
 317 398 317 398 284.9296875 398 c 6
 189.069335938 398 l 6
EndSplineSet
Validated: 524289
EndChar

StartChar: semicolon
Encoding: 59 59 66
Width: 533
Flags: HW
LayerCount: 2
Fore
SplineSet
248.245117188 398.009765625 m 2
 216.174804688 398.009765625 216.174804688 398.009765625 216.174804688 430.080078125 c 2
 216.174804688 525.940429688 l 2
 216.174804688 558.009765625 216.174804688 558.009765625 248.245117188 558.009765625 c 2
 344.10546875 558.009765625 l 2
 376.174804688 558.009765625 376.174804688 558.009765625 376.174804688 525.940429688 c 2
 376.174804688 430.080078125 l 2
 376.174804688 398.009765625 376.174804688 398.009765625 344.10546875 398.009765625 c 2
 248.245117188 398.009765625 l 2
376.165039062 127.9296875 m 1
 376.165039062 68.08984375 l 2
 376.165039062 50.3798828125 361.8046875 36.01953125 344.094726562 36.01953125 c 1
 248.235351562 -0.009765625 l 1
 230.525390625 -0.009765625 216.165039062 14.349609375 216.165039062 32.0595703125 c 2
 216.165039062 127.919921875 l 2
 216.165039062 145.629882812 230.525390625 159.990234375 248.235351562 159.990234375 c 2
 344.094726562 159.990234375 l 2
 361.8046875 159.990234375 376.165039062 145.629882812 376.165039062 127.919921875 c 1
 376.165039062 127.9296875 l 1
376.165039062 73.3603515625 m 1
 376.165039062 60.75 l 2
 376.165039062 42.849609375 376.28515625 42.849609375 360.974609375 29.6298828125 c 2
 196.85546875 -89.8603515625 l 2
 181.10546875 -105.610351562 151.775390625 -88.4599609375 157.8046875 -67.73046875 c 2
 216.174804688 60.41015625 l 1
 216.174804688 78.1201171875 230.53515625 92.48046875 248.245117188 92.48046875 c 2
 344.10546875 92.48046875 l 2
 361.815429688 92.48046875 376.174804688 78.1201171875 376.174804688 73.3603515625 c 1
 376.165039062 73.3603515625 l 1
EndSplineSet
Validated: 524325
EndChar

StartChar: exclam
Encoding: 33 33 67
Width: 474
Flags: HW
LayerCount: 2
Fore
SplineSet
189.0703125 0 m 2
 157 0 157 0 157 32.0703125 c 2
 157 127.9296875 l 2
 157 160 157 160 189.0703125 160 c 2
 284.9296875 160 l 2
 317 160 317 160 317 127.9296875 c 2
 317 32.0703125 l 2
 317 0 317 0 284.9296875 0 c 2
 189.0703125 0 l 2
189.0703125 636 m 2
 157 636 157 636 157 668.0703125 c 2
 157 763.9296875 l 2
 157 796 157 796 189.0703125 796 c 2
 284.9296875 796 l 2
 317 796 317 796 317 763.9296875 c 2
 317 668.0703125 l 2
 317 636 317 636 284.9296875 636 c 2
 189.0703125 636 l 2
285 278.669921875 m 1
 189 278.669921875 l 1
 157 667.650390625 l 1
 317 667.650390625 l 1
 285 278.669921875 l 1
285 279.8203125 m 2
 285 266.490234375 285 266.490234375 271.669921875 266.490234375 c 2
 202.330078125 266.490234375 l 2
 189 266.490234375 189 266.490234375 189 279.8203125 c 2
 189 331.030273438 l 2
 189 344.360351562 189 344.360351562 202.330078125 344.360351562 c 2
 271.669921875 344.360351562 l 2
 285 344.360351562 285 344.360351562 285 331.030273438 c 2
 285 279.8203125 l 2
EndSplineSet
Validated: 524293
EndChar

StartChar: quotesingle
Encoding: 39 39 68
Width: 421
Flags: HW
LayerCount: 2
Fore
SplineSet
157 782.669921875 m 2
 157 796 157 796 170.330078125 796 c 2
 251.208984375 796 l 2
 264.5390625 796 264.5390625 796 264.5390625 782.669921875 c 2
 264.5390625 731.459960938 l 2
 264.5390625 718.129882812 264.5390625 718.129882812 251.208984375 718.129882812 c 2
 170.330078125 718.129882812 l 2
 157 718.129882812 157 718.129882812 157 731.459960938 c 2
 157 782.669921875 l 2
194.400390625 539.990234375 m 2
 181.0703125 539.990234375 181.0703125 539.990234375 181.0703125 553.3203125 c 2
 181.0703125 561.870117188 l 2
 181.0703125 575.200195312 181.0703125 575.200195312 194.400390625 575.200195312 c 2
 227.138671875 575.200195312 l 2
 240.46875 575.200195312 240.46875 575.200195312 240.46875 561.870117188 c 2
 240.46875 553.3203125 l 2
 240.46875 539.990234375 240.46875 539.990234375 227.138671875 539.990234375 c 2
 194.400390625 539.990234375 l 2
240.41015625 552.080078125 m 1
 181.12890625 552.080078125 l 1
 157 731.26953125 l 1
 264.5390625 731.26953125 l 1
 240.41015625 552.080078125 l 1
EndSplineSet
Validated: 524293
EndChar

StartChar: quotedbl
Encoding: 34 34 69
Width: 601
Flags: HW
LayerCount: 2
Fore
SplineSet
337.23046875 782.669921875 m 2
 337.23046875 796 337.23046875 796 350.559570312 796 c 2
 431.440429688 796 l 2
 444.76953125 796 444.76953125 796 444.76953125 782.669921875 c 2
 444.76953125 731.459960938 l 2
 444.76953125 718.129882812 444.76953125 718.129882812 431.440429688 718.129882812 c 2
 350.559570312 718.129882812 l 2
 337.23046875 718.129882812 337.23046875 718.129882812 337.23046875 731.459960938 c 2
 337.23046875 782.669921875 l 2
374.629882812 540 m 2
 361.299804688 540 361.299804688 540 361.299804688 553.330078125 c 2
 361.299804688 561.879882812 l 2
 361.299804688 575.209960938 361.299804688 575.209960938 374.629882812 575.209960938 c 2
 407.370117188 575.209960938 l 2
 420.700195312 575.209960938 420.700195312 575.209960938 420.700195312 561.879882812 c 2
 420.700195312 553.330078125 l 2
 420.700195312 540 420.700195312 540 407.370117188 540 c 2
 374.629882812 540 l 2
420.639648438 552.080078125 m 1
 361.360351562 552.080078125 l 1
 337.23046875 731.26953125 l 1
 444.76953125 731.26953125 l 1
 420.639648438 552.080078125 l 1
157 782.669921875 m 2
 157 796 157 796 170.330078125 796 c 2
 251.209960938 796 l 2
 264.540039062 796 264.540039062 796 264.540039062 782.669921875 c 2
 264.540039062 731.459960938 l 2
 264.540039062 718.129882812 264.540039062 718.129882812 251.209960938 718.129882812 c 2
 170.330078125 718.129882812 l 2
 157 718.129882812 157 718.129882812 157 731.459960938 c 2
 157 782.669921875 l 2
194.400390625 539.990234375 m 2
 181.0703125 539.990234375 181.0703125 539.990234375 181.0703125 553.3203125 c 2
 181.0703125 561.870117188 l 2
 181.0703125 575.200195312 181.0703125 575.200195312 194.400390625 575.200195312 c 2
 227.139648438 575.200195312 l 2
 240.469726562 575.200195312 240.469726562 575.200195312 240.469726562 561.870117188 c 2
 240.469726562 553.3203125 l 2
 240.469726562 539.990234375 240.469726562 539.990234375 227.139648438 539.990234375 c 2
 194.400390625 539.990234375 l 2
240.41015625 552.080078125 m 1
 181.129882812 552.080078125 l 1
 157 731.26953125 l 1
 264.540039062 731.26953125 l 1
 240.41015625 552.080078125 l 1
EndSplineSet
Validated: 524293
EndChar

StartChar: numbersign
Encoding: 35 35 70
Width: 898
Flags: HW
LayerCount: 2
Fore
SplineSet
176.83984375 200.690429688 m 5
 176.83984375 296.690429688 l 5
 653.049804688 296.690429688 l 5
 653.049804688 200.690429688 l 5
 176.83984375 200.690429688 l 5
157 294.900390625 m 6
 157 308.23046875 157 308.23046875 170.330078125 308.23046875 c 6
 221.540039062 308.23046875 l 6
 234.870117188 308.23046875 234.870117188 308.23046875 234.870117188 294.900390625 c 6
 234.870117188 214.01953125 l 6
 234.870117188 200.690429688 234.870117188 200.690429688 221.540039062 200.690429688 c 6
 170.330078125 200.690429688 l 6
 157 200.690429688 157 200.690429688 157 214.01953125 c 6
 157 294.900390625 l 6
625 294.900390625 m 6
 625 308.23046875 625 308.23046875 638.330078125 308.23046875 c 6
 689.540039062 308.23046875 l 6
 702.870117188 308.23046875 702.870117188 308.23046875 702.870117188 294.900390625 c 6
 702.870117188 214.01953125 l 6
 702.870117188 200.690429688 702.870117188 200.690429688 689.540039062 200.690429688 c 6
 638.330078125 200.690429688 l 6
 625 200.690429688 625 200.690429688 625 214.01953125 c 6
 625 294.900390625 l 6
214.969726562 487.76953125 m 5
 214.969726562 583.76953125 l 5
 691.1796875 583.76953125 l 5
 691.1796875 487.76953125 l 5
 214.969726562 487.76953125 l 5
195.129882812 581.98046875 m 6
 195.129882812 595.309570312 195.129882812 595.309570312 208.459960938 595.309570312 c 6
 259.669921875 595.309570312 l 6
 273 595.309570312 273 595.309570312 273 581.98046875 c 6
 273 501.099609375 l 6
 273 487.76953125 273 487.76953125 259.669921875 487.76953125 c 6
 208.459960938 487.76953125 l 6
 195.129882812 487.76953125 195.129882812 487.76953125 195.129882812 501.099609375 c 6
 195.129882812 581.98046875 l 6
663.129882812 581.98046875 m 6
 663.129882812 595.309570312 663.129882812 595.309570312 676.459960938 595.309570312 c 6
 727.669921875 595.309570312 l 6
 741 595.309570312 741 595.309570312 741 581.98046875 c 6
 741 501.099609375 l 6
 741 487.76953125 741 487.76953125 727.669921875 487.76953125 c 6
 676.459960938 487.76953125 l 6
 663.129882812 487.76953125 663.129882812 487.76953125 663.129882812 501.099609375 c 6
 663.129882812 581.98046875 l 6
423.368164062 46.2958984375 m 5
 617.963867188 757.618164062 l 5
 710.561523438 732.286132812 l 5
 515.96484375 20.9638671875 l 5
 423.368164062 46.2958984375 l 5
613.580078125 782.669921875 m 6
 613.580078125 796 613.580078125 796 626.91015625 796 c 6
 707.790039062 796 l 6
 721.120117188 796 721.120117188 796 721.120117188 782.669921875 c 6
 721.120117188 731.459960938 l 6
 721.120117188 718.129882812 721.120117188 718.129882812 707.790039062 718.129882812 c 6
 626.91015625 718.129882812 l 6
 613.580078125 718.129882812 613.580078125 718.129882812 613.580078125 731.459960938 c 6
 613.580078125 782.669921875 l 6
417.610351562 64.5400390625 m 6
 417.610351562 77.8701171875 417.610351562 77.8701171875 430.940429688 77.8701171875 c 6
 511.8203125 77.8701171875 l 6
 525.150390625 77.8701171875 525.150390625 77.8701171875 525.150390625 64.5400390625 c 6
 525.150390625 13.330078125 l 6
 525.150390625 0 525.150390625 0 511.8203125 0 c 6
 430.940429688 0 l 6
 417.610351562 0 417.610351562 0 417.610351562 13.330078125 c 6
 417.610351562 64.5400390625 l 6
182.639648438 46.2880859375 m 5
 377.235351562 757.610351562 l 5
 469.833007812 732.278320312 l 5
 275.237304688 20.9560546875 l 5
 182.639648438 46.2880859375 l 5
372.849609375 782.669921875 m 6
 372.849609375 796 372.849609375 796 386.1796875 796 c 6
 467.059570312 796 l 6
 480.389648438 796 480.389648438 796 480.389648438 782.669921875 c 6
 480.389648438 731.459960938 l 6
 480.389648438 718.129882812 480.389648438 718.129882812 467.059570312 718.129882812 c 6
 386.1796875 718.129882812 l 6
 372.849609375 718.129882812 372.849609375 718.129882812 372.849609375 731.459960938 c 6
 372.849609375 782.669921875 l 6
176.879882812 64.5400390625 m 6
 176.879882812 77.8701171875 176.879882812 77.8701171875 190.209960938 77.8701171875 c 6
 271.08984375 77.8701171875 l 6
 284.419921875 77.8701171875 284.419921875 77.8701171875 284.419921875 64.5400390625 c 6
 284.419921875 13.330078125 l 6
 284.419921875 0 284.419921875 0 271.08984375 0 c 6
 190.209960938 0 l 6
 176.879882812 0 176.879882812 0 176.879882812 13.330078125 c 6
 176.879882812 64.5400390625 l 6
EndSplineSet
Validated: 524293
EndChar

StartChar: dollar
Encoding: 36 36 71
Width: 898
Flags: HW
LayerCount: 2
Fore
SplineSet
403.349609375 45.3701171875 m 5
 403.349609375 751.459960938 l 5
 499.349609375 751.459960938 l 5
 499.349609375 45.3701171875 l 5
 403.349609375 45.3701171875 l 5
398.639648438 782.669921875 m 6
 398.639648438 796 398.639648438 796 411.969726562 796 c 6
 492.849609375 796 l 6
 506.1796875 796 506.1796875 796 506.1796875 782.669921875 c 6
 506.1796875 731.459960938 l 6
 506.1796875 718.129882812 506.1796875 718.129882812 492.849609375 718.129882812 c 6
 411.969726562 718.129882812 l 6
 398.639648438 718.129882812 398.639648438 718.129882812 398.639648438 731.459960938 c 6
 398.639648438 782.669921875 l 6
391.8203125 64.5400390625 m 6
 391.8203125 77.8701171875 391.8203125 77.8701171875 405.150390625 77.8701171875 c 6
 486.030273438 77.8701171875 l 6
 499.360351562 77.8701171875 499.360351562 77.8701171875 499.360351562 64.5400390625 c 6
 499.360351562 13.330078125 l 6
 499.360351562 0 499.360351562 0 486.030273438 0 c 6
 405.150390625 0 l 6
 391.8203125 0 391.8203125 0 391.8203125 13.330078125 c 6
 391.8203125 64.5400390625 l 6
177 521.129882812 m 5
 177 547.23046875 l 5
 273 547.23046875 l 5
 273 521.129882812 l 5
 177 521.129882812 l 5
624.990234375 250.080078125 m 5
 624.990234375 273.349609375 l 5
 720.990234375 273.349609375 l 5
 720.990234375 250.080078125 l 5
 624.990234375 250.080078125 l 5
157 277.830078125 m 6
 157 291.16015625 157 291.16015625 170.330078125 291.16015625 c 6
 251.209960938 291.16015625 l 6
 264.540039062 291.16015625 264.540039062 291.16015625 264.540039062 277.830078125 c 6
 264.540039062 226.620117188 l 6
 264.540039062 213.290039062 264.540039062 213.290039062 251.209960938 213.290039062 c 6
 170.330078125 213.290039062 l 6
 157 213.290039062 157 213.290039062 157 226.620117188 c 6
 157 277.830078125 l 6
253 236.25 m 6
 253 201.849609375 280.98046875 177.870117188 315.379882812 177.870117188 c 6
 562.620117188 177.870117188 l 6
 597.01953125 177.870117188 625 201.849609375 625 236.25 c 6
 625 252.030273438 l 5
 721 252.030273438 l 5
 721 236.25 l 6
 721 148.780273438 650.08984375 77.8701171875 562.620117188 77.8701171875 c 6
 315.379882812 77.8701171875 l 6
 227.91015625 77.8701171875 157 148.780273438 157 236.25 c 6
 157 267.26953125 l 5
 253 267.26953125 l 5
 253 236.25 l 6
633.459960938 569.379882812 m 6
 633.459960938 582.709960938 633.459960938 582.709960938 646.790039062 582.709960938 c 6
 727.669921875 582.709960938 l 6
 741 582.709960938 741 582.709960938 741 569.379882812 c 6
 741 518.169921875 l 6
 741 504.83984375 741 504.83984375 727.669921875 504.83984375 c 6
 646.790039062 504.83984375 l 6
 633.459960938 504.83984375 633.459960938 504.83984375 633.459960938 518.169921875 c 6
 633.459960938 569.379882812 l 6
645 559.75 m 5
 645 594.150390625 617.01953125 618.129882812 582.620117188 618.129882812 c 6
 315.379882812 618.129882812 l 6
 280.98046875 618.129882812 273 594.150390625 273 559.75 c 6
 273 543.969726562 l 5
 177 543.969726562 l 5
 177 559.75 l 6
 177 647.219726562 227.91015625 718.129882812 315.379882812 718.129882812 c 6
 582.620117188 718.129882812 l 6
 670.08984375 718.129882812 741 647.219726562 741 559.75 c 6
 741 528.73046875 l 5
 645 528.73046875 l 5
 645 559.75 l 5
480.259765625 350 m 5
 403.690429688 350 l 5
 403.690429688 446 l 5
 480.259765625 446 l 5
 480.259765625 350 l 5
431.120117188 446 m 5
 431.120117188 350 l 5
 335.370117188 350 l 6
 247.900390625 350 176.990234375 420.91015625 176.990234375 508.379882812 c 6
 176.990234375 524.16015625 l 5
 272.990234375 524.16015625 l 5
 272.990234375 508.379882812 l 6
 272.990234375 473.98046875 300.969726562 445.83984375 335.370117188 445.83984375 c 6
 431.120117188 446 l 5
466.870117188 350 m 5
 466.870117188 446 l 5
 542.610351562 446 l 6
 630.080078125 446 720.990234375 375.08984375 720.990234375 287.620117188 c 6
 720.990234375 271.83984375 l 5
 624.990234375 271.83984375 l 5
 624.990234375 287.620117188 l 6
 624.990234375 322.01953125 577.009765625 350.16015625 542.610351562 350.16015625 c 6
 466.870117188 350 l 5
EndSplineSet
Validated: 524293
EndChar

StartChar: percent
Encoding: 37 37 72
Width: 898
Flags: HW
LayerCount: 2
Fore
SplineSet
561.389648438 95 m 6
 622.620117188 94 l 6
 639.139648438 94 645 106.379882812 645 132.379882812 c 6
 645 222.759765625 l 6
 645 247.75 647.01953125 255.139648438 612.620117188 255.139648438 c 6
 601.389648438 255.139648438 l 6
 546.030273438 255.139648438 539.009765625 165.650390625 539.009765625 132.75 c 6
 539.009765625 124.16015625 l 6
 539.009765625 108.540039062 538.73046875 95 561.389648438 95 c 6
561.389648438 1 m 5
 473.919921875 1 443.009765625 50.7998046875 443.009765625 111.969726562 c 6
 443.009765625 125.080078125 l 6
 443.009765625 247.139648438 542.73046875 353.139648438 601.389648438 353.139648438 c 6
 632.620117188 353.139648438 l 6
 707.83984375 353.139648438 741 350.23046875 741 262.759765625 c 6
 741 132.379882812 l 6
 741 69.3701171875 722.059570312 0 622.620117188 0 c 6
 561.389648438 1 l 5
336.610351562 701 m 6
 275.379882812 702 l 6
 258.860351562 702 253 689.620117188 253 663.620117188 c 6
 253 573.240234375 l 6
 253 548.25 250.98046875 540.860351562 285.379882812 540.860351562 c 6
 296.610351562 540.860351562 l 6
 351.969726562 540.860351562 358.990234375 630.349609375 358.990234375 663.25 c 6
 358.990234375 671.83984375 l 6
 358.990234375 687.459960938 359.26953125 701 336.610351562 701 c 6
336.610351562 795 m 5
 424.080078125 795 454.990234375 745.200195312 454.990234375 684.030273438 c 6
 454.990234375 670.919921875 l 6
 454.990234375 548.860351562 355.26953125 442.860351562 296.610351562 442.860351562 c 6
 265.379882812 442.860351562 l 6
 190.16015625 442.860351562 157 445.76953125 157 533.240234375 c 6
 157 663.620117188 l 6
 157 726.629882812 175.940429688 796 275.379882812 796 c 6
 336.610351562 795 l 5
322.540039062 13.330078125 m 6
 322.540039062 0 322.540039062 0 309.209960938 0 c 6
 228.330078125 0 l 6
 215 0 215 0 215 13.330078125 c 6
 215 64.5400390625 l 6
 215 77.8701171875 215 77.8701171875 228.330078125 77.8701171875 c 6
 309.209960938 77.8701171875 l 6
 322.540039062 77.8701171875 322.540039062 77.8701171875 322.540039062 64.5400390625 c 6
 322.540039062 13.330078125 l 6
575.459960938 782.669921875 m 6
 575.459960938 796 575.459960938 796 588.790039062 796 c 6
 669.669921875 796 l 6
 683 796 683 796 683 782.669921875 c 6
 683 731.459960938 l 6
 683 718.129882812 683 718.129882812 669.669921875 718.129882812 c 6
 588.790039062 718.129882812 l 6
 575.459960938 718.129882812 575.459960938 718.129882812 575.459960938 731.459960938 c 6
 575.459960938 782.669921875 l 6
231.1640625 47.5537109375 m 5
 578.262695312 785.509765625 l 5
 665.1328125 744.649414062 l 5
 318.034179688 6.693359375 l 5
 231.1640625 47.5537109375 l 5
EndSplineSet
Validated: 524325
EndChar

StartChar: ampersand
Encoding: 38 38 73
Width: 897
Flags: HW
LayerCount: 2
Fore
SplineSet
667.635742188 25.49609375 m 5
 237.555664062 488.31640625 l 5
 307.879882812 553.666015625 l 5
 737.959960938 90.8447265625 l 5
 667.635742188 25.49609375 l 5
223.112304688 369.2734375 m 5
 489.9453125 571.737304688 l 5
 547.973632812 495.260742188 l 5
 281.140625 292.796875 l 5
 223.112304688 369.2734375 l 5
521.970703125 475.540039062 m 5
 464.720703125 552.669921875 l 5
 475.009765625 560.48046875 480.810546875 562.610351562 489.940429688 571.75 c 4
 497.520507812 579.330078125 499.790039062 583.009765625 499.790039062 606.610351562 c 4
 499.790039062 620.639648438 499.790039062 625.809570312 499.790039062 639.360351562 c 5
 528.8203125 639.360351562 569.640625 633.049804688 595.790039062 633.049804688 c 5
 595.790039062 606.599609375 l 4
 595.790039062 533.509765625 571.990234375 519.290039062 547.970703125 495.26953125 c 4
 540.940429688 488.240234375 529.890625 481.549804688 521.970703125 475.540039062 c 5
253.740234375 470.900390625 m 5
 242.600585938 482.030273438 230.970703125 494.700195312 220.870117188 506.26953125 c 4
 200.470703125 529.639648438 168.799804688 570.110351562 168.799804688 606.599609375 c 4
 168.799804688 633.049804688 l 5
 194.950195312 633.049804688 235.770507812 639.360351562 264.799804688 639.360351562 c 5
 264.799804688 625.799804688 264.799804688 630.809570312 264.799804688 616.780273438 c 4
 264.799804688 605.1796875 298.41015625 563.58984375 302.009765625 559.990234375 c 4
 316.020507812 545.969726562 307.540039062 551.200195312 317.830078125 543.389648438 c 5
 253.740234375 470.900390625 l 5
633.379882812 392.259765625 m 6
 633.379882812 405.58984375 633.379882812 405.58984375 646.709960938 405.58984375 c 6
 727.58984375 405.58984375 l 6
 740.919921875 405.58984375 740.919921875 405.58984375 740.919921875 392.259765625 c 6
 740.919921875 341.049804688 l 6
 740.919921875 327.719726562 740.919921875 327.719726562 727.58984375 327.719726562 c 6
 646.709960938 327.719726562 l 6
 633.379882812 327.719726562 633.379882812 327.719726562 633.379882812 341.049804688 c 6
 633.379882812 392.259765625 l 6
663.049804688 94.2099609375 m 6
 663.049804688 107.540039062 663.049804688 107.540039062 676.379882812 107.540039062 c 6
 727.58984375 107.540039062 l 6
 740.919921875 107.540039062 740.919921875 107.540039062 740.919921875 94.2099609375 c 6
 740.919921875 13.330078125 l 6
 740.919921875 0 740.919921875 0 727.58984375 0 c 6
 676.379882812 0 l 6
 663.049804688 0 663.049804688 0 663.049804688 13.330078125 c 6
 663.049804688 94.2099609375 l 6
351.580078125 95.8701171875 m 5
 391.060546875 95.8701171875 640.73046875 80.2802734375 640.73046875 335.5 c 6
 640.919921875 352.58984375 l 5
 740.919921875 352.280273438 l 5
 740.720703125 334.379882812 l 6
 740.720703125 48.669921875 466.530273438 0.01953125 378.8203125 0.01953125 c 6
 342.5 0.01953125 l 5
 346.280273438 91.83984375 l 5
 351.580078125 95.8798828125 l 5
 351.580078125 95.8701171875 l 5
499.790039062 637.620117188 m 6
 499.790039062 672.01953125 471.810546875 696 437.41015625 696 c 6
 327.180664062 696 l 6
 292.780273438 696 264.799804688 672.01953125 264.799804688 637.620117188 c 6
 264.799804688 621.83984375 l 5
 168.799804688 621.83984375 l 5
 168.799804688 637.620117188 l 6
 168.799804688 725.08984375 239.709960938 796 327.180664062 796 c 6
 437.41015625 796 l 6
 524.879882812 796 595.790039062 725.08984375 595.790039062 637.620117188 c 6
 595.790039062 606.599609375 l 5
 499.790039062 606.599609375 l 5
 499.790039062 637.620117188 l 6
315.379882812 95.990234375 m 5
 315.379882812 95.98046875 l 5
 355.490234375 95.830078125 l 5
 355.490234375 -0.01953125 l 5
 315.379882812 -0.01953125 l 6
 227.91015625 -0.01953125 157 70.8896484375 157 158.360351562 c 6
 157 238.58984375 l 6
 157 291.950195312 186.379882812 339.860351562 224.33984375 370.200195312 c 5
 283.209960938 294.400390625 l 5
 266.540039062 281.830078125 257 262.700195312 257 238.599609375 c 6
 257 158.370117188 l 6
 257 123.969726562 280.98046875 95.990234375 315.379882812 95.990234375 c 5
EndSplineSet
Validated: 524325
EndChar

StartChar: parenleft
Encoding: 40 40 74
Width: 625
Flags: HW
LayerCount: 2
Fore
SplineSet
404.330078125 0 m 2
 391 0 391 0 391 13.330078125 c 2
 391 94.2099609375 l 2
 391 107.540039062 391 107.540039062 404.330078125 107.540039062 c 2
 455.5390625 107.540039062 l 2
 468.869140625 107.540039062 468.869140625 107.540039062 468.869140625 94.2099609375 c 2
 468.869140625 13.330078125 l 2
 468.869140625 0 468.869140625 0 455.5390625 0 c 2
 404.330078125 0 l 2
251 402.76953125 m 1
 251 391 l 2
 251 274.91015625 273.939453125 178.150390625 410.388671875 107.540039062 c 1
 413.490234375 105.5 l 2
 414.94921875 104.400390625 413.869140625 104.030273438 414.5 104.049804688 c 1
 414.5 26.599609375 l 1
 413.869140625 26.599609375 413.25 26.580078125 412.619140625 26.580078125 c 2
 393.900390625 17.5595703125 l 1
 179.46875 147.290039062 157 263.51953125 157 400 c 2
 157 402.76953125 l 1
 251 402.76953125 l 1
455.548828125 796 m 2
 468.87890625 796 468.87890625 796 468.87890625 782.669921875 c 2
 468.87890625 701.790039062 l 2
 468.87890625 688.459960938 468.87890625 688.459960938 455.548828125 688.459960938 c 2
 404.33984375 688.459960938 l 2
 391.009765625 688.459960938 391.009765625 688.459960938 391.009765625 701.790039062 c 2
 391.009765625 782.669921875 l 2
 391.009765625 796 391.009765625 796 404.33984375 796 c 2
 455.548828125 796 l 2
251 393.23046875 m 1
 157 393.23046875 l 1
 157 396 l 2
 157 532.48046875 179.46875 648.709960938 393.900390625 778.440429688 c 1
 412.619140625 769.419921875 l 2
 413.25 769.419921875 413.869140625 769.400390625 414.5 769.400390625 c 1
 414.5 691.950195312 l 1
 413.869140625 691.969726562 414.94921875 691.599609375 413.490234375 690.5 c 2
 410.388671875 688.459960938 l 1
 273.939453125 617.849609375 251 521.08984375 251 405 c 2
 251 393.23046875 l 1
EndSplineSet
Validated: 524293
EndChar

StartChar: parenright
Encoding: 41 41 75
Width: 625
Flags: HW
LayerCount: 2
Fore
SplineSet
170.330078125 0.009765625 m 2
 157 0.009765625 157 0.009765625 157 13.33984375 c 2
 157 94.2197265625 l 2
 157 107.549804688 157 107.549804688 170.330078125 107.549804688 c 2
 221.5390625 107.549804688 l 2
 234.869140625 107.549804688 234.869140625 107.549804688 234.869140625 94.2197265625 c 2
 234.869140625 13.33984375 l 2
 234.869140625 0.009765625 234.869140625 0.009765625 221.5390625 0.009765625 c 2
 170.330078125 0.009765625 l 2
374.869140625 402.76953125 m 1
 374.859375 402.780273438 l 1
 468.859375 402.780273438 l 1
 468.859375 400.009765625 l 2
 468.859375 263.51953125 446.388671875 147.290039062 231.96875 17.5595703125 c 1
 213.25 26.580078125 l 2
 212.619140625 26.580078125 212 26.599609375 211.369140625 26.599609375 c 1
 211.369140625 104.049804688 l 1
 212 104.030273438 210.919921875 104.400390625 212.37890625 105.5 c 2
 215.48046875 107.540039062 l 1
 351.9296875 178.150390625 374.869140625 274.91015625 374.869140625 391 c 2
 374.869140625 402.76953125 l 1
221.548828125 796 m 2
 234.87890625 796 234.87890625 796 234.87890625 782.669921875 c 2
 234.87890625 701.790039062 l 2
 234.87890625 688.459960938 234.87890625 688.459960938 221.548828125 688.459960938 c 2
 170.33984375 688.459960938 l 2
 157.009765625 688.459960938 157.009765625 688.459960938 157.009765625 701.790039062 c 2
 157.009765625 782.669921875 l 2
 157.009765625 796 157.009765625 796 170.33984375 796 c 2
 221.548828125 796 l 2
374.869140625 393.23046875 m 1
 374.869140625 405 l 2
 374.869140625 521.08984375 351.9296875 617.849609375 215.48046875 688.459960938 c 1
 212.37890625 690.5 l 2
 210.919921875 691.599609375 212 691.969726562 211.369140625 691.950195312 c 1
 211.369140625 769.400390625 l 1
 212 769.400390625 212.619140625 769.419921875 213.25 769.419921875 c 2
 231.96875 778.440429688 l 1
 446.388671875 648.709960938 468.859375 532.48046875 468.859375 395.990234375 c 2
 468.859375 393.219726562 l 1
 374.859375 393.219726562 l 1
 374.869140625 393.23046875 l 1
EndSplineSet
Validated: 524293
EndChar

StartChar: asterisk
Encoding: 42 42 76
Width: 650
Flags: HW
LayerCount: 2
Fore
SplineSet
309.630859375 437.83984375 m 6
 296.30078125 437.83984375 296.30078125 437.83984375 296.30078125 451.169921875 c 6
 296.30078125 459.719726562 l 6
 296.30078125 473.049804688 296.30078125 473.049804688 309.630859375 473.049804688 c 6
 342.370117188 473.049804688 l 6
 355.700195312 473.049804688 355.700195312 473.049804688 355.700195312 459.719726562 c 6
 355.700195312 451.169921875 l 6
 355.700195312 437.83984375 355.700195312 437.83984375 342.370117188 437.83984375 c 6
 309.630859375 437.83984375 l 6
282.05078125 556.120117188 m 5
 369.930664062 556.120117188 l 5
 355.630859375 449.9296875 l 5
 296.350585938 449.9296875 l 5
 282.05078125 556.120117188 l 5
340.75 796 m 6
 354.080078125 796 354.080078125 796 354.080078125 782.669921875 c 6
 354.080078125 774.120117188 l 6
 354.080078125 760.790039062 354.080078125 760.790039062 340.75 760.790039062 c 6
 308.010742188 760.790039062 l 6
 294.680664062 760.790039062 294.680664062 760.790039062 294.680664062 774.120117188 c 6
 294.680664062 782.669921875 l 6
 294.680664062 796 294.680664062 796 308.010742188 796 c 6
 340.75 796 l 6
280.440429688 677.73046875 m 5
 294.740234375 783.919921875 l 5
 354.020507812 783.91015625 l 5
 368.3203125 677.73046875 l 5
 280.440429688 677.73046875 l 5
162.329101562 540.86328125 m 6
 155.6640625 552.407226562 155.6640625 552.407226562 167.208984375 559.072265625 c 6
 174.61328125 563.34765625 l 6
 186.157226562 570.012695312 186.157226562 570.012695312 192.822265625 558.46875 c 6
 209.192382812 530.115234375 l 6
 215.857421875 518.5703125 215.857421875 518.5703125 204.313476562 511.90625 c 6
 196.908203125 507.630859375 l 6
 185.364257812 500.965820312 185.364257812 500.965820312 178.69921875 512.509765625 c 6
 162.329101562 540.86328125 l 6
250.959960938 623.879882812 m 5
 294.900390625 547.76953125 l 5
 195.790039062 507.059570312 l 5
 166.150390625 558.400390625 l 5
 250.959960938 623.879882812 l 5
488.051757812 692.985351562 m 6
 494.716796875 681.44140625 494.716796875 681.44140625 483.172851562 674.776367188 c 6
 475.767578125 670.500976562 l 6
 464.223632812 663.836914062 464.223632812 663.836914062 457.55859375 675.380859375 c 6
 441.188476562 703.734375 l 6
 434.5234375 715.278320312 434.5234375 715.278320312 446.068359375 721.943359375 c 6
 453.47265625 726.21875 l 6
 465.016601562 732.883789062 465.016601562 732.883789062 471.681640625 721.338867188 c 6
 488.051757812 692.985351562 l 6
355.470703125 686.080078125 m 5
 454.580078125 726.790039062 l 5
 484.220703125 675.450195312 l 5
 399.41015625 609.969726562 l 5
 355.470703125 686.080078125 l 5
472.490234375 513.909179688 m 6
 465.825195312 502.365234375 465.825195312 502.365234375 454.28125 509.030273438 c 6
 446.875976562 513.3046875 l 6
 435.33203125 519.969726562 435.33203125 519.969726562 441.997070312 531.513671875 c 6
 458.3671875 559.868164062 l 6
 465.032226562 571.412109375 465.032226562 571.412109375 476.576171875 564.747070312 c 6
 483.981445312 560.471679688 l 6
 495.525390625 553.806640625 495.525390625 553.806640625 488.860351562 542.262695312 c 6
 472.490234375 513.909179688 l 6
356.280273438 549.169921875 m 5
 400.220703125 625.26953125 l 5
 485.030273438 559.799804688 l 5
 455.390625 508.459960938 l 5
 356.280273438 549.169921875 l 5
177.8828125 719.9453125 m 6
 184.547851562 731.490234375 184.547851562 731.490234375 196.091796875 724.825195312 c 6
 203.497070312 720.549804688 l 6
 215.041015625 713.884765625 215.041015625 713.884765625 208.375976562 702.340820312 c 6
 192.005859375 673.987304688 l 6
 185.340820312 662.443359375 185.340820312 662.443359375 173.796875 669.107421875 c 6
 166.391601562 673.3828125 l 6
 154.84765625 680.047851562 154.84765625 680.047851562 161.512695312 691.591796875 c 6
 177.8828125 719.9453125 l 6
250.150390625 608.580078125 m 5
 165.340820312 674.049804688 l 5
 194.98046875 725.389648438 l 5
 294.090820312 684.6796875 l 5
 250.150390625 608.580078125 l 5
248.490234375 551.01953125 m 5
 248.490234375 682.830078125 l 5
 401.890625 682.830078125 l 5
 401.890625 551.01953125 l 5
 248.490234375 551.01953125 l 5
EndSplineSet
Validated: 524293
EndChar

StartChar: bar
Encoding: 124 124 77
Width: 433
Flags: HW
LayerCount: 2
Fore
SplineSet
168.540039062 782.669921875 m 2
 168.540039062 796 168.540039062 796 181.870117188 796 c 2
 262.75 796 l 2
 276.080078125 796 276.080078125 796 276.080078125 782.669921875 c 2
 276.080078125 731.459960938 l 2
 276.080078125 718.129882812 276.080078125 718.129882812 262.75 718.129882812 c 2
 181.870117188 718.129882812 l 2
 168.540039062 718.129882812 168.540039062 718.129882812 168.540039062 731.459960938 c 2
 168.540039062 782.669921875 l 2
157 782.669921875 m 2
 157 796 157 796 170.330078125 796 c 2
 251.209960938 796 l 2
 264.540039062 796 264.540039062 796 264.540039062 782.669921875 c 2
 264.540039062 731.459960938 l 2
 264.540039062 718.129882812 264.540039062 718.129882812 251.209960938 718.129882812 c 2
 170.330078125 718.129882812 l 2
 157 718.129882812 157 718.129882812 157 731.459960938 c 2
 157 782.669921875 l 2
168.540039062 -163.459960938 m 2
 168.540039062 -150.129882812 168.540039062 -150.129882812 181.870117188 -150.129882812 c 2
 262.75 -150.129882812 l 2
 276.080078125 -150.129882812 276.080078125 -150.129882812 276.080078125 -163.459960938 c 2
 276.080078125 -214.669921875 l 2
 276.080078125 -228 276.080078125 -228 262.75 -228 c 2
 181.870117188 -228 l 2
 168.540039062 -228 168.540039062 -228 168.540039062 -214.669921875 c 2
 168.540039062 -163.459960938 l 2
157 -163.459960938 m 2
 157 -150.129882812 157 -150.129882812 170.330078125 -150.129882812 c 2
 251.209960938 -150.129882812 l 2
 264.540039062 -150.129882812 264.540039062 -150.129882812 264.540039062 -163.459960938 c 2
 264.540039062 -214.669921875 l 2
 264.540039062 -228 264.540039062 -228 251.209960938 -228 c 2
 170.330078125 -228 l 2
 157 -228 157 -228 157 -214.669921875 c 2
 157 -163.459960938 l 2
168.540039062 -171.959960938 m 1
 168.540039062 755.4296875 l 1
 264.540039062 755.4296875 l 1
 264.540039062 -171.959960938 l 1
 168.540039062 -171.959960938 l 1
EndSplineSet
Validated: 524293
EndChar

StartChar: equal
Encoding: 61 61 78
Width: 782
Flags: HW
LayerCount: 2
Fore
SplineSet
560.459960938 164 m 2
 547.129882812 164 547.129882812 164 547.129882812 177.330078125 c 2
 547.129882812 258.209960938 l 2
 547.129882812 271.540039062 547.129882812 271.540039062 560.459960938 271.540039062 c 2
 611.669921875 271.540039062 l 2
 625 271.540039062 625 271.540039062 625 258.209960938 c 2
 625 177.330078125 l 2
 625 164 625 164 611.669921875 164 c 2
 560.459960938 164 l 2
170.330078125 164 m 2
 157 164 157 164 157 177.330078125 c 2
 157 258.209960938 l 2
 157 271.540039062 157 271.540039062 170.330078125 271.540039062 c 2
 221.540039062 271.540039062 l 2
 234.870117188 271.540039062 234.870117188 271.540039062 234.870117188 258.209960938 c 2
 234.870117188 177.330078125 l 2
 234.870117188 164 234.870117188 164 221.540039062 164 c 2
 170.330078125 164 l 2
583.360351562 169.76953125 m 1
 187.169921875 169.76953125 l 1
 187.169921875 265.76953125 l 1
 583.360351562 265.76953125 l 1
 583.360351562 169.76953125 l 1
560.459960938 524.459960938 m 2
 547.129882812 524.459960938 547.129882812 524.459960938 547.129882812 537.790039062 c 2
 547.129882812 618.669921875 l 2
 547.129882812 632 547.129882812 632 560.459960938 632 c 2
 611.669921875 632 l 2
 625 632 625 632 625 618.669921875 c 2
 625 537.790039062 l 2
 625 524.459960938 625 524.459960938 611.669921875 524.459960938 c 2
 560.459960938 524.459960938 l 2
170.330078125 524.469726562 m 2
 157 524.469726562 157 524.469726562 157 537.799804688 c 2
 157 618.6796875 l 2
 157 632.009765625 157 632.009765625 170.330078125 632.009765625 c 2
 221.540039062 632.009765625 l 2
 234.870117188 632.009765625 234.870117188 632.009765625 234.870117188 618.6796875 c 2
 234.870117188 537.799804688 l 2
 234.870117188 524.469726562 234.870117188 524.469726562 221.540039062 524.469726562 c 2
 170.330078125 524.469726562 l 2
583.370117188 530.23046875 m 1
 187.1796875 530.23046875 l 1
 187.1796875 626.23046875 l 1
 583.370117188 626.23046875 l 1
 583.370117188 530.23046875 l 1
EndSplineSet
Validated: 524293
EndChar

StartChar: less
Encoding: 60 60 79
Width: 782
Flags: HW
LayerCount: 2
Fore
SplineSet
560.459960938 164 m 2
 547.129882812 164 547.129882812 164 547.129882812 177.330078125 c 2
 547.129882812 258.209960938 l 2
 547.129882812 271.540039062 547.129882812 271.540039062 560.459960938 271.540039062 c 2
 611.669921875 271.540039062 l 2
 625 271.540039062 625 271.540039062 625 258.209960938 c 2
 625 177.330078125 l 2
 625 164 625 164 611.669921875 164 c 2
 560.459960938 164 l 2
560.459960938 524.459960938 m 2
 547.129882812 524.459960938 547.129882812 524.459960938 547.129882812 537.790039062 c 2
 547.129882812 618.669921875 l 2
 547.129882812 632 547.129882812 632 560.459960938 632 c 2
 611.669921875 632 l 2
 625 632 625 632 625 618.669921875 c 2
 625 537.790039062 l 2
 625 524.459960938 625 524.459960938 611.669921875 524.459960938 c 2
 560.459960938 524.459960938 l 2
170.330078125 344.23046875 m 2
 157 344.23046875 157 344.23046875 157 357.559570312 c 2
 157 438.440429688 l 2
 157 451.76953125 157 451.76953125 170.330078125 451.76953125 c 2
 221.540039062 451.76953125 l 2
 234.870117188 451.76953125 234.870117188 451.76953125 234.870117188 438.440429688 c 2
 234.870117188 357.559570312 l 2
 234.870117188 344.23046875 234.870117188 344.23046875 221.540039062 344.23046875 c 2
 170.330078125 344.23046875 l 2
598.827148438 545.224609375 m 1
 241.223632812 365.759765625 l 1
 198.1640625 451.561523438 l 1
 555.767578125 631.026367188 l 1
 598.827148438 545.224609375 l 1
241.213867188 429.995117188 m 1
 598.817382812 250.530273438 l 1
 555.7578125 164.728515625 l 1
 198.154296875 344.193359375 l 1
 241.213867188 429.995117188 l 1
EndSplineSet
Validated: 524293
EndChar

StartChar: greater
Encoding: 62 62 80
Width: 781
Flags: HW
LayerCount: 2
Fore
SplineSet
170.330078125 164.009765625 m 2
 157 164.009765625 157 164.009765625 157 177.33984375 c 2
 157 258.219726562 l 2
 157 271.549804688 157 271.549804688 170.330078125 271.549804688 c 2
 221.540039062 271.549804688 l 2
 234.870117188 271.549804688 234.870117188 271.549804688 234.870117188 258.219726562 c 2
 234.870117188 177.33984375 l 2
 234.870117188 164.009765625 234.870117188 164.009765625 221.540039062 164.009765625 c 2
 170.330078125 164.009765625 l 2
170.330078125 524.469726562 m 2
 157 524.469726562 157 524.469726562 157 537.799804688 c 2
 157 618.6796875 l 2
 157 632.009765625 157 632.009765625 170.330078125 632.009765625 c 2
 221.540039062 632.009765625 l 2
 234.870117188 632.009765625 234.870117188 632.009765625 234.870117188 618.6796875 c 2
 234.870117188 537.799804688 l 2
 234.870117188 524.469726562 234.870117188 524.469726562 221.540039062 524.469726562 c 2
 170.330078125 524.469726562 l 2
560.450195312 344.23046875 m 2
 547.120117188 344.23046875 547.120117188 344.23046875 547.120117188 357.559570312 c 2
 547.120117188 438.440429688 l 2
 547.120117188 451.76953125 547.120117188 451.76953125 560.450195312 451.76953125 c 2
 611.66015625 451.76953125 l 2
 624.990234375 451.76953125 624.990234375 451.76953125 624.990234375 438.440429688 c 2
 624.990234375 357.559570312 l 2
 624.990234375 344.23046875 624.990234375 344.23046875 611.66015625 344.23046875 c 2
 560.450195312 344.23046875 l 2
540.782226562 365.756835938 m 1
 183.177734375 545.22265625 l 1
 226.23828125 631.0234375 l 1
 583.841796875 451.55859375 l 1
 540.782226562 365.756835938 l 1
183.177734375 250.54296875 m 1
 540.782226562 430.0078125 l 1
 583.841796875 344.20703125 l 1
 226.23828125 164.741210938 l 1
 183.177734375 250.54296875 l 1
EndSplineSet
Validated: 524293
EndChar

StartChar: question
Encoding: 63 63 81
Width: 898
Flags: HW
LayerCount: 2
Fore
SplineSet
401.0703125 0 m 6
 369 0 369 0 369 32.0703125 c 6
 369 127.9296875 l 6
 369 160 369 160 401.0703125 160 c 6
 496.930664062 160 l 6
 529 160 529 160 529 127.9296875 c 6
 529 32.0703125 l 6
 529 0 529 0 496.930664062 0 c 6
 401.0703125 0 l 6
497 310.120117188 m 6
 497 296.790039062 497 296.790039062 483.669921875 296.790039062 c 6
 414.330078125 296.790039062 l 6
 401 296.790039062 401 296.790039062 401 310.120117188 c 6
 401 361.330078125 l 6
 401 374.66015625 401 374.66015625 414.330078125 374.66015625 c 6
 483.669921875 374.66015625 l 6
 497 374.66015625 497 374.66015625 497 361.330078125 c 6
 497 310.120117188 l 6
741 631.809570312 m 5
 741 515.240234375 l 5
 645 515.240234375 l 5
 645 631.809570312 l 5
 741 631.809570312 l 5
157 549.76953125 m 6
 157 563.099609375 157 563.099609375 170.330078125 563.099609375 c 6
 251.209960938 563.099609375 l 6
 264.540039062 563.099609375 264.540039062 563.099609375 264.540039062 549.76953125 c 6
 264.540039062 498.559570312 l 6
 264.540039062 485.23046875 264.540039062 485.23046875 251.209960938 485.23046875 c 6
 170.330078125 485.23046875 l 6
 157 485.23046875 157 485.23046875 157 498.559570312 c 6
 157 549.76953125 l 6
253 637.620117188 m 6
 253 524.16015625 l 5
 157 524.16015625 l 5
 157 637.620117188 l 6
 157 725.08984375 227.91015625 796 315.379882812 796 c 6
 582.620117188 796 l 6
 670.090820312 796 741 725.08984375 741 637.620117188 c 6
 741 621.83984375 l 5
 645 621.83984375 l 5
 645 637.620117188 l 6
 645 672.01953125 617.020507812 696 582.620117188 696 c 6
 315.379882812 696 l 6
 280.98046875 696 253 672.01953125 253 637.620117188 c 6
537.010742188 446 m 5
 562.620117188 445.83984375 l 6
 597.020507812 445.83984375 645 473.98046875 645 508.379882812 c 6
 645 524.16015625 l 5
 741 524.16015625 l 5
 741 508.379882812 l 6
 741 420.91015625 650.090820312 350 562.620117188 350 c 6
 474.150390625 350 l 5
 537.010742188 446 l 5
491.930664062 446.099609375 m 6
 491.940429688 446.099609375 l 5
 572.919921875 446.099609375 l 5
 572.919921875 374.959960938 l 5
 563.879882812 375.120117188 l 6
 534.25 375.120117188 494.5703125 354.259765625 484.110351562 326.5 c 5
 401 352.919921875 l 5
 401 440.76953125 422.5703125 446.099609375 491.930664062 446.099609375 c 6
EndSplineSet
Validated: 524293
EndChar

StartChar: at
Encoding: 64 64 82
Width: 898
Flags: HW
LayerCount: 2
Fore
SplineSet
555.75 210.01953125 m 5
 526.649414062 210.01953125 l 5
 526.649414062 306.01953125 l 5
 555.75 306.01953125 l 5
 555.75 210.01953125 l 5
555.75 491.66015625 m 5
 526.649414062 491.66015625 l 5
 526.649414062 587.66015625 l 5
 555.75 587.66015625 l 5
 555.75 491.66015625 l 5
705.069335938 0 m 5
 444.359375 0 l 5
 444.359375 96 l 5
 705.069335938 96 l 5
 705.069335938 0 l 5
663.129882812 94.2099609375 m 6
 663.129882812 107.540039062 663.129882812 107.540039062 676.459960938 107.540039062 c 6
 727.669921875 107.540039062 l 6
 741 107.540039062 741 107.540039062 741 94.2099609375 c 6
 741 13.330078125 l 6
 741 0 741 0 727.669921875 0 c 6
 676.459960938 0 l 6
 663.129882812 0 663.129882812 0 663.129882812 13.330078125 c 6
 663.129882812 94.2099609375 l 6
449 96 m 5
 449 0 l 5
 315.379882812 0 l 6
 227.909179688 0 157 70.91015625 157 158.379882812 c 6
 157 637.620117188 l 6
 157 725.08984375 227.909179688 796 315.379882812 796 c 6
 582.619140625 796 l 6
 670.08984375 796 741 725.08984375 741 637.620117188 c 6
 741 371.83984375 l 5
 645 371.83984375 l 5
 645 637.620117188 l 6
 645 672.01953125 617.01953125 696 582.619140625 696 c 6
 315.379882812 696 l 6
 280.979492188 696 253 672.01953125 253 637.620117188 c 6
 253 158.379882812 l 6
 253 123.98046875 280.979492188 100 315.379882812 100 c 6
 449 96 l 5
645 368.389648438 m 5
 645 416.0703125 l 5
 741 416.0703125 l 5
 741 348.379882812 l 6
 741 251.450195312 712.869140625 210 602.619140625 210 c 6
 545.079101562 210 l 5
 545.079101562 306 l 5
 582.619140625 306 l 6
 643.0390625 306 645 296.780273438 645 368.379882812 c 6
 645 368.389648438 l 5
645 617.700195312 m 6
 645 659.379882812 l 5
 741 659.379882812 l 5
 741 611.700195312 l 6
 741 524.23046875 670.08984375 491.66015625 582.619140625 491.66015625 c 6
 545.079101562 491.66015625 l 5
 545.079101562 587.66015625 l 5
 582.619140625 587.66015625 l 6
 617.01953125 587.66015625 645 583.299804688 645 617.700195312 c 6
538.69921875 306.009765625 m 5
 538.69921875 210.009765625 l 5
 467.669921875 210.009765625 l 6
 380.19921875 210.009765625 359.2890625 240.919921875 359.2890625 328.389648438 c 6
 359.2890625 469.26953125 l 6
 359.2890625 556.740234375 380.19921875 587.650390625 467.669921875 587.650390625 c 6
 538.69921875 587.650390625 l 5
 538.69921875 491.650390625 l 5
 487.669921875 491.650390625 l 6
 453.26953125 491.650390625 455.2890625 496.009765625 455.2890625 461.610351562 c 6
 455.2890625 344.389648438 l 6
 455.2890625 309.990234375 453.26953125 306.009765625 487.669921875 306.009765625 c 6
 538.69921875 306.009765625 l 5
EndSplineSet
Validated: 524325
EndChar

StartChar: braceright
Encoding: 125 125 83
Width: 625
Flags: HW
LayerCount: 2
Fore
SplineSet
360.669921875 431.990234375 m 6
 360.669921875 445.3203125 360.669921875 445.3203125 374 445.3203125 c 6
 454.880859375 445.3203125 l 6
 468.2109375 445.3203125 468.2109375 445.3203125 468.2109375 431.990234375 c 6
 468.2109375 380.780273438 l 6
 468.2109375 367.450195312 468.2109375 367.450195312 454.880859375 367.450195312 c 6
 374 367.450195312 l 6
 360.669921875 367.450195312 360.669921875 367.450195312 360.669921875 380.780273438 c 6
 360.669921875 431.990234375 l 6
360.669921875 413.860351562 m 6
 360.669921875 427.190429688 360.669921875 427.190429688 374 427.190429688 c 6
 454.880859375 427.190429688 l 6
 468.2109375 427.190429688 468.2109375 427.190429688 468.2109375 413.860351562 c 6
 468.2109375 362.650390625 l 6
 468.2109375 349.3203125 468.2109375 349.3203125 454.880859375 349.3203125 c 6
 374 349.3203125 l 6
 360.669921875 349.3203125 360.669921875 349.3203125 360.669921875 362.650390625 c 6
 360.669921875 413.860351562 l 6
157 782.669921875 m 6
 157 796 157 796 170.330078125 796 c 6
 221.541015625 796 l 6
 234.87109375 796 234.87109375 796 234.87109375 782.669921875 c 6
 234.87109375 701.790039062 l 6
 234.87109375 688.459960938 234.87109375 688.459960938 221.541015625 688.459960938 c 6
 170.330078125 688.459960938 l 6
 157 688.459960938 157 688.459960938 157 701.790039062 c 6
 157 782.669921875 l 6
382.541015625 360.110351562 m 5
 263.94140625 457.01953125 282.80078125 564.48046875 282.80078125 607.620117188 c 4
 282.80078125 663.389648438 263.91015625 682.049804688 250.419921875 686 c 6
 199.580078125 696 l 5
 199.580078125 796 l 5
 260.419921875 796 l 6
 360.669921875 796 358.80078125 650.0703125 358.80078125 607.620117188 c 4
 358.80078125 504.26953125 379.451171875 464.120117188 468.2109375 398 c 5
 382.541015625 360.110351562 l 5
382.541015625 435.889648438 m 5
 468.2109375 398 l 5
 379.451171875 331.879882812 358.80078125 291.73046875 358.80078125 188.379882812 c 4
 358.80078125 145.9296875 360.669921875 0 260.419921875 0 c 6
 199.580078125 0 l 5
 199.580078125 100 l 5
 250.419921875 110 l 6
 263.91015625 113.950195312 282.80078125 132.610351562 282.80078125 188.379882812 c 4
 282.80078125 231.51953125 263.94140625 338.98046875 382.541015625 435.889648438 c 5
157 94.2099609375 m 6
 157 107.540039062 157 107.540039062 170.330078125 107.540039062 c 6
 221.541015625 107.540039062 l 6
 234.87109375 107.540039062 234.87109375 107.540039062 234.87109375 94.2099609375 c 6
 234.87109375 13.330078125 l 6
 234.87109375 0 234.87109375 0 221.541015625 0 c 6
 170.330078125 0 l 6
 157 0 157 0 157 13.330078125 c 6
 157 94.2099609375 l 6
EndSplineSet
Validated: 524325
EndChar

StartChar: braceleft
Encoding: 123 123 84
Width: 625
Flags: HW
LayerCount: 2
Fore
SplineSet
157 431.990234375 m 6
 157 445.3203125 157 445.3203125 170.330078125 445.3203125 c 6
 251.2109375 445.3203125 l 6
 264.541015625 445.3203125 264.541015625 445.3203125 264.541015625 431.990234375 c 6
 264.541015625 380.780273438 l 6
 264.541015625 367.450195312 264.541015625 367.450195312 251.2109375 367.450195312 c 6
 170.330078125 367.450195312 l 6
 157 367.450195312 157 367.450195312 157 380.780273438 c 6
 157 431.990234375 l 6
157 413.860351562 m 6
 157 427.190429688 157 427.190429688 170.330078125 427.190429688 c 6
 251.2109375 427.190429688 l 6
 264.541015625 427.190429688 264.541015625 427.190429688 264.541015625 413.860351562 c 6
 264.541015625 362.650390625 l 6
 264.541015625 349.3203125 264.541015625 349.3203125 251.2109375 349.3203125 c 6
 170.330078125 349.3203125 l 6
 157 349.3203125 157 349.3203125 157 362.650390625 c 6
 157 413.860351562 l 6
390.33984375 782.669921875 m 6
 390.33984375 796 390.33984375 796 403.669921875 796 c 6
 454.880859375 796 l 6
 468.2109375 796 468.2109375 796 468.2109375 782.669921875 c 6
 468.2109375 701.790039062 l 6
 468.2109375 688.459960938 468.2109375 688.459960938 454.880859375 688.459960938 c 6
 403.669921875 688.459960938 l 6
 390.33984375 688.459960938 390.33984375 688.459960938 390.33984375 701.790039062 c 6
 390.33984375 782.669921875 l 6
242.669921875 360.110351562 m 5
 157 398 l 5
 245.759765625 464.120117188 266.41015625 504.26953125 266.41015625 607.620117188 c 4
 266.41015625 650.0703125 264.541015625 796 364.791015625 796 c 6
 425.630859375 796 l 5
 425.630859375 696 l 5
 374.791015625 686 l 6
 361.30078125 682.049804688 342.41015625 663.389648438 342.41015625 607.620117188 c 4
 342.41015625 564.48046875 361.26953125 457.01953125 242.669921875 360.110351562 c 5
242.669921875 435.889648438 m 5
 361.26953125 338.98046875 342.41015625 231.51953125 342.41015625 188.379882812 c 4
 342.41015625 132.610351562 361.30078125 113.950195312 374.791015625 110 c 6
 425.630859375 100 l 5
 425.630859375 0 l 5
 364.791015625 0 l 6
 264.541015625 0 266.41015625 145.9296875 266.41015625 188.379882812 c 4
 266.41015625 291.73046875 245.759765625 331.879882812 157 398 c 5
 242.669921875 435.889648438 l 5
390.33984375 94.2099609375 m 6
 390.33984375 107.540039062 390.33984375 107.540039062 403.669921875 107.540039062 c 6
 454.880859375 107.540039062 l 6
 468.2109375 107.540039062 468.2109375 107.540039062 468.2109375 94.2099609375 c 6
 468.2109375 13.330078125 l 6
 468.2109375 0 468.2109375 0 454.880859375 0 c 6
 403.669921875 0 l 6
 390.33984375 0 390.33984375 0 390.33984375 13.330078125 c 6
 390.33984375 94.2099609375 l 6
EndSplineSet
Validated: 524325
EndChar

StartChar: asciitilde
Encoding: 126 126 85
Width: 898
Flags: HW
LayerCount: 2
Fore
SplineSet
633.469726562 512.6796875 m 6
 633.469726562 526.009765625 633.469726562 526.009765625 646.799804688 526.009765625 c 6
 727.6796875 526.009765625 l 6
 741.009765625 526.009765625 741.009765625 526.009765625 741.009765625 512.6796875 c 6
 741.009765625 461.469726562 l 6
 741.009765625 448.139648438 741.009765625 448.139648438 727.6796875 448.139648438 c 6
 646.799804688 448.139648438 l 6
 633.469726562 448.139648438 633.469726562 448.139648438 633.469726562 461.469726562 c 6
 633.469726562 512.6796875 l 6
157.009765625 334.540039062 m 6
 157.009765625 347.870117188 157.009765625 347.870117188 170.33984375 347.870117188 c 6
 251.219726562 347.870117188 l 6
 264.549804688 347.870117188 264.549804688 347.870117188 264.549804688 334.540039062 c 6
 264.549804688 283.330078125 l 6
 264.549804688 270 264.549804688 270 251.219726562 270 c 6
 170.33984375 270 l 6
 157.009765625 270 157.009765625 270 157.009765625 283.330078125 c 6
 157.009765625 334.540039062 l 6
445 465.360351562 m 5
 478 437.650390625 565.83984375 375.8203125 593.370117188 366.959960938 c 5
 607.1796875 366.959960938 l 6
 622.549804688 366.959960938 641.009765625 395.8203125 641.009765625 428.379882812 c 6
 641.009765625 496.900390625 l 5
 741.009765625 496.900390625 l 5
 741.009765625 428.389648438 l 6
 741.009765625 340.919921875 689 270.009765625 601.529296875 270.009765625 c 6
 575.1796875 270.009765625 l 6
 551.689453125 270.009765625 494.319335938 290 445.009765625 332.73046875 c 5
 445.009765625 465.360351562 l 5
 445 465.360351562 l 5
453.009765625 326.33984375 m 5
 420.009765625 354.049804688 332.169921875 413.879882812 304.639648438 422.740234375 c 5
 290.830078125 422.740234375 l 6
 275.459960938 422.740234375 257 393.879882812 257 361.3203125 c 6
 257 292.809570312 l 5
 157 292.809570312 l 5
 157 361.3203125 l 6
 157 448.790039062 209.009765625 519.700195312 296.479492188 519.700195312 c 6
 322.830078125 519.700195312 l 6
 346.319335938 519.700195312 403.689453125 501.669921875 453 458.940429688 c 5
 453 326.349609375 l 5
 453 326.349609375 l 5
 453.009765625 326.33984375 l 5
EndSplineSet
Validated: 524293
EndChar

StartChar: one
Encoding: 49 49 86
Width: 697
Flags: HW
LayerCount: 2
Fore
SplineSet
300.5 64.08984375 m 5
 300.5 776.08984375 l 5
 396.5 776.08984375 l 5
 396.5 64.08984375 l 5
 300.5 64.08984375 l 5
69.830078125 568 m 6
 56.5 568 56.5 568 56.5 581.330078125 c 6
 56.5 662.209960938 l 6
 56.5 675.540039062 56.5 675.540039062 69.830078125 675.540039062 c 6
 121.040039062 675.540039062 l 6
 134.370117188 675.540039062 134.370117188 675.540039062 134.370117188 662.209960938 c 6
 134.370117188 581.330078125 l 6
 134.370117188 568 134.370117188 568 121.040039062 568 c 6
 69.830078125 568 l 6
110.259765625 664 m 5
 132.559570312 663.790039062 l 5
 132.559570312 568 l 5
 110.259765625 568 l 5
 110.259765625 664 l 5
130.200195312 663.790039062 m 5
 141.900390625 663.790039062 l 6
 176.299804688 663.790039062 293.509765625 718.209960938 293.509765625 752.610351562 c 6
 293.509765625 775.469726562 l 5
 398.509765625 791.469726562 l 5
 398.509765625 768.610351562 l 6
 398.509765625 681.139648438 229.75 567.990234375 142.280273438 567.990234375 c 6
 130.200195312 567.990234375 l 5
 130.200195312 663.780273438 l 5
 130.200195312 663.790039062 l 5
300.5 782.669921875 m 6
 300.5 796 300.5 796 313.830078125 796 c 6
 394.709960938 796 l 6
 408.040039062 796 408.040039062 796 408.040039062 782.669921875 c 6
 408.040039062 731.459960938 l 6
 408.040039062 718.129882812 408.040039062 718.129882812 394.709960938 718.129882812 c 6
 313.830078125 718.129882812 l 6
 300.5 718.129882812 300.5 718.129882812 300.5 731.459960938 c 6
 300.5 782.669921875 l 6
288.959960938 782.669921875 m 6
 288.959960938 796 288.959960938 796 302.290039062 796 c 6
 383.169921875 796 l 6
 396.5 796 396.5 796 396.5 782.669921875 c 6
 396.5 731.459960938 l 6
 396.5 718.129882812 396.5 718.129882812 383.169921875 718.129882812 c 6
 302.290039062 718.129882812 l 6
 288.959960938 718.129882812 288.959960938 718.129882812 288.959960938 731.459960938 c 6
 288.959960938 782.669921875 l 6
597.26953125 -0.009765625 m 5
 87.009765625 -0.009765625 l 5
 87.009765625 95.990234375 l 5
 597.26953125 95.990234375 l 5
 597.26953125 -0.009765625 l 5
56.5 94.2099609375 m 6
 56.5 107.540039062 56.5 107.540039062 69.830078125 107.540039062 c 6
 121.040039062 107.540039062 l 6
 134.370117188 107.540039062 134.370117188 107.540039062 134.370117188 94.2099609375 c 6
 134.370117188 13.330078125 l 6
 134.370117188 0 134.370117188 0 121.040039062 0 c 6
 69.830078125 0 l 6
 56.5 0 56.5 0 56.5 13.330078125 c 6
 56.5 94.2099609375 l 6
562.629882812 94.2099609375 m 6
 562.629882812 107.540039062 562.629882812 107.540039062 575.959960938 107.540039062 c 6
 627.169921875 107.540039062 l 6
 640.5 107.540039062 640.5 107.540039062 640.5 94.2099609375 c 6
 640.5 13.330078125 l 6
 640.5 0 640.5 0 627.169921875 0 c 6
 575.959960938 0 l 6
 562.629882812 0 562.629882812 0 562.629882812 13.330078125 c 6
 562.629882812 94.2099609375 l 6
EndSplineSet
Validated: 524293
EndChar

StartChar: two
Encoding: 50 50 87
Width: 710
Flags: HW
LayerCount: 2
Fore
SplineSet
108.770507812 0 m 5
 108.770507812 96 l 5
 585.520507812 96 l 5
 585.520507812 0 l 5
 108.770507812 0 l 5
63.0703125 94.2099609375 m 6
 63.0703125 107.540039062 63.0703125 107.540039062 76.400390625 107.540039062 c 6
 127.610351562 107.540039062 l 6
 140.940429688 107.540039062 140.940429688 107.540039062 140.940429688 94.2099609375 c 6
 140.940429688 13.330078125 l 6
 140.940429688 0 140.940429688 0 127.610351562 0 c 6
 76.400390625 0 l 6
 63.0703125 0 63.0703125 0 63.0703125 13.330078125 c 6
 63.0703125 94.2099609375 l 6
569.129882812 94.2099609375 m 6
 569.129882812 107.540039062 569.129882812 107.540039062 582.459960938 107.540039062 c 6
 633.669921875 107.540039062 l 6
 647 107.540039062 647 107.540039062 647 94.2099609375 c 6
 647 13.330078125 l 6
 647 0 647 0 633.669921875 0 c 6
 582.459960938 0 l 6
 569.129882812 0 569.129882812 0 569.129882812 13.330078125 c 6
 569.129882812 94.2099609375 l 6
63 647.25 m 6
 63 660.580078125 63 660.580078125 76.330078125 660.580078125 c 6
 157.209960938 660.580078125 l 6
 170.540039062 660.580078125 170.540039062 660.580078125 170.540039062 647.25 c 6
 170.540039062 596.040039062 l 6
 170.540039062 582.709960938 170.540039062 582.709960938 157.209960938 582.709960938 c 6
 76.330078125 582.709960938 l 6
 63 582.709960938 63 582.709960938 63 596.040039062 c 6
 63 647.25 l 6
159 637.620117188 m 5
 159 606.599609375 l 5
 63 606.599609375 l 5
 63 637.620117188 l 6
 63 725.08984375 133.91015625 796 221.379882812 796 c 6
 488.620117188 796 l 6
 576.08984375 796 647 725.08984375 647 637.620117188 c 6
 647 621.83984375 l 5
 551 621.83984375 l 5
 551 637.620117188 l 6
 551 672.01953125 523.020507812 696 488.620117188 696 c 6
 221.379882812 696 l 6
 186.98046875 696 159 672.01953125 159 637.620117188 c 5
532.959960938 588.530273438 m 5
 548.350585938 607.240234375 551 614.459960938 551 631.6796875 c 6
 551 647.459960938 l 5
 647 647.459960938 l 5
 647 631.6796875 l 6
 647 588.139648438 629.180664062 548.950195312 600.75 520.3203125 c 5
 532.970703125 588.530273438 l 5
 532.959960938 588.530273438 l 5
63.0458984375 64.0703125 m 5
 532.954101562 588.528320312 l 5
 604.452148438 524.465820312 l 5
 134.543945312 0.0087890625 l 5
 63.0458984375 64.0703125 l 5
EndSplineSet
Validated: 524293
EndChar

StartChar: three
Encoding: 51 51 88
Width: 712
Flags: HW
LayerCount: 2
Fore
SplineSet
552.00390625 516.23046875 m 5
 552.00390625 620.799804688 l 5
 648.00390625 620.799804688 l 5
 648.00390625 516.23046875 l 5
 552.00390625 516.23046875 l 5
552.00390625 165.370117188 m 5
 552.00390625 269.940429688 l 5
 648.00390625 269.940429688 l 5
 648.00390625 165.370117188 l 5
 552.00390625 165.370117188 l 5
160.00390625 158.379882812 m 5
 160.00390625 123.98046875 187.984375 100 222.384765625 100 c 6
 489.625 100 l 6
 524.025390625 100 552.00390625 123.98046875 552.00390625 158.379882812 c 6
 552.00390625 174.16015625 l 5
 648.00390625 174.16015625 l 5
 648.00390625 158.379882812 l 6
 648.00390625 70.91015625 577.09375 0 489.625 0 c 6
 222.384765625 0 l 6
 134.9140625 0 64.00390625 70.91015625 64.00390625 158.379882812 c 6
 64.00390625 189.400390625 l 5
 160.00390625 189.400390625 l 5
 160.00390625 158.379882812 l 5
638.39453125 692.080078125 m 5
 638.375 692.080078125 l 5
 644.59375 675.099609375 647.984375 656.75 647.984375 637.620117188 c 6
 647.984375 606.599609375 l 5
 551.984375 606.599609375 l 5
 551.984375 637.620117188 l 6
 551.984375 672.01953125 524.00390625 696 489.60546875 696 c 6
 222.365234375 696 l 6
 187.96484375 696 159.984375 672.01953125 159.984375 637.620117188 c 6
 159.984375 606.599609375 l 5
 63.984375 606.599609375 l 5
 63.984375 637.620117188 l 6
 63.984375 656.759765625 67.375 675.099609375 73.59375 692.080078125 c 4
 74.484375 694.5 75.435546875 696.900390625 76.435546875 699.26953125 c 4
 76.935546875 700.450195312 77.4453125 701.629882812 77.974609375 702.799804688 c 4
 79.03515625 705.139648438 80.14453125 707.440429688 81.314453125 709.719726562 c 4
 83.64453125 714.26953125 86.185546875 718.700195312 88.935546875 722.98046875 c 4
 91.685546875 727.26953125 94.634765625 731.41015625 97.765625 735.400390625 c 4
 98.5546875 736.389648438 99.34375 737.379882812 100.154296875 738.360351562 c 4
 104.994140625 744.23046875 110.244140625 749.740234375 115.875 754.849609375 c 4
 117.75390625 756.559570312 119.6640625 758.219726562 121.625 759.830078125 c 4
 123.57421875 761.440429688 125.57421875 763.009765625 127.60546875 764.530273438 c 4
 129.634765625 766.049804688 131.705078125 767.530273438 133.814453125 768.950195312 c 4
 135.923828125 770.370117188 138.064453125 771.75 140.244140625 773.0703125 c 4
 143.50390625 775.049804688 146.85546875 776.919921875 150.265625 778.669921875 c 4
 157.09375 782.169921875 164.21484375 785.190429688 171.57421875 787.6796875 c 4
 176.484375 789.33984375 181.494140625 790.76953125 186.60546875 791.950195312 c 4
 189.154296875 792.540039062 191.734375 793.0703125 194.333984375 793.530273438 c 4
 203.435546875 795.150390625 212.8046875 796 222.375 796 c 6
 489.615234375 796 l 6
 499.185546875 796 508.5546875 795.16015625 517.654296875 793.530273438 c 4
 520.25390625 793.0703125 522.833984375 792.540039062 525.384765625 791.950195312 c 4
 530.494140625 790.76953125 535.50390625 789.33984375 540.4140625 787.6796875 c 4
 547.775390625 785.1796875 554.89453125 782.169921875 561.724609375 778.669921875 c 4
 565.134765625 776.919921875 568.474609375 775.049804688 571.744140625 773.0703125 c 4
 573.923828125 771.75 576.064453125 770.370117188 578.173828125 768.950195312 c 4
 580.28515625 767.51953125 582.35546875 766.049804688 584.384765625 764.530273438 c 4
 586.4140625 763.009765625 588.404296875 761.440429688 590.365234375 759.830078125 c 4
 592.32421875 758.209960938 594.234375 756.549804688 596.115234375 754.849609375 c 4
 597.984375 753.150390625 599.82421875 751.400390625 601.615234375 749.610351562 c 4
 602.50390625 748.709960938 603.39453125 747.809570312 604.265625 746.889648438 c 4
 606.884765625 744.139648438 609.4140625 741.290039062 611.833984375 738.360351562 c 4
 612.64453125 737.379882812 613.4453125 736.400390625 614.224609375 735.400390625 c 4
 617.365234375 731.41015625 620.3046875 727.259765625 623.0546875 722.98046875 c 4
 625.794921875 718.700195312 628.34375 714.26953125 630.673828125 709.719726562 c 4
 631.84375 707.450195312 632.955078125 705.139648438 634.015625 702.799804688 c 4
 634.53515625 701.629882812 635.0546875 700.450195312 635.5546875 699.26953125 c 4
 636.564453125 696.900390625 637.50390625 694.509765625 638.39453125 692.080078125 c 5
552.00390625 537.400390625 m 5
 552.015625 537.400390625 l 5
 648.015625 537.400390625 l 5
 648.015625 506.379882812 l 6
 648.015625 487.240234375 644.625 468.900390625 638.404296875 451.919921875 c 4
 637.515625 449.5 636.564453125 447.099609375 635.564453125 444.73046875 c 4
 635.064453125 443.549804688 634.5546875 442.370117188 634.025390625 441.200195312 c 4
 632.96484375 438.860351562 631.85546875 436.559570312 630.685546875 434.280273438 c 4
 628.35546875 429.73046875 625.814453125 425.299804688 623.064453125 421.01953125 c 4
 620.314453125 416.73046875 617.365234375 412.58984375 614.234375 408.599609375 c 4
 613.4453125 407.610351562 612.654296875 406.620117188 611.84375 405.639648438 c 4
 609.423828125 402.709960938 606.89453125 399.860351562 604.275390625 397.110351562 c 4
 603.404296875 396.190429688 602.525390625 395.290039062 601.625 394.389648438 c 4
 599.833984375 392.599609375 598.00390625 390.849609375 596.125 389.150390625 c 4
 594.244140625 387.440429688 592.333984375 385.780273438 590.375 384.169921875 c 4
 588.423828125 382.559570312 586.423828125 380.990234375 584.39453125 379.469726562 c 4
 582.365234375 377.950195312 580.294921875 376.469726562 578.185546875 375.049804688 c 4
 576.07421875 373.629882812 573.935546875 372.25 571.75390625 370.9296875 c 4
 568.494140625 368.950195312 565.14453125 367.080078125 561.734375 365.330078125 c 4
 554.904296875 361.830078125 547.78515625 358.809570312 540.423828125 356.3203125 c 4
 535.515625 354.66015625 530.50390625 353.23046875 525.39453125 352.049804688 c 4
 522.84375 351.459960938 520.265625 350.9296875 517.6640625 350.469726562 c 4
 508.564453125 348.849609375 499.1953125 348 489.625 348 c 6
 346.814453125 348 l 5
 346.814453125 448 l 5
 489.625 448 l 6
 524.025390625 448 552.00390625 471.98046875 552.00390625 506.379882812 c 6
 552.00390625 537.400390625 l 5
638.39453125 344.080078125 m 5
 638.384765625 344.080078125 l 5
 644.60546875 327.099609375 647.994140625 308.75 647.994140625 289.620117188 c 6
 647.994140625 258.599609375 l 5
 551.994140625 258.599609375 l 5
 551.994140625 289.620117188 l 6
 551.994140625 324.01953125 524.015625 348 489.615234375 348 c 6
 280.525390625 348 l 5
 280.525390625 448 l 5
 489.615234375 448 l 6
 499.185546875 448 508.5546875 447.16015625 517.654296875 445.530273438 c 4
 520.25390625 445.0703125 522.833984375 444.540039062 525.384765625 443.950195312 c 4
 530.494140625 442.76953125 535.50390625 441.33984375 540.4140625 439.6796875 c 4
 547.775390625 437.1796875 554.89453125 434.169921875 561.724609375 430.669921875 c 4
 565.134765625 428.919921875 568.474609375 427.049804688 571.744140625 425.0703125 c 4
 573.923828125 423.75 576.064453125 422.370117188 578.173828125 420.950195312 c 4
 580.28515625 419.51953125 582.35546875 418.049804688 584.384765625 416.530273438 c 4
 586.4140625 415.009765625 588.404296875 413.440429688 590.365234375 411.830078125 c 4
 592.32421875 410.209960938 594.234375 408.549804688 596.115234375 406.849609375 c 4
 597.984375 405.150390625 599.82421875 403.400390625 601.615234375 401.610351562 c 4
 602.50390625 400.709960938 603.39453125 399.809570312 604.265625 398.889648438 c 4
 606.884765625 396.139648438 609.4140625 393.290039062 611.833984375 390.360351562 c 4
 612.64453125 389.379882812 613.4453125 388.400390625 614.224609375 387.400390625 c 4
 617.365234375 383.41015625 620.3046875 379.259765625 623.0546875 374.98046875 c 4
 625.794921875 370.700195312 628.34375 366.26953125 630.673828125 361.719726562 c 4
 631.84375 359.450195312 632.955078125 357.139648438 634.015625 354.799804688 c 4
 634.53515625 353.629882812 635.0546875 352.450195312 635.5546875 351.26953125 c 4
 636.564453125 348.900390625 637.50390625 346.509765625 638.39453125 344.080078125 c 5
64.00390625 199.959960938 m 6
 64.00390625 213.290039062 64.00390625 213.290039062 77.333984375 213.290039062 c 6
 158.21484375 213.290039062 l 6
 171.544921875 213.290039062 171.544921875 213.290039062 171.544921875 199.959960938 c 6
 171.544921875 148.75 l 6
 171.544921875 135.419921875 171.544921875 135.419921875 158.21484375 135.419921875 c 6
 77.333984375 135.419921875 l 6
 64.00390625 135.419921875 64.00390625 135.419921875 64.00390625 148.75 c 6
 64.00390625 199.959960938 l 6
259.14453125 438.440429688 m 6
 259.14453125 451.76953125 259.14453125 451.76953125 272.474609375 451.76953125 c 6
 323.685546875 451.76953125 l 6
 337.015625 451.76953125 337.015625 451.76953125 337.015625 438.440429688 c 6
 337.015625 357.559570312 l 6
 337.015625 344.23046875 337.015625 344.23046875 323.685546875 344.23046875 c 6
 272.474609375 344.23046875 l 6
 259.14453125 344.23046875 259.14453125 344.23046875 259.14453125 357.559570312 c 6
 259.14453125 438.440429688 l 6
64.00390625 647.25 m 6
 64.00390625 660.580078125 64.00390625 660.580078125 77.333984375 660.580078125 c 6
 158.21484375 660.580078125 l 6
 171.544921875 660.580078125 171.544921875 660.580078125 171.544921875 647.25 c 6
 171.544921875 596.040039062 l 6
 171.544921875 582.709960938 171.544921875 582.709960938 158.21484375 582.709960938 c 6
 77.333984375 582.709960938 l 6
 64.00390625 582.709960938 64.00390625 582.709960938 64.00390625 596.040039062 c 6
 64.00390625 647.25 l 6
EndSplineSet
Validated: 524293
EndChar

